<svg width="935" height="216" viewBox="0 0 935 216" fill="none" xmlns="http://www.w3.org/2000/svg">
<rect x="741" y="1" width="193" height="214" stroke="#5D8392" stroke-width="2"/>
<path d="M781.286 107.909C781.286 109.827 780.94 111.484 780.248 112.881C779.555 114.277 778.605 115.355 777.398 116.112C776.19 116.87 774.811 117.249 773.261 117.249C771.71 117.249 770.331 116.87 769.124 116.112C767.916 115.355 766.966 114.277 766.274 112.881C765.581 111.484 765.235 109.827 765.235 107.909C765.235 105.991 765.581 104.334 766.274 102.938C766.966 101.541 767.916 100.464 769.124 99.706C770.331 98.9484 771.71 98.5696 773.261 98.5696C774.811 98.5696 776.19 98.9484 777.398 99.706C778.605 100.464 779.555 101.541 780.248 102.938C780.94 104.334 781.286 105.991 781.286 107.909ZM779.156 107.909C779.156 106.335 778.892 105.006 778.366 103.923C777.845 102.84 777.137 102.02 776.244 101.464C775.356 100.907 774.362 100.629 773.261 100.629C772.16 100.629 771.163 100.907 770.269 101.464C769.381 102.02 768.674 102.84 768.147 103.923C767.626 105.006 767.366 106.335 767.366 107.909C767.366 109.483 767.626 110.812 768.147 111.895C768.674 112.978 769.381 113.798 770.269 114.354C771.163 114.911 772.16 115.189 773.261 115.189C774.362 115.189 775.356 114.911 776.244 114.354C777.137 113.798 777.845 112.978 778.366 111.895C778.892 110.812 779.156 109.483 779.156 107.909ZM787.19 98.8182V117H784.988V98.8182H787.19ZM797.215 117H791.605V98.8182H797.464C799.228 98.8182 800.737 99.1822 801.992 99.9102C803.246 100.632 804.208 101.671 804.877 103.026C805.546 104.376 805.88 105.991 805.88 107.874C805.88 109.768 805.543 111.398 804.868 112.765C804.193 114.127 803.211 115.174 801.921 115.908C800.63 116.636 799.062 117 797.215 117ZM793.806 115.047H797.073C798.577 115.047 799.823 114.757 800.811 114.177C801.799 113.597 802.536 112.771 803.022 111.7C803.507 110.629 803.749 109.353 803.749 107.874C803.749 106.406 803.51 105.142 803.03 104.083C802.551 103.017 801.835 102.201 800.882 101.632C799.929 101.058 798.742 100.771 797.322 100.771H793.806V115.047ZM824.204 104.5H822.002C821.872 103.867 821.644 103.31 821.319 102.831C820.999 102.352 820.609 101.949 820.147 101.624C819.691 101.292 819.185 101.044 818.629 100.878C818.072 100.712 817.492 100.629 816.889 100.629C815.788 100.629 814.791 100.907 813.897 101.464C813.009 102.02 812.302 102.84 811.775 103.923C811.254 105.006 810.994 106.335 810.994 107.909C810.994 109.483 811.254 110.812 811.775 111.895C812.302 112.978 813.009 113.798 813.897 114.354C814.791 114.911 815.788 115.189 816.889 115.189C817.492 115.189 818.072 115.106 818.629 114.94C819.185 114.775 819.691 114.529 820.147 114.203C820.609 113.872 820.999 113.467 821.319 112.987C821.644 112.502 821.872 111.946 822.002 111.318H824.204C824.038 112.247 823.736 113.079 823.298 113.813C822.861 114.547 822.316 115.171 821.665 115.686C821.014 116.195 820.283 116.583 819.472 116.849C818.667 117.115 817.806 117.249 816.889 117.249C815.338 117.249 813.959 116.87 812.752 116.112C811.544 115.355 810.594 114.277 809.902 112.881C809.209 111.484 808.863 109.827 808.863 107.909C808.863 105.991 809.209 104.334 809.902 102.938C810.594 101.541 811.544 100.464 812.752 99.706C813.959 98.9484 815.338 98.5696 816.889 98.5696C817.806 98.5696 818.667 98.7028 819.472 98.9691C820.283 99.2354 821.014 99.6261 821.665 100.141C822.316 100.65 822.861 101.271 823.298 102.005C823.736 102.733 824.038 103.565 824.204 104.5ZM844.736 103.364C844.63 102.464 844.198 101.766 843.44 101.268C842.683 100.771 841.753 100.523 840.652 100.523C839.848 100.523 839.143 100.653 838.54 100.913C837.942 101.174 837.474 101.532 837.137 101.988C836.805 102.443 836.64 102.961 836.64 103.541C836.64 104.027 836.755 104.444 836.986 104.793C837.223 105.136 837.524 105.423 837.891 105.654C838.258 105.879 838.643 106.065 839.046 106.213C839.448 106.355 839.818 106.471 840.155 106.56L842.002 107.057C842.475 107.181 843.002 107.353 843.582 107.572C844.168 107.791 844.727 108.09 845.26 108.468C845.799 108.841 846.243 109.321 846.592 109.907C846.941 110.493 847.116 111.212 847.116 112.064C847.116 113.046 846.858 113.934 846.343 114.727C845.834 115.52 845.088 116.151 844.106 116.618C843.129 117.086 841.943 117.32 840.546 117.32C839.244 117.32 838.116 117.109 837.163 116.689C836.216 116.269 835.471 115.683 834.926 114.931C834.388 114.18 834.083 113.307 834.012 112.312H836.285C836.344 112.999 836.575 113.567 836.977 114.017C837.385 114.461 837.9 114.792 838.522 115.011C839.149 115.224 839.824 115.331 840.546 115.331C841.386 115.331 842.141 115.195 842.81 114.923C843.479 114.644 844.008 114.26 844.399 113.768C844.79 113.271 844.985 112.691 844.985 112.028C844.985 111.425 844.816 110.933 844.479 110.555C844.141 110.176 843.698 109.868 843.147 109.631C842.597 109.395 842.002 109.187 841.363 109.01L839.125 108.371C837.705 107.962 836.58 107.379 835.752 106.622C834.923 105.864 834.509 104.873 834.509 103.648C834.509 102.63 834.784 101.742 835.335 100.984C835.891 100.221 836.637 99.629 837.572 99.2088C838.513 98.7827 839.563 98.5696 840.723 98.5696C841.895 98.5696 842.937 98.7797 843.848 99.1999C844.76 99.6142 845.482 100.182 846.015 100.904C846.553 101.627 846.837 102.446 846.867 103.364H844.736ZM856.169 117.284C854.855 117.284 853.721 116.994 852.768 116.414C851.822 115.828 851.091 115.011 850.576 113.964C850.067 112.91 849.812 111.685 849.812 110.288C849.812 108.892 850.067 107.661 850.576 106.595C851.091 105.524 851.807 104.689 852.724 104.092C853.647 103.488 854.725 103.186 855.956 103.186C856.666 103.186 857.367 103.304 858.06 103.541C858.752 103.778 859.382 104.163 859.951 104.695C860.519 105.222 860.972 105.92 861.309 106.79C861.646 107.661 861.815 108.732 861.815 110.004V110.892H851.304V109.081H859.684C859.684 108.312 859.53 107.625 859.223 107.021C858.921 106.418 858.489 105.941 857.927 105.592C857.37 105.243 856.713 105.068 855.956 105.068C855.121 105.068 854.399 105.275 853.789 105.69C853.186 106.098 852.721 106.631 852.396 107.288C852.07 107.945 851.907 108.649 851.907 109.401V110.608C851.907 111.638 852.085 112.511 852.44 113.227C852.801 113.937 853.301 114.479 853.94 114.852C854.58 115.219 855.322 115.402 856.169 115.402C856.719 115.402 857.216 115.325 857.66 115.171C858.11 115.011 858.498 114.775 858.823 114.461C859.149 114.141 859.4 113.745 859.578 113.271L861.602 113.839C861.389 114.526 861.031 115.13 860.528 115.651C860.025 116.165 859.403 116.568 858.663 116.858C857.924 117.142 857.092 117.284 856.169 117.284ZM865.002 117V103.364H867.026V105.423H867.168C867.417 104.749 867.867 104.201 868.518 103.781C869.169 103.361 869.903 103.151 870.719 103.151C870.873 103.151 871.066 103.154 871.297 103.159C871.527 103.165 871.702 103.174 871.82 103.186V105.317C871.749 105.299 871.587 105.272 871.332 105.237C871.083 105.195 870.82 105.175 870.542 105.175C869.879 105.175 869.287 105.314 868.766 105.592C868.251 105.864 867.843 106.243 867.541 106.728C867.245 107.208 867.097 107.755 867.097 108.371V117H865.002ZM885.87 103.364L880.827 117H878.696L873.654 103.364H875.926L879.691 114.23H879.833L883.597 103.364H885.87ZM893.864 117.284C892.55 117.284 891.417 116.994 890.464 116.414C889.517 115.828 888.786 115.011 888.271 113.964C887.762 112.91 887.507 111.685 887.507 110.288C887.507 108.892 887.762 107.661 888.271 106.595C888.786 105.524 889.502 104.689 890.419 104.092C891.343 103.488 892.42 103.186 893.651 103.186C894.361 103.186 895.063 103.304 895.755 103.541C896.447 103.778 897.078 104.163 897.646 104.695C898.214 105.222 898.667 105.92 899.004 106.79C899.342 107.661 899.51 108.732 899.51 110.004V110.892H888.999V109.081H897.38C897.38 108.312 897.226 107.625 896.918 107.021C896.616 106.418 896.184 105.941 895.622 105.592C895.065 105.243 894.409 105.068 893.651 105.068C892.816 105.068 892.094 105.275 891.485 105.69C890.881 106.098 890.416 106.631 890.091 107.288C889.765 107.945 889.603 108.649 889.603 109.401V110.608C889.603 111.638 889.78 112.511 890.135 113.227C890.496 113.937 890.996 114.479 891.636 114.852C892.275 115.219 893.018 115.402 893.864 115.402C894.414 115.402 894.912 115.325 895.355 115.171C895.805 115.011 896.193 114.775 896.518 114.461C896.844 114.141 897.096 113.745 897.273 113.271L899.297 113.839C899.084 114.526 898.726 115.13 898.223 115.651C897.72 116.165 897.099 116.568 896.359 116.858C895.619 117.142 894.787 117.284 893.864 117.284ZM902.697 117V103.364H904.722V105.423H904.864C905.112 104.749 905.562 104.201 906.213 103.781C906.864 103.361 907.598 103.151 908.415 103.151C908.569 103.151 908.761 103.154 908.992 103.159C909.223 103.165 909.397 103.174 909.516 103.186V105.317C909.445 105.299 909.282 105.272 909.027 105.237C908.779 105.195 908.515 105.175 908.237 105.175C907.574 105.175 906.982 105.314 906.462 105.592C905.947 105.864 905.538 106.243 905.237 106.728C904.941 107.208 904.793 107.755 904.793 108.371V117H902.697Z" fill="#5D8392"/>
<rect x="371" y="143" width="193" height="72" stroke="#5D8392" stroke-width="2"/>
<path d="M418.676 189V170.818H425.033C426.299 170.818 427.344 171.037 428.167 171.475C428.989 171.907 429.602 172.49 430.004 173.224C430.407 173.952 430.608 174.76 430.608 175.648C430.608 176.429 430.469 177.074 430.191 177.583C429.919 178.092 429.558 178.495 429.108 178.79C428.664 179.086 428.182 179.305 427.661 179.447V179.625C428.217 179.661 428.776 179.856 429.339 180.211C429.901 180.566 430.371 181.075 430.75 181.738C431.129 182.401 431.318 183.212 431.318 184.17C431.318 185.082 431.111 185.902 430.697 186.63C430.283 187.358 429.629 187.935 428.735 188.361C427.841 188.787 426.678 189 425.246 189H418.676ZM420.878 187.047H425.246C426.684 187.047 427.705 186.769 428.309 186.212C428.918 185.65 429.223 184.969 429.223 184.17C429.223 183.555 429.066 182.987 428.753 182.466C428.439 181.939 427.992 181.519 427.412 181.205C426.832 180.886 426.146 180.726 425.352 180.726H420.878V187.047ZM420.878 178.808H424.962C425.625 178.808 426.222 178.678 426.755 178.418C427.294 178.157 427.72 177.79 428.034 177.317C428.353 176.843 428.513 176.287 428.513 175.648C428.513 174.849 428.235 174.171 427.678 173.615C427.122 173.052 426.24 172.771 425.033 172.771H420.878V178.808ZM438.665 189.32C437.801 189.32 437.016 189.157 436.312 188.831C435.608 188.5 435.049 188.023 434.634 187.402C434.22 186.775 434.013 186.017 434.013 185.129C434.013 184.348 434.167 183.715 434.474 183.229C434.782 182.738 435.194 182.353 435.708 182.075C436.223 181.797 436.792 181.59 437.413 181.454C438.04 181.312 438.671 181.199 439.304 181.116C440.133 181.01 440.804 180.93 441.319 180.877C441.84 180.818 442.219 180.72 442.456 180.584C442.698 180.448 442.82 180.211 442.82 179.874V179.803C442.82 178.927 442.58 178.246 442.1 177.761C441.627 177.275 440.908 177.033 439.943 177.033C438.943 177.033 438.159 177.252 437.591 177.69C437.022 178.128 436.623 178.595 436.392 179.092L434.403 178.382C434.759 177.554 435.232 176.908 435.824 176.447C436.422 175.979 437.073 175.654 437.777 175.47C438.487 175.281 439.186 175.186 439.872 175.186C440.31 175.186 440.813 175.239 441.381 175.346C441.955 175.446 442.509 175.657 443.042 175.976C443.58 176.296 444.027 176.778 444.382 177.423C444.737 178.068 444.915 178.933 444.915 180.016V189H442.82V187.153H442.713C442.571 187.449 442.334 187.766 442.003 188.103C441.671 188.441 441.23 188.728 440.68 188.964C440.13 189.201 439.458 189.32 438.665 189.32ZM438.984 187.438C439.813 187.438 440.511 187.275 441.08 186.949C441.654 186.624 442.086 186.203 442.376 185.689C442.672 185.174 442.82 184.632 442.82 184.064V182.146C442.731 182.253 442.536 182.35 442.234 182.439C441.938 182.522 441.594 182.596 441.204 182.661C440.819 182.72 440.443 182.774 440.076 182.821C439.715 182.862 439.422 182.898 439.197 182.928C438.653 182.999 438.144 183.114 437.67 183.274C437.203 183.428 436.824 183.661 436.534 183.975C436.25 184.283 436.108 184.703 436.108 185.236C436.108 185.964 436.377 186.514 436.916 186.887C437.46 187.254 438.15 187.438 438.984 187.438ZM454.279 189.284C453 189.284 451.899 188.982 450.976 188.379C450.053 187.775 449.343 186.943 448.845 185.884C448.348 184.824 448.1 183.614 448.1 182.253C448.1 180.868 448.354 179.646 448.863 178.586C449.378 177.521 450.094 176.689 451.012 176.092C451.935 175.488 453.012 175.186 454.243 175.186C455.202 175.186 456.066 175.364 456.835 175.719C457.605 176.074 458.235 176.571 458.726 177.21C459.218 177.849 459.523 178.595 459.641 179.447H457.546C457.386 178.826 457.031 178.276 456.48 177.796C455.936 177.311 455.202 177.068 454.279 177.068C453.462 177.068 452.746 177.281 452.13 177.707C451.521 178.128 451.044 178.722 450.701 179.492C450.364 180.255 450.195 181.152 450.195 182.182C450.195 183.235 450.361 184.153 450.692 184.934C451.029 185.715 451.503 186.322 452.112 186.754C452.728 187.186 453.45 187.402 454.279 187.402C454.823 187.402 455.317 187.307 455.761 187.118C456.205 186.929 456.581 186.656 456.889 186.301C457.197 185.946 457.416 185.52 457.546 185.023H459.641C459.523 185.828 459.23 186.553 458.762 187.198C458.3 187.837 457.688 188.346 456.924 188.725C456.167 189.098 455.285 189.284 454.279 189.284ZM464.657 184.028L464.621 181.436H465.047L471.013 175.364H473.606L467.249 181.791H467.072L464.657 184.028ZM462.704 189V170.818H464.799V189H462.704ZM471.369 189L466.042 182.253L467.533 180.797L474.032 189H471.369ZM481.458 189.284C480.144 189.284 479.011 188.994 478.058 188.414C477.111 187.828 476.38 187.011 475.865 185.964C475.356 184.91 475.102 183.685 475.102 182.288C475.102 180.892 475.356 179.661 475.865 178.595C476.38 177.524 477.096 176.689 478.014 176.092C478.937 175.488 480.014 175.186 481.245 175.186C481.955 175.186 482.657 175.304 483.349 175.541C484.042 175.778 484.672 176.163 485.24 176.695C485.808 177.222 486.261 177.92 486.598 178.79C486.936 179.661 487.104 180.732 487.104 182.004V182.892H476.593V181.081H484.974C484.974 180.312 484.82 179.625 484.512 179.021C484.21 178.418 483.778 177.941 483.216 177.592C482.66 177.243 482.003 177.068 481.245 177.068C480.411 177.068 479.689 177.275 479.079 177.69C478.475 178.098 478.011 178.631 477.685 179.288C477.36 179.945 477.197 180.649 477.197 181.401V182.608C477.197 183.638 477.374 184.511 477.729 185.227C478.091 185.937 478.591 186.479 479.23 186.852C479.869 187.219 480.612 187.402 481.458 187.402C482.009 187.402 482.506 187.325 482.95 187.171C483.399 187.011 483.787 186.775 484.113 186.461C484.438 186.141 484.69 185.745 484.867 185.271L486.891 185.839C486.678 186.526 486.32 187.13 485.817 187.651C485.314 188.165 484.693 188.568 483.953 188.858C483.213 189.142 482.381 189.284 481.458 189.284ZM492.387 180.797V189H490.292V175.364H492.316V177.494H492.493C492.813 176.802 493.298 176.246 493.949 175.825C494.6 175.399 495.441 175.186 496.471 175.186C497.394 175.186 498.202 175.375 498.894 175.754C499.587 176.127 500.125 176.695 500.51 177.459C500.895 178.216 501.087 179.175 501.087 180.335V189H498.992V180.477C498.992 179.406 498.714 178.571 498.157 177.974C497.601 177.37 496.838 177.068 495.867 177.068C495.198 177.068 494.6 177.213 494.074 177.503C493.553 177.793 493.141 178.216 492.84 178.773C492.538 179.329 492.387 180.004 492.387 180.797ZM510.065 189.284C508.928 189.284 507.925 188.997 507.055 188.423C506.185 187.843 505.505 187.026 505.013 185.973C504.522 184.913 504.276 183.661 504.276 182.217C504.276 180.785 504.522 179.542 505.013 178.489C505.505 177.435 506.188 176.621 507.064 176.047C507.94 175.473 508.952 175.186 510.1 175.186C510.988 175.186 511.689 175.334 512.204 175.63C512.725 175.92 513.122 176.251 513.394 176.624C513.672 176.991 513.888 177.293 514.042 177.53H514.22V170.818H516.315V189H514.291V186.905H514.042C513.888 187.153 513.669 187.467 513.385 187.846C513.101 188.219 512.696 188.553 512.169 188.849C511.642 189.139 510.941 189.284 510.065 189.284ZM510.349 187.402C511.189 187.402 511.9 187.183 512.48 186.745C513.06 186.301 513.501 185.689 513.802 184.907C514.104 184.12 514.255 183.212 514.255 182.182C514.255 181.164 514.107 180.273 513.811 179.51C513.515 178.74 513.077 178.142 512.497 177.716C511.917 177.284 511.201 177.068 510.349 177.068C509.461 177.068 508.721 177.296 508.129 177.752C507.544 178.202 507.103 178.814 506.807 179.589C506.517 180.359 506.372 181.223 506.372 182.182C506.372 183.152 506.52 184.034 506.816 184.827C507.117 185.615 507.561 186.242 508.147 186.71C508.739 187.171 509.473 187.402 510.349 187.402Z" fill="#5D8392"/>
<rect x="1" y="91" width="193" height="124" stroke="#5D8392" stroke-width="2"/>
<path d="M46.4058 162V143.818H57.3078V145.771H48.6075V151.915H56.491V153.868H48.6075V162H46.4058ZM60.6481 162V148.364H62.6722V150.423H62.8143C63.0629 149.749 63.5127 149.201 64.1637 148.781C64.8148 148.361 65.5487 148.151 66.3654 148.151C66.5193 148.151 66.7117 148.154 66.9425 148.159C67.1733 148.165 67.3479 148.174 67.4663 148.186V150.317C67.3952 150.299 67.2325 150.272 66.978 150.237C66.7294 150.195 66.466 150.175 66.1879 150.175C65.525 150.175 64.9331 150.314 64.4123 150.592C63.8974 150.864 63.489 151.243 63.1872 151.728C62.8912 152.208 62.7433 152.755 62.7433 153.371V162H60.6481ZM75.0746 162.284C73.8435 162.284 72.7634 161.991 71.8342 161.405C70.9109 160.819 70.1888 160 69.668 158.946C69.1531 157.893 68.8956 156.661 68.8956 155.253C68.8956 153.832 69.1531 152.592 69.668 151.533C70.1888 150.474 70.9109 149.651 71.8342 149.065C72.7634 148.479 73.8435 148.186 75.0746 148.186C76.3056 148.186 77.3828 148.479 78.3061 149.065C79.2353 149.651 79.9574 150.474 80.4723 151.533C80.9931 152.592 81.2536 153.832 81.2536 155.253C81.2536 156.661 80.9931 157.893 80.4723 158.946C79.9574 160 79.2353 160.819 78.3061 161.405C77.3828 161.991 76.3056 162.284 75.0746 162.284ZM75.0746 160.402C76.0097 160.402 76.7791 160.162 77.3828 159.683C77.9865 159.203 78.4334 158.573 78.7234 157.792C79.0134 157.011 79.1584 156.164 79.1584 155.253C79.1584 154.341 79.0134 153.492 78.7234 152.705C78.4334 151.918 77.9865 151.281 77.3828 150.796C76.7791 150.311 76.0097 150.068 75.0746 150.068C74.1394 150.068 73.37 150.311 72.7663 150.796C72.1626 151.281 71.7158 151.918 71.4258 152.705C71.1358 153.492 70.9908 154.341 70.9908 155.253C70.9908 156.164 71.1358 157.011 71.4258 157.792C71.7158 158.573 72.1626 159.203 72.7663 159.683C73.37 160.162 74.1394 160.402 75.0746 160.402ZM86.547 153.797V162H84.4518V148.364H86.4759V150.494H86.6535C86.9731 149.802 87.4584 149.246 88.1095 148.825C88.7605 148.399 89.6009 148.186 90.6308 148.186C91.5541 148.186 92.362 148.375 93.0544 148.754C93.7469 149.127 94.2855 149.695 94.6702 150.459C95.0549 151.216 95.2473 152.175 95.2473 153.335V162H93.1521V153.477C93.1521 152.406 92.8739 151.571 92.3176 150.974C91.7612 150.37 90.9977 150.068 90.0271 150.068C89.3583 150.068 88.7605 150.213 88.2338 150.503C87.7129 150.793 87.3016 151.216 86.9997 151.773C86.6979 152.329 86.547 153.004 86.547 153.797ZM105.006 148.364V150.139H97.9395V148.364H105.006ZM99.9991 145.097H102.094V158.094C102.094 158.686 102.18 159.129 102.352 159.425C102.529 159.715 102.754 159.911 103.026 160.011C103.305 160.106 103.598 160.153 103.905 160.153C104.136 160.153 104.326 160.142 104.474 160.118C104.622 160.088 104.74 160.065 104.829 160.047L105.255 161.929C105.113 161.982 104.914 162.036 104.66 162.089C104.405 162.148 104.083 162.178 103.692 162.178C103.1 162.178 102.52 162.05 101.952 161.796C101.39 161.541 100.922 161.154 100.55 160.633C100.183 160.112 99.9991 159.455 99.9991 158.662V145.097ZM113.729 162.284C112.415 162.284 111.281 161.994 110.328 161.414C109.382 160.828 108.651 160.011 108.136 158.964C107.627 157.91 107.372 156.685 107.372 155.288C107.372 153.892 107.627 152.661 108.136 151.595C108.651 150.524 109.367 149.689 110.284 149.092C111.207 148.488 112.285 148.186 113.516 148.186C114.226 148.186 114.927 148.304 115.62 148.541C116.312 148.778 116.942 149.163 117.511 149.695C118.079 150.222 118.532 150.92 118.869 151.79C119.206 152.661 119.375 153.732 119.375 155.004V155.892H108.864V154.081H117.244C117.244 153.312 117.09 152.625 116.783 152.021C116.481 151.418 116.049 150.941 115.487 150.592C114.93 150.243 114.273 150.068 113.516 150.068C112.681 150.068 111.959 150.275 111.349 150.69C110.746 151.098 110.281 151.631 109.956 152.288C109.63 152.945 109.467 153.649 109.467 154.401V155.608C109.467 156.638 109.645 157.511 110 158.227C110.361 158.937 110.861 159.479 111.5 159.852C112.14 160.219 112.882 160.402 113.729 160.402C114.279 160.402 114.776 160.325 115.22 160.171C115.67 160.011 116.058 159.775 116.383 159.461C116.709 159.141 116.96 158.745 117.138 158.271L119.162 158.839C118.949 159.526 118.591 160.13 118.088 160.651C117.585 161.165 116.963 161.568 116.223 161.858C115.484 162.142 114.652 162.284 113.729 162.284ZM124.657 153.797V162H122.562V148.364H124.586V150.494H124.764C125.083 149.802 125.569 149.246 126.22 148.825C126.871 148.399 127.711 148.186 128.741 148.186C129.664 148.186 130.472 148.375 131.165 148.754C131.857 149.127 132.396 149.695 132.781 150.459C133.165 151.216 133.358 152.175 133.358 153.335V162H131.262V153.477C131.262 152.406 130.984 151.571 130.428 150.974C129.872 150.37 129.108 150.068 128.137 150.068C127.469 150.068 126.871 150.213 126.344 150.503C125.823 150.793 125.412 151.216 125.11 151.773C124.808 152.329 124.657 153.004 124.657 153.797ZM142.335 162.284C141.199 162.284 140.196 161.997 139.326 161.423C138.456 160.843 137.775 160.026 137.284 158.973C136.793 157.913 136.547 156.661 136.547 155.217C136.547 153.785 136.793 152.542 137.284 151.489C137.775 150.435 138.459 149.621 139.335 149.047C140.211 148.473 141.223 148.186 142.371 148.186C143.259 148.186 143.96 148.334 144.475 148.63C144.996 148.92 145.392 149.251 145.665 149.624C145.943 149.991 146.159 150.293 146.313 150.53H146.49V143.818H148.585V162H146.561V159.905H146.313C146.159 160.153 145.94 160.467 145.656 160.846C145.372 161.219 144.966 161.553 144.439 161.849C143.913 162.139 143.211 162.284 142.335 162.284ZM142.619 160.402C143.46 160.402 144.17 160.183 144.75 159.745C145.33 159.301 145.771 158.689 146.073 157.907C146.375 157.12 146.526 156.212 146.526 155.182C146.526 154.164 146.378 153.273 146.082 152.51C145.786 151.74 145.348 151.142 144.768 150.716C144.188 150.284 143.472 150.068 142.619 150.068C141.732 150.068 140.992 150.296 140.4 150.752C139.814 151.202 139.373 151.814 139.077 152.589C138.787 153.359 138.642 154.223 138.642 155.182C138.642 156.152 138.79 157.034 139.086 157.827C139.388 158.615 139.832 159.242 140.418 159.71C141.01 160.171 141.743 160.402 142.619 160.402Z" fill="#5D8392"/>
<path d="M207.293 111.293C206.902 111.683 206.902 112.317 207.293 112.707L213.657 119.071C214.047 119.462 214.681 119.462 215.071 119.071C215.462 118.681 215.462 118.047 215.071 117.657L209.414 112L215.071 106.343C215.462 105.953 215.462 105.319 215.071 104.929C214.681 104.538 214.047 104.538 213.657 104.929L207.293 111.293ZM727 111L208 111V113L727 113V111Z" fill="#5D8392"/>
<path d="M356.707 181.707C357.098 181.317 357.098 180.683 356.707 180.293L350.343 173.929C349.953 173.538 349.319 173.538 348.929 173.929C348.538 174.319 348.538 174.953 348.929 175.343L354.586 181L348.929 186.657C348.538 187.047 348.538 187.681 348.929 188.071C349.319 188.462 349.953 188.462 350.343 188.071L356.707 181.707ZM207.293 180.293C206.902 180.683 206.902 181.317 207.293 181.707L213.657 188.071C214.047 188.462 214.681 188.462 215.071 188.071C215.462 187.681 215.462 187.047 215.071 186.657L209.414 181L215.071 175.343C215.462 174.953 215.462 174.319 215.071 173.929C214.681 173.538 214.047 173.538 213.657 173.929L207.293 180.293ZM356 180L208 180V182L356 182V180Z" fill="#5D8392"/>
<path d="M727.707 181.707C728.098 181.317 728.098 180.683 727.707 180.293L721.343 173.929C720.953 173.538 720.319 173.538 719.929 173.929C719.538 174.319 719.538 174.953 719.929 175.343L725.586 181L719.929 186.657C719.538 187.047 719.538 187.681 719.929 188.071C720.319 188.462 720.953 188.462 721.343 188.071L727.707 181.707ZM578.293 180.293C577.902 180.683 577.902 181.317 578.293 181.707L584.657 188.071C585.047 188.462 585.681 188.462 586.071 188.071C586.462 187.681 586.462 187.047 586.071 186.657L580.414 181L586.071 175.343C586.462 174.953 586.462 174.319 586.071 173.929C585.681 173.538 585.047 173.538 584.657 173.929L578.293 180.293ZM727 180L579 180V182L727 182V180Z" fill="#5D8392"/>
<rect x="1" y="1" width="193" height="72" stroke="#5D8392" stroke-width="2"/>
<path d="M14.9932 46H9.38237V27.8182H15.2417C17.0055 27.8182 18.5147 28.1822 19.7694 28.9102C21.0242 29.6322 21.9859 30.6709 22.6547 32.0263C23.3235 33.3757 23.6579 34.9915 23.6579 36.8736C23.6579 38.7675 23.3206 40.3981 22.6459 41.7653C21.9711 43.1265 20.9887 44.1741 19.6984 44.908C18.4082 45.636 16.8398 46 14.9932 46ZM11.5841 44.0469H14.8511C16.3544 44.0469 17.6003 43.7569 18.5887 43.1768C19.5771 42.5968 20.314 41.7712 20.7993 40.6999C21.2846 39.6287 21.5273 38.3532 21.5273 36.8736C21.5273 35.4058 21.2876 34.1422 20.8081 33.0827C20.3287 32.0174 19.6126 31.2006 18.6597 30.6325C17.7068 30.0584 16.5202 29.7713 15.0997 29.7713H11.5841V44.0469ZM32.6068 46.2841C31.3757 46.2841 30.2956 45.9911 29.3664 45.4052C28.4431 44.8192 27.721 43.9995 27.2002 42.946C26.6853 41.8925 26.4278 40.6615 26.4278 39.2528C26.4278 37.8324 26.6853 36.5924 27.2002 35.533C27.721 34.4736 28.4431 33.6509 29.3664 33.065C30.2956 32.479 31.3757 32.1861 32.6068 32.1861C33.8379 32.1861 34.915 32.479 35.8383 33.065C36.7675 33.6509 37.4896 34.4736 38.0045 35.533C38.5254 36.5924 38.7858 37.8324 38.7858 39.2528C38.7858 40.6615 38.5254 41.8925 38.0045 42.946C37.4896 43.9995 36.7675 44.8192 35.8383 45.4052C34.915 45.9911 33.8379 46.2841 32.6068 46.2841ZM32.6068 44.402C33.5419 44.402 34.3113 44.1623 34.915 43.6829C35.5187 43.2035 35.9656 42.5732 36.2556 41.7919C36.5456 41.0107 36.6906 40.1643 36.6906 39.2528C36.6906 38.3414 36.5456 37.4921 36.2556 36.7049C35.9656 35.9177 35.5187 35.2815 34.915 34.7962C34.3113 34.3108 33.5419 34.0682 32.6068 34.0682C31.6717 34.0682 30.9023 34.3108 30.2986 34.7962C29.6949 35.2815 29.248 35.9177 28.958 36.7049C28.668 37.4921 28.523 38.3414 28.523 39.2528C28.523 40.1643 28.668 41.0107 28.958 41.7919C29.248 42.5732 29.6949 43.2035 30.2986 43.6829C30.9023 44.1623 31.6717 44.402 32.6068 44.402ZM43.9371 41.0284L43.9016 38.4361H44.3278L50.2937 32.3636H52.886L46.5295 38.7912H46.3519L43.9371 41.0284ZM41.984 46V27.8182H44.0792V46H41.984ZM50.6488 46L45.3221 39.2528L46.8136 37.7969L53.3121 46H50.6488ZM64.1764 40.4247V32.3636H66.2716V46H64.1764V43.6918H64.0344C63.7148 44.3842 63.2176 44.9731 62.5429 45.4585C61.8682 45.9379 61.0159 46.1776 59.9861 46.1776C59.1338 46.1776 58.3762 45.9911 57.7133 45.6183C57.0505 45.2395 56.5296 44.6713 56.1508 43.9137C55.772 43.1502 55.5827 42.1884 55.5827 41.0284V32.3636H57.6778V40.8864C57.6778 41.8807 57.956 42.6738 58.5123 43.2656C59.0746 43.8575 59.7907 44.1534 60.6608 44.1534C61.1816 44.1534 61.7113 44.0202 62.2499 43.7539C62.7944 43.4876 63.2501 43.0792 63.6171 42.5288C63.99 41.9783 64.1764 41.277 64.1764 40.4247ZM70.109 46V32.3636H72.1332V34.4943H72.3107C72.5948 33.7663 73.0535 33.2011 73.6868 32.7987C74.3201 32.3903 75.0806 32.1861 75.9684 32.1861C76.868 32.1861 77.6167 32.3903 78.2145 32.7987C78.8182 33.2011 79.2887 33.7663 79.6261 34.4943H79.7681C80.1173 33.79 80.6411 33.2307 81.3395 32.8164C82.0379 32.3962 82.8754 32.1861 83.8519 32.1861C85.0711 32.1861 86.0684 32.5678 86.8438 33.3313C87.6191 34.0889 88.0067 35.2696 88.0067 36.8736V46H85.9116V36.8736C85.9116 35.8674 85.6364 35.1483 85.0859 34.7163C84.5355 34.2842 83.8874 34.0682 83.1417 34.0682C82.1829 34.0682 81.4401 34.3582 80.9134 34.9382C80.3866 35.5123 80.1232 36.2403 80.1232 37.1222V46H77.9925V36.6605C77.9925 35.8852 77.741 35.2608 77.2379 34.7873C76.7348 34.3079 76.0868 34.0682 75.2937 34.0682C74.7492 34.0682 74.2402 34.2132 73.7667 34.5032C73.2991 34.7932 72.9203 35.1957 72.6303 35.7106C72.3462 36.2196 72.2042 36.8085 72.2042 37.4773V46H70.109ZM97.5549 46.2841C96.2409 46.2841 95.1075 45.9941 94.1547 45.4141C93.2077 44.8281 92.4767 44.0114 91.9618 42.9638C91.4528 41.9103 91.1983 40.6851 91.1983 39.2884C91.1983 37.8916 91.4528 36.6605 91.9618 35.5952C92.4767 34.5239 93.1929 33.6894 94.1103 33.0916C95.0336 32.4879 96.1107 32.1861 97.3418 32.1861C98.052 32.1861 98.7534 32.3045 99.4458 32.5412C100.138 32.7779 100.769 33.1626 101.337 33.6953C101.905 34.2221 102.358 34.9205 102.695 35.7905C103.032 36.6605 103.201 37.7318 103.201 39.0043V39.892H92.6898V38.081H101.07C101.07 37.3116 100.917 36.625 100.609 36.0213C100.307 35.4176 99.8749 34.9412 99.3127 34.592C98.7563 34.2428 98.0994 34.0682 97.3418 34.0682C96.5073 34.0682 95.7852 34.2753 95.1756 34.6896C94.5719 35.098 94.1073 35.6307 93.7818 36.2876C93.4563 36.9446 93.2935 37.6489 93.2935 38.4006V39.608C93.2935 40.6378 93.4711 41.5108 93.8262 42.2269C94.1872 42.9371 94.6873 43.4787 95.3265 43.8516C95.9657 44.2185 96.7085 44.402 97.5549 44.402C98.1053 44.402 98.6025 44.325 99.0463 44.1712C99.4962 44.0114 99.8838 43.7746 100.209 43.4609C100.535 43.1413 100.786 42.7448 100.964 42.2713L102.988 42.8395C102.775 43.526 102.417 44.1297 101.914 44.6506C101.411 45.1655 100.789 45.5679 100.05 45.858C99.3097 46.142 98.4782 46.2841 97.5549 46.2841ZM108.483 37.7969V46H106.388V32.3636H108.412V34.4943H108.59C108.91 33.8018 109.395 33.2455 110.046 32.8253C110.697 32.3991 111.537 32.1861 112.567 32.1861C113.491 32.1861 114.298 32.3755 114.991 32.7543C115.683 33.1271 116.222 33.6953 116.607 34.4588C116.991 35.2164 117.184 36.1752 117.184 37.3352V46H115.089V37.4773C115.089 36.406 114.81 35.5715 114.254 34.9737C113.698 34.37 112.934 34.0682 111.964 34.0682C111.295 34.0682 110.697 34.2132 110.17 34.5032C109.649 34.7932 109.238 35.2164 108.936 35.7727C108.634 36.3291 108.483 37.0038 108.483 37.7969ZM126.943 32.3636V34.1392H119.876V32.3636H126.943ZM121.936 29.0966H124.031V42.0938C124.031 42.6856 124.117 43.1295 124.288 43.4254C124.466 43.7154 124.691 43.9107 124.963 44.0114C125.241 44.1061 125.534 44.1534 125.842 44.1534C126.073 44.1534 126.262 44.1416 126.41 44.1179C126.558 44.0883 126.676 44.0646 126.765 44.0469L127.191 45.929C127.049 45.9822 126.851 46.0355 126.597 46.0888C126.342 46.148 126.019 46.1776 125.629 46.1776C125.037 46.1776 124.457 46.0503 123.889 45.7958C123.326 45.5413 122.859 45.1536 122.486 44.6328C122.119 44.112 121.936 43.455 121.936 42.6619V29.0966ZM134.107 46.3196C133.243 46.3196 132.459 46.1568 131.755 45.8313C131.05 45.4999 130.491 45.0234 130.077 44.402C129.662 43.7746 129.455 43.017 129.455 42.1293C129.455 41.348 129.609 40.7147 129.917 40.2294C130.225 39.7382 130.636 39.3535 131.151 39.0753C131.666 38.7971 132.234 38.59 132.855 38.4538C133.483 38.3118 134.113 38.1993 134.746 38.1165C135.575 38.0099 136.247 37.93 136.762 37.8768C137.282 37.8176 137.661 37.7199 137.898 37.5838C138.141 37.4477 138.262 37.2109 138.262 36.8736V36.8026C138.262 35.9266 138.022 35.246 137.543 34.7607C137.069 34.2753 136.35 34.0327 135.386 34.0327C134.385 34.0327 133.601 34.2517 133.033 34.6896C132.465 35.1276 132.065 35.5952 131.834 36.0923L129.846 35.3821C130.201 34.5535 130.674 33.9084 131.266 33.4467C131.864 32.9792 132.515 32.6536 133.219 32.4702C133.93 32.2808 134.628 32.1861 135.315 32.1861C135.753 32.1861 136.256 32.2393 136.824 32.3459C137.398 32.4465 137.951 32.6566 138.484 32.9762C139.023 33.2958 139.469 33.7782 139.824 34.4233C140.18 35.0684 140.357 35.9325 140.357 37.0156V46H138.262V44.1534H138.155C138.013 44.4493 137.777 44.766 137.445 45.1033C137.114 45.4407 136.673 45.7277 136.122 45.9645C135.572 46.2012 134.9 46.3196 134.107 46.3196ZM134.427 44.4375C135.255 44.4375 135.954 44.2747 136.522 43.9492C137.096 43.6237 137.528 43.2035 137.818 42.6886C138.114 42.1737 138.262 41.6321 138.262 41.0639V39.1463C138.173 39.2528 137.978 39.3505 137.676 39.4393C137.38 39.5221 137.037 39.5961 136.646 39.6612C136.262 39.7204 135.886 39.7737 135.519 39.821C135.158 39.8625 134.865 39.898 134.64 39.9276C134.095 39.9986 133.586 40.114 133.113 40.2738C132.645 40.4277 132.266 40.6615 131.976 40.9751C131.692 41.2829 131.55 41.7031 131.55 42.2358C131.55 42.9638 131.82 43.5142 132.358 43.8871C132.903 44.254 133.592 44.4375 134.427 44.4375ZM150.112 32.3636V34.1392H143.045V32.3636H150.112ZM145.105 29.0966H147.2V42.0938C147.2 42.6856 147.286 43.1295 147.457 43.4254C147.635 43.7154 147.86 43.9107 148.132 44.0114C148.41 44.1061 148.703 44.1534 149.011 44.1534C149.242 44.1534 149.431 44.1416 149.579 44.1179C149.727 44.0883 149.845 44.0646 149.934 44.0469L150.36 45.929C150.218 45.9822 150.02 46.0355 149.765 46.0888C149.511 46.148 149.188 46.1776 148.798 46.1776C148.206 46.1776 147.626 46.0503 147.058 45.7958C146.495 45.5413 146.028 45.1536 145.655 44.6328C145.288 44.112 145.105 43.455 145.105 42.6619V29.0966ZM153.263 46V32.3636H155.358V46H153.263ZM154.329 30.0909C153.92 30.0909 153.568 29.9518 153.272 29.6737C152.982 29.3955 152.837 29.0611 152.837 28.6705C152.837 28.2798 152.982 27.9454 153.272 27.6673C153.568 27.3891 153.92 27.25 154.329 27.25C154.737 27.25 155.086 27.3891 155.376 27.6673C155.672 27.9454 155.82 28.2798 155.82 28.6705C155.82 29.0611 155.672 29.3955 155.376 29.6737C155.086 29.9518 154.737 30.0909 154.329 30.0909ZM164.736 46.2841C163.505 46.2841 162.425 45.9911 161.495 45.4052C160.572 44.8192 159.85 43.9995 159.329 42.946C158.814 41.8925 158.557 40.6615 158.557 39.2528C158.557 37.8324 158.814 36.5924 159.329 35.533C159.85 34.4736 160.572 33.6509 161.495 33.065C162.425 32.479 163.505 32.1861 164.736 32.1861C165.967 32.1861 167.044 32.479 167.967 33.065C168.896 33.6509 169.619 34.4736 170.133 35.533C170.654 36.5924 170.915 37.8324 170.915 39.2528C170.915 40.6615 170.654 41.8925 170.133 42.946C169.619 43.9995 168.896 44.8192 167.967 45.4052C167.044 45.9911 165.967 46.2841 164.736 46.2841ZM164.736 44.402C165.671 44.402 166.44 44.1623 167.044 43.6829C167.648 43.2035 168.094 42.5732 168.384 41.7919C168.675 41.0107 168.82 40.1643 168.82 39.2528C168.82 38.3414 168.675 37.4921 168.384 36.7049C168.094 35.9177 167.648 35.2815 167.044 34.7962C166.44 34.3108 165.671 34.0682 164.736 34.0682C163.801 34.0682 163.031 34.3108 162.427 34.7962C161.824 35.2815 161.377 35.9177 161.087 36.7049C160.797 37.4921 160.652 38.3414 160.652 39.2528C160.652 40.1643 160.797 41.0107 161.087 41.7919C161.377 42.5732 161.824 43.2035 162.427 43.6829C163.031 44.1623 163.801 44.402 164.736 44.402ZM176.208 37.7969V46H174.113V32.3636H176.137V34.4943H176.315C176.634 33.8018 177.12 33.2455 177.771 32.8253C178.422 32.3991 179.262 32.1861 180.292 32.1861C181.215 32.1861 182.023 32.3755 182.716 32.7543C183.408 33.1271 183.947 33.6953 184.331 34.4588C184.716 35.2164 184.908 36.1752 184.908 37.3352V46H182.813V37.4773C182.813 36.406 182.535 35.5715 181.979 34.9737C181.422 34.37 180.659 34.0682 179.688 34.0682C179.019 34.0682 178.422 34.2132 177.895 34.5032C177.374 34.7932 176.963 35.2164 176.661 35.7727C176.359 36.3291 176.208 37.0038 176.208 37.7969Z" fill="#5D8392"/>
</svg>
