<svg width="861" height="385" viewBox="0 0 861 385" fill="none" xmlns="http://www.w3.org/2000/svg">
<path d="M771.061 62.9626C771.646 62.3769 771.646 61.4271 771.061 60.8413L761.515 51.2954C760.929 50.7096 759.979 50.7096 759.393 51.2954C758.808 51.8812 758.808 52.8309 759.393 53.4167L767.879 61.902L759.393 70.3873C758.808 70.973 758.808 71.9228 759.393 72.5086C759.979 73.0944 760.929 73.0944 761.515 72.5086L771.061 62.9626ZM169.098 63.402L770 63.402V60.402L169.098 60.402V63.402Z" fill="#999999"/>
<path d="M789.436 54.6185V56.3941H782.37V54.6185H789.436ZM784.429 51.3515H786.524V64.3486C786.524 64.9405 786.61 65.3844 786.782 65.6803C786.959 65.9703 787.184 66.1656 787.457 66.2662C787.735 66.3609 788.028 66.4083 788.336 66.4083C788.566 66.4083 788.756 66.3965 788.904 66.3728C789.052 66.3432 789.17 66.3195 789.259 66.3018L789.685 68.1839C789.543 68.2371 789.345 68.2904 789.09 68.3437C788.836 68.4028 788.513 68.4324 788.122 68.4324C787.531 68.4324 786.951 68.3052 786.382 68.0507C785.82 67.7962 785.353 67.4085 784.98 66.8877C784.613 66.3669 784.429 65.7099 784.429 64.9168V51.3515ZM792.588 68.2549V54.6185H794.683V68.2549H792.588ZM793.653 52.3458C793.245 52.3458 792.893 52.2067 792.597 51.9285C792.307 51.6504 792.162 51.316 792.162 50.9253C792.162 50.5347 792.307 50.2003 792.597 49.9221C792.893 49.644 793.245 49.5049 793.653 49.5049C794.062 49.5049 794.411 49.644 794.701 49.9221C794.997 50.2003 795.145 50.5347 795.145 50.9253C795.145 51.316 794.997 51.6504 794.701 51.9285C794.411 52.2067 794.062 52.3458 793.653 52.3458ZM798.521 68.2549V54.6185H800.545V56.7492H800.722C801.006 56.0212 801.465 55.456 802.098 55.0535C802.732 54.6452 803.492 54.441 804.38 54.441C805.28 54.441 806.028 54.6452 806.626 55.0535C807.23 55.456 807.7 56.0212 808.038 56.7492H808.18C808.529 56.0449 809.053 55.4856 809.751 55.0713C810.45 54.6511 811.287 54.441 812.264 54.441C813.483 54.441 814.48 54.8227 815.255 55.5862C816.031 56.3438 816.418 57.5245 816.418 59.1285V68.2549H814.323V59.1285C814.323 58.1223 814.048 57.4032 813.498 56.9711C812.947 56.5391 812.299 56.3231 811.553 56.3231C810.595 56.3231 809.852 56.6131 809.325 57.1931C808.798 57.7672 808.535 58.4952 808.535 59.377V68.2549H806.404V58.9154C806.404 58.1401 806.153 57.5157 805.65 57.0422C805.146 56.5628 804.498 56.3231 803.705 56.3231C803.161 56.3231 802.652 56.4681 802.178 56.7581C801.711 57.0481 801.332 57.4506 801.042 57.9655C800.758 58.4745 800.616 59.0634 800.616 59.7322V68.2549H798.521ZM825.966 68.539C824.653 68.539 823.519 68.249 822.566 67.6689C821.619 67.083 820.888 66.2662 820.373 65.2187C819.864 64.1652 819.61 62.94 819.61 61.5432C819.61 60.1465 819.864 58.9154 820.373 57.8501C820.888 56.7788 821.605 55.9443 822.522 55.3465C823.445 54.7428 824.522 54.441 825.753 54.441C826.464 54.441 827.165 54.5593 827.857 54.7961C828.55 55.0328 829.18 55.4175 829.748 55.9502C830.317 56.4769 830.769 57.1753 831.107 58.0454C831.444 58.9154 831.613 59.9867 831.613 61.2591V62.1469H821.101V60.3358H829.482C829.482 59.5664 829.328 58.8799 829.02 58.2762C828.719 57.6725 828.287 57.1961 827.724 56.8469C827.168 56.4977 826.511 56.3231 825.753 56.3231C824.919 56.3231 824.197 56.5302 823.587 56.9445C822.984 57.3529 822.519 57.8856 822.193 58.5425C821.868 59.1995 821.705 59.9038 821.705 60.6555V61.8628C821.705 62.8927 821.883 63.7657 822.238 64.4818C822.599 65.192 823.099 65.7336 823.738 66.1064C824.377 66.4734 825.12 66.6569 825.966 66.6569C826.517 66.6569 827.014 66.5799 827.458 66.426C827.908 66.2662 828.295 66.0295 828.621 65.7158C828.946 65.3962 829.198 64.9997 829.376 64.5262L831.4 65.0944C831.187 65.7809 830.829 66.3846 830.326 66.9055C829.822 67.4204 829.201 67.8228 828.461 68.1128C827.721 68.3969 826.89 68.539 825.966 68.539Z" fill="#999999"/>
<path d="M125.053 24.2486C123.715 24.2486 122.576 23.8846 121.635 23.1566C120.694 22.4227 119.975 21.3603 119.478 19.9695C118.98 18.5727 118.732 16.8859 118.732 14.9091C118.732 12.9441 118.98 11.2662 119.478 9.87535C119.981 8.47857 120.703 7.41323 121.644 6.67933C122.591 5.93951 123.727 5.5696 125.053 5.5696C126.379 5.5696 127.512 5.93951 128.453 6.67933C129.4 7.41323 130.122 8.47857 130.619 9.87535C131.122 11.2662 131.374 12.9441 131.374 14.9091C131.374 16.8859 131.125 18.5727 130.628 19.9695C130.131 21.3603 129.412 22.4227 128.471 23.1566C127.53 23.8846 126.39 24.2486 125.053 24.2486ZM125.053 22.2955C126.379 22.2955 127.408 21.6562 128.142 20.3778C128.876 19.0994 129.243 17.2765 129.243 14.9091C129.243 13.3348 129.074 11.9942 128.737 10.8874C128.406 9.78066 127.926 8.93726 127.299 8.35724C126.677 7.77723 125.929 7.48722 125.053 7.48722C123.739 7.48722 122.712 8.1353 121.972 9.43146C121.232 10.7217 120.862 12.5476 120.862 14.9091C120.862 16.4834 121.028 17.821 121.36 18.9219C121.691 20.0227 122.167 20.8602 122.789 21.4343C123.416 22.0084 124.171 22.2955 125.053 22.2955ZM140.678 24.2486C139.34 24.2486 138.201 23.8846 137.26 23.1566C136.319 22.4227 135.6 21.3603 135.103 19.9695C134.605 18.5727 134.357 16.8859 134.357 14.9091C134.357 12.9441 134.605 11.2662 135.103 9.87535C135.606 8.47857 136.328 7.41323 137.269 6.67933C138.216 5.93951 139.352 5.5696 140.678 5.5696C142.004 5.5696 143.137 5.93951 144.078 6.67933C145.025 7.41323 145.747 8.47857 146.244 9.87535C146.747 11.2662 146.999 12.9441 146.999 14.9091C146.999 16.8859 146.75 18.5727 146.253 19.9695C145.756 21.3603 145.037 22.4227 144.096 23.1566C143.155 23.8846 142.015 24.2486 140.678 24.2486ZM140.678 22.2955C142.004 22.2955 143.033 21.6562 143.767 20.3778C144.501 19.0994 144.868 17.2765 144.868 14.9091C144.868 13.3348 144.699 11.9942 144.362 10.8874C144.031 9.78066 143.551 8.93726 142.924 8.35724C142.302 7.77723 141.554 7.48722 140.678 7.48722C139.364 7.48722 138.337 8.1353 137.597 9.43146C136.857 10.7217 136.487 12.5476 136.487 14.9091C136.487 16.4834 136.653 17.821 136.985 18.9219C137.316 20.0227 137.792 20.8602 138.414 21.4343C139.041 22.0084 139.796 22.2955 140.678 22.2955ZM151.935 21.674C151.497 21.674 151.121 21.5172 150.807 21.2035C150.494 20.8898 150.337 20.514 150.337 20.076C150.337 19.638 150.494 19.2622 150.807 18.9485C151.121 18.6348 151.497 18.478 151.935 18.478C152.373 18.478 152.749 18.6348 153.062 18.9485C153.376 19.2622 153.533 19.638 153.533 20.076C153.533 20.366 153.459 20.6323 153.311 20.875C153.169 21.1177 152.977 21.313 152.734 21.4609C152.497 21.603 152.231 21.674 151.935 21.674ZM151.935 12.4766C151.497 12.4766 151.121 12.3197 150.807 12.006C150.494 11.6924 150.337 11.3165 150.337 10.8786C150.337 10.4406 150.494 10.0647 150.807 9.75107C151.121 9.43738 151.497 9.28054 151.935 9.28054C152.373 9.28054 152.749 9.43738 153.062 9.75107C153.376 10.0647 153.533 10.4406 153.533 10.8786C153.533 11.1686 153.459 11.4349 153.311 11.6776C153.169 11.9202 152.977 12.1155 152.734 12.2635C152.497 12.4055 152.231 12.4766 151.935 12.4766ZM163.188 24.2486C161.85 24.2486 160.711 23.8846 159.77 23.1566C158.829 22.4227 158.109 21.3603 157.612 19.9695C157.115 18.5727 156.867 16.8859 156.867 14.9091C156.867 12.9441 157.115 11.2662 157.612 9.87535C158.115 8.47857 158.837 7.41323 159.778 6.67933C160.725 5.93951 161.862 5.5696 163.188 5.5696C164.513 5.5696 165.647 5.93951 166.588 6.67933C167.535 7.41323 168.257 8.47857 168.754 9.87535C169.257 11.2662 169.509 12.9441 169.509 14.9091C169.509 16.8859 169.26 18.5727 168.763 19.9695C168.266 21.3603 167.547 22.4227 166.606 23.1566C165.664 23.8846 164.525 24.2486 163.188 24.2486ZM163.188 22.2955C164.513 22.2955 165.543 21.6562 166.277 20.3778C167.011 19.0994 167.378 17.2765 167.378 14.9091C167.378 13.3348 167.209 11.9942 166.872 10.8874C166.54 9.78066 166.061 8.93726 165.434 8.35724C164.812 7.77723 164.064 7.48722 163.188 7.48722C161.874 7.48722 160.847 8.1353 160.107 9.43146C159.367 10.7217 158.997 12.5476 158.997 14.9091C158.997 16.4834 159.163 17.821 159.494 18.9219C159.826 20.0227 160.302 20.8602 160.924 21.4343C161.551 22.0084 162.306 22.2955 163.188 22.2955ZM178.813 24.2486C177.475 24.2486 176.336 23.8846 175.395 23.1566C174.454 22.4227 173.734 21.3603 173.237 19.9695C172.74 18.5727 172.492 16.8859 172.492 14.9091C172.492 12.9441 172.74 11.2662 173.237 9.87535C173.74 8.47857 174.462 7.41323 175.403 6.67933C176.35 5.93951 177.487 5.5696 178.813 5.5696C180.138 5.5696 181.272 5.93951 182.213 6.67933C183.16 7.41323 183.882 8.47857 184.379 9.87535C184.882 11.2662 185.134 12.9441 185.134 14.9091C185.134 16.8859 184.885 18.5727 184.388 19.9695C183.891 21.3603 183.172 22.4227 182.231 23.1566C181.289 23.8846 180.15 24.2486 178.813 24.2486ZM178.813 22.2955C180.138 22.2955 181.168 21.6562 181.902 20.3778C182.636 19.0994 183.003 17.2765 183.003 14.9091C183.003 13.3348 182.834 11.9942 182.497 10.8874C182.165 9.78066 181.686 8.93726 181.059 8.35724C180.437 7.77723 179.689 7.48722 178.813 7.48722C177.499 7.48722 176.472 8.1353 175.732 9.43146C174.992 10.7217 174.622 12.5476 174.622 14.9091C174.622 16.4834 174.788 17.821 175.119 18.9219C175.451 20.0227 175.927 20.8602 176.549 21.4343C177.176 22.0084 177.931 22.2955 178.813 22.2955ZM190.07 21.674C189.632 21.674 189.256 21.5172 188.942 21.2035C188.628 20.8898 188.472 20.514 188.472 20.076C188.472 19.638 188.628 19.2622 188.942 18.9485C189.256 18.6348 189.632 18.478 190.07 18.478C190.508 18.478 190.883 18.6348 191.197 18.9485C191.511 19.2622 191.668 19.638 191.668 20.076C191.668 20.366 191.594 20.6323 191.446 20.875C191.304 21.1177 191.111 21.313 190.869 21.4609C190.632 21.603 190.366 21.674 190.07 21.674ZM190.07 12.4766C189.632 12.4766 189.256 12.3197 188.942 12.006C188.628 11.6924 188.472 11.3165 188.472 10.8786C188.472 10.4406 188.628 10.0647 188.942 9.75107C189.256 9.43738 189.632 9.28054 190.07 9.28054C190.508 9.28054 190.883 9.43738 191.197 9.75107C191.511 10.0647 191.668 10.4406 191.668 10.8786C191.668 11.1686 191.594 11.4349 191.446 11.6776C191.304 11.9202 191.111 12.1155 190.869 12.2635C190.632 12.4055 190.366 12.4766 190.07 12.4766ZM201.322 24.2486C199.985 24.2486 198.845 23.8846 197.904 23.1566C196.963 22.4227 196.244 21.3603 195.747 19.9695C195.25 18.5727 195.001 16.8859 195.001 14.9091C195.001 12.9441 195.25 11.2662 195.747 9.87535C196.25 8.47857 196.972 7.41323 197.913 6.67933C198.86 5.93951 199.997 5.5696 201.322 5.5696C202.648 5.5696 203.781 5.93951 204.723 6.67933C205.67 7.41323 206.392 8.47857 206.889 9.87535C207.392 11.2662 207.643 12.9441 207.643 14.9091C207.643 16.8859 207.395 18.5727 206.898 19.9695C206.4 21.3603 205.681 22.4227 204.74 23.1566C203.799 23.8846 202.66 24.2486 201.322 24.2486ZM201.322 22.2955C202.648 22.2955 203.678 21.6562 204.412 20.3778C205.146 19.0994 205.513 17.2765 205.513 14.9091C205.513 13.3348 205.344 11.9942 205.007 10.8874C204.675 9.78066 204.196 8.93726 203.568 8.35724C202.947 7.77723 202.198 7.48722 201.322 7.48722C200.008 7.48722 198.982 8.1353 198.242 9.43146C197.502 10.7217 197.132 12.5476 197.132 14.9091C197.132 16.4834 197.298 17.821 197.629 18.9219C197.961 20.0227 198.437 20.8602 199.058 21.4343C199.686 22.0084 200.44 22.2955 201.322 22.2955ZM216.947 24.2486C215.61 24.2486 214.47 23.8846 213.529 23.1566C212.588 22.4227 211.869 21.3603 211.372 19.9695C210.875 18.5727 210.626 16.8859 210.626 14.9091C210.626 12.9441 210.875 11.2662 211.372 9.87535C211.875 8.47857 212.597 7.41323 213.538 6.67933C214.485 5.93951 215.622 5.5696 216.947 5.5696C218.273 5.5696 219.406 5.93951 220.348 6.67933C221.295 7.41323 222.017 8.47857 222.514 9.87535C223.017 11.2662 223.268 12.9441 223.268 14.9091C223.268 16.8859 223.02 18.5727 222.523 19.9695C222.025 21.3603 221.306 22.4227 220.365 23.1566C219.424 23.8846 218.285 24.2486 216.947 24.2486ZM216.947 22.2955C218.273 22.2955 219.303 21.6562 220.037 20.3778C220.771 19.0994 221.138 17.2765 221.138 14.9091C221.138 13.3348 220.969 11.9942 220.632 10.8874C220.3 9.78066 219.821 8.93726 219.193 8.35724C218.572 7.77723 217.823 7.48722 216.947 7.48722C215.633 7.48722 214.607 8.1353 213.867 9.43146C213.127 10.7217 212.757 12.5476 212.757 14.9091C212.757 16.4834 212.923 17.821 213.254 18.9219C213.586 20.0227 214.062 20.8602 214.683 21.4343C215.311 22.0084 216.065 22.2955 216.947 22.2955Z" fill="#999999"/>
<path d="M382.055 24.2486C380.717 24.2486 379.578 23.8846 378.637 23.1566C377.696 22.4227 376.977 21.3603 376.479 19.9695C375.982 18.5727 375.734 16.8859 375.734 14.9091C375.734 12.9441 375.982 11.2662 376.479 9.87535C376.983 8.47857 377.705 7.41323 378.646 6.67933C379.593 5.93951 380.729 5.5696 382.055 5.5696C383.381 5.5696 384.514 5.93951 385.455 6.67933C386.402 7.41323 387.124 8.47857 387.621 9.87535C388.124 11.2662 388.376 12.9441 388.376 14.9091C388.376 16.8859 388.127 18.5727 387.63 19.9695C387.133 21.3603 386.414 22.4227 385.473 23.1566C384.532 23.8846 383.392 24.2486 382.055 24.2486ZM382.055 22.2955C383.381 22.2955 384.41 21.6562 385.144 20.3778C385.878 19.0994 386.245 17.2765 386.245 14.9091C386.245 13.3348 386.076 11.9942 385.739 10.8874C385.408 9.78066 384.928 8.93726 384.301 8.35724C383.679 7.77723 382.931 7.48722 382.055 7.48722C380.741 7.48722 379.714 8.1353 378.974 9.43146C378.234 10.7217 377.864 12.5476 377.864 14.9091C377.864 16.4834 378.03 17.821 378.362 18.9219C378.693 20.0227 379.169 20.8602 379.791 21.4343C380.418 22.0084 381.173 22.2955 382.055 22.2955ZM397.68 24.2486C396.342 24.2486 395.203 23.8846 394.262 23.1566C393.321 22.4227 392.602 21.3603 392.104 19.9695C391.607 18.5727 391.359 16.8859 391.359 14.9091C391.359 12.9441 391.607 11.2662 392.104 9.87535C392.608 8.47857 393.33 7.41323 394.271 6.67933C395.218 5.93951 396.354 5.5696 397.68 5.5696C399.006 5.5696 400.139 5.93951 401.08 6.67933C402.027 7.41323 402.749 8.47857 403.246 9.87535C403.749 11.2662 404.001 12.9441 404.001 14.9091C404.001 16.8859 403.752 18.5727 403.255 19.9695C402.758 21.3603 402.039 22.4227 401.098 23.1566C400.157 23.8846 399.017 24.2486 397.68 24.2486ZM397.68 22.2955C399.006 22.2955 400.035 21.6562 400.769 20.3778C401.503 19.0994 401.87 17.2765 401.87 14.9091C401.87 13.3348 401.701 11.9942 401.364 10.8874C401.033 9.78066 400.553 8.93726 399.926 8.35724C399.304 7.77723 398.556 7.48722 397.68 7.48722C396.366 7.48722 395.339 8.1353 394.599 9.43146C393.859 10.7217 393.489 12.5476 393.489 14.9091C393.489 16.4834 393.655 17.821 393.987 18.9219C394.318 20.0227 394.794 20.8602 395.416 21.4343C396.043 22.0084 396.798 22.2955 397.68 22.2955ZM408.937 21.674C408.499 21.674 408.123 21.5172 407.809 21.2035C407.496 20.8898 407.339 20.514 407.339 20.076C407.339 19.638 407.496 19.2622 407.809 18.9485C408.123 18.6348 408.499 18.478 408.937 18.478C409.375 18.478 409.751 18.6348 410.064 18.9485C410.378 19.2622 410.535 19.638 410.535 20.076C410.535 20.366 410.461 20.6323 410.313 20.875C410.171 21.1177 409.979 21.313 409.736 21.4609C409.499 21.603 409.233 21.674 408.937 21.674ZM408.937 12.4766C408.499 12.4766 408.123 12.3197 407.809 12.006C407.496 11.6924 407.339 11.3165 407.339 10.8786C407.339 10.4406 407.496 10.0647 407.809 9.75107C408.123 9.43738 408.499 9.28054 408.937 9.28054C409.375 9.28054 409.751 9.43738 410.064 9.75107C410.378 10.0647 410.535 10.4406 410.535 10.8786C410.535 11.1686 410.461 11.4349 410.313 11.6776C410.171 11.9202 409.979 12.1155 409.736 12.2635C409.499 12.4055 409.233 12.4766 408.937 12.4766ZM420.19 24.2486C418.852 24.2486 417.713 23.8846 416.772 23.1566C415.83 22.4227 415.111 21.3603 414.614 19.9695C414.117 18.5727 413.868 16.8859 413.868 14.9091C413.868 12.9441 414.117 11.2662 414.614 9.87535C415.117 8.47857 415.839 7.41323 416.78 6.67933C417.727 5.93951 418.864 5.5696 420.19 5.5696C421.515 5.5696 422.649 5.93951 423.59 6.67933C424.537 7.41323 425.259 8.47857 425.756 9.87535C426.259 11.2662 426.511 12.9441 426.511 14.9091C426.511 16.8859 426.262 18.5727 425.765 19.9695C425.268 21.3603 424.549 22.4227 423.607 23.1566C422.666 23.8846 421.527 24.2486 420.19 24.2486ZM420.19 22.2955C421.515 22.2955 422.545 21.6562 423.279 20.3778C424.013 19.0994 424.38 17.2765 424.38 14.9091C424.38 13.3348 424.211 11.9942 423.874 10.8874C423.542 9.78066 423.063 8.93726 422.436 8.35724C421.814 7.77723 421.065 7.48722 420.19 7.48722C418.876 7.48722 417.849 8.1353 417.109 9.43146C416.369 10.7217 415.999 12.5476 415.999 14.9091C415.999 16.4834 416.165 17.821 416.496 18.9219C416.828 20.0227 417.304 20.8602 417.926 21.4343C418.553 22.0084 419.308 22.2955 420.19 22.2955ZM436.276 5.81818V24H434.074V8.12642H433.968L429.529 11.0739V8.83665L434.074 5.81818H436.276ZM443.068 21.674C442.63 21.674 442.254 21.5172 441.94 21.2035C441.627 20.8898 441.47 20.514 441.47 20.076C441.47 19.638 441.627 19.2622 441.94 18.9485C442.254 18.6348 442.63 18.478 443.068 18.478C443.506 18.478 443.882 18.6348 444.195 18.9485C444.509 19.2622 444.666 19.638 444.666 20.076C444.666 20.366 444.592 20.6323 444.444 20.875C444.302 21.1177 444.109 21.313 443.867 21.4609C443.63 21.603 443.364 21.674 443.068 21.674ZM443.068 12.4766C442.63 12.4766 442.254 12.3197 441.94 12.006C441.627 11.6924 441.47 11.3165 441.47 10.8786C441.47 10.4406 441.627 10.0647 441.94 9.75107C442.254 9.43738 442.63 9.28054 443.068 9.28054C443.506 9.28054 443.882 9.43738 444.195 9.75107C444.509 10.0647 444.666 10.4406 444.666 10.8786C444.666 11.1686 444.592 11.4349 444.444 11.6776C444.302 11.9202 444.109 12.1155 443.867 12.2635C443.63 12.4055 443.364 12.4766 443.068 12.4766ZM454.32 24.2486C452.983 24.2486 451.843 23.8846 450.902 23.1566C449.961 22.4227 449.242 21.3603 448.745 19.9695C448.248 18.5727 447.999 16.8859 447.999 14.9091C447.999 12.9441 448.248 11.2662 448.745 9.87535C449.248 8.47857 449.97 7.41323 450.911 6.67933C451.858 5.93951 452.995 5.5696 454.32 5.5696C455.646 5.5696 456.78 5.93951 457.721 6.67933C458.668 7.41323 459.39 8.47857 459.887 9.87535C460.39 11.2662 460.641 12.9441 460.641 14.9091C460.641 16.8859 460.393 18.5727 459.896 19.9695C459.398 21.3603 458.679 22.4227 457.738 23.1566C456.797 23.8846 455.658 24.2486 454.32 24.2486ZM454.32 22.2955C455.646 22.2955 456.676 21.6562 457.41 20.3778C458.144 19.0994 458.511 17.2765 458.511 14.9091C458.511 13.3348 458.342 11.9942 458.005 10.8874C457.673 9.78066 457.194 8.93726 456.566 8.35724C455.945 7.77723 455.196 7.48722 454.32 7.48722C453.006 7.48722 451.98 8.1353 451.24 9.43146C450.5 10.7217 450.13 12.5476 450.13 14.9091C450.13 16.4834 450.296 17.821 450.627 18.9219C450.959 20.0227 451.435 20.8602 452.057 21.4343C452.684 22.0084 453.439 22.2955 454.32 22.2955ZM469.945 24.2486C468.608 24.2486 467.468 23.8846 466.527 23.1566C465.586 22.4227 464.867 21.3603 464.37 19.9695C463.873 18.5727 463.624 16.8859 463.624 14.9091C463.624 12.9441 463.873 11.2662 464.37 9.87535C464.873 8.47857 465.595 7.41323 466.536 6.67933C467.483 5.93951 468.62 5.5696 469.945 5.5696C471.271 5.5696 472.405 5.93951 473.346 6.67933C474.293 7.41323 475.015 8.47857 475.512 9.87535C476.015 11.2662 476.266 12.9441 476.266 14.9091C476.266 16.8859 476.018 18.5727 475.521 19.9695C475.023 21.3603 474.304 22.4227 473.363 23.1566C472.422 23.8846 471.283 24.2486 469.945 24.2486ZM469.945 22.2955C471.271 22.2955 472.301 21.6562 473.035 20.3778C473.769 19.0994 474.136 17.2765 474.136 14.9091C474.136 13.3348 473.967 11.9942 473.63 10.8874C473.298 9.78066 472.819 8.93726 472.191 8.35724C471.57 7.77723 470.821 7.48722 469.945 7.48722C468.631 7.48722 467.605 8.1353 466.865 9.43146C466.125 10.7217 465.755 12.5476 465.755 14.9091C465.755 16.4834 465.921 17.821 466.252 18.9219C466.584 20.0227 467.06 20.8602 467.682 21.4343C468.309 22.0084 469.064 22.2955 469.945 22.2955Z" fill="#999999"/>
<path d="M620.797 24.2486C619.459 24.2486 618.32 23.8846 617.379 23.1566C616.438 22.4227 615.719 21.3603 615.222 19.9695C614.724 18.5727 614.476 16.8859 614.476 14.9091C614.476 12.9441 614.724 11.2662 615.222 9.87535C615.725 8.47857 616.447 7.41323 617.388 6.67933C618.335 5.93951 619.471 5.5696 620.797 5.5696C622.123 5.5696 623.256 5.93951 624.197 6.67933C625.144 7.41323 625.866 8.47857 626.363 9.87535C626.866 11.2662 627.118 12.9441 627.118 14.9091C627.118 16.8859 626.869 18.5727 626.372 19.9695C625.875 21.3603 625.156 22.4227 624.215 23.1566C623.274 23.8846 622.135 24.2486 620.797 24.2486ZM620.797 22.2955C622.123 22.2955 623.153 21.6562 623.886 20.3778C624.62 19.0994 624.987 17.2765 624.987 14.9091C624.987 13.3348 624.819 11.9942 624.481 10.8874C624.15 9.78066 623.67 8.93726 623.043 8.35724C622.422 7.77723 621.673 7.48722 620.797 7.48722C619.483 7.48722 618.456 8.1353 617.716 9.43146C616.977 10.7217 616.607 12.5476 616.607 14.9091C616.607 16.4834 616.772 17.821 617.104 18.9219C617.435 20.0227 617.912 20.8602 618.533 21.4343C619.16 22.0084 619.915 22.2955 620.797 22.2955ZM636.422 24.2486C635.084 24.2486 633.945 23.8846 633.004 23.1566C632.063 22.4227 631.344 21.3603 630.847 19.9695C630.349 18.5727 630.101 16.8859 630.101 14.9091C630.101 12.9441 630.349 11.2662 630.847 9.87535C631.35 8.47857 632.072 7.41323 633.013 6.67933C633.96 5.93951 635.096 5.5696 636.422 5.5696C637.748 5.5696 638.881 5.93951 639.822 6.67933C640.769 7.41323 641.491 8.47857 641.988 9.87535C642.491 11.2662 642.743 12.9441 642.743 14.9091C642.743 16.8859 642.494 18.5727 641.997 19.9695C641.5 21.3603 640.781 22.4227 639.84 23.1566C638.899 23.8846 637.76 24.2486 636.422 24.2486ZM636.422 22.2955C637.748 22.2955 638.778 21.6562 639.511 20.3778C640.245 19.0994 640.612 17.2765 640.612 14.9091C640.612 13.3348 640.444 11.9942 640.106 10.8874C639.775 9.78066 639.295 8.93726 638.668 8.35724C638.047 7.77723 637.298 7.48722 636.422 7.48722C635.108 7.48722 634.081 8.1353 633.341 9.43146C632.602 10.7217 632.232 12.5476 632.232 14.9091C632.232 16.4834 632.397 17.821 632.729 18.9219C633.06 20.0227 633.537 20.8602 634.158 21.4343C634.785 22.0084 635.54 22.2955 636.422 22.2955ZM647.679 21.674C647.241 21.674 646.865 21.5172 646.552 21.2035C646.238 20.8898 646.081 20.514 646.081 20.076C646.081 19.638 646.238 19.2622 646.552 18.9485C646.865 18.6348 647.241 18.478 647.679 18.478C648.117 18.478 648.493 18.6348 648.807 18.9485C649.12 19.2622 649.277 19.638 649.277 20.076C649.277 20.366 649.203 20.6323 649.055 20.875C648.913 21.1177 648.721 21.313 648.478 21.4609C648.241 21.603 647.975 21.674 647.679 21.674ZM647.679 12.4766C647.241 12.4766 646.865 12.3197 646.552 12.006C646.238 11.6924 646.081 11.3165 646.081 10.8786C646.081 10.4406 646.238 10.0647 646.552 9.75107C646.865 9.43738 647.241 9.28054 647.679 9.28054C648.117 9.28054 648.493 9.43738 648.807 9.75107C649.12 10.0647 649.277 10.4406 649.277 10.8786C649.277 11.1686 649.203 11.4349 649.055 11.6776C648.913 11.9202 648.721 12.1155 648.478 12.2635C648.241 12.4055 647.975 12.4766 647.679 12.4766ZM658.932 24.2486C657.594 24.2486 656.455 23.8846 655.514 23.1566C654.573 22.4227 653.854 21.3603 653.356 19.9695C652.859 18.5727 652.611 16.8859 652.611 14.9091C652.611 12.9441 652.859 11.2662 653.356 9.87535C653.859 8.47857 654.582 7.41323 655.523 6.67933C656.47 5.93951 657.606 5.5696 658.932 5.5696C660.257 5.5696 661.391 5.93951 662.332 6.67933C663.279 7.41323 664.001 8.47857 664.498 9.87535C665.001 11.2662 665.253 12.9441 665.253 14.9091C665.253 16.8859 665.004 18.5727 664.507 19.9695C664.01 21.3603 663.291 22.4227 662.35 23.1566C661.409 23.8846 660.269 24.2486 658.932 24.2486ZM658.932 22.2955C660.257 22.2955 661.287 21.6562 662.021 20.3778C662.755 19.0994 663.122 17.2765 663.122 14.9091C663.122 13.3348 662.953 11.9942 662.616 10.8874C662.285 9.78066 661.805 8.93726 661.178 8.35724C660.556 7.77723 659.808 7.48722 658.932 7.48722C657.618 7.48722 656.591 8.1353 655.851 9.43146C655.111 10.7217 654.741 12.5476 654.741 14.9091C654.741 16.4834 654.907 17.821 655.239 18.9219C655.57 20.0227 656.046 20.8602 656.668 21.4343C657.295 22.0084 658.05 22.2955 658.932 22.2955ZM668.626 24V22.402L674.628 15.8324C675.332 15.063 675.912 14.3942 676.368 13.826C676.824 13.2519 677.161 12.7133 677.38 12.2102C677.605 11.7012 677.717 11.1686 677.717 10.6122C677.717 9.97301 677.563 9.41963 677.256 8.95206C676.954 8.48449 676.539 8.12346 676.013 7.86896C675.486 7.61446 674.894 7.48722 674.237 7.48722C673.539 7.48722 672.929 7.63222 672.408 7.92223C671.893 8.20632 671.494 8.60582 671.21 9.12074C670.932 9.63565 670.792 10.2393 670.792 10.9318H668.697C668.697 9.86648 668.943 8.93134 669.434 8.12642C669.925 7.3215 670.594 6.69413 671.441 6.24432C672.293 5.79451 673.249 5.5696 674.308 5.5696C675.373 5.5696 676.317 5.79451 677.14 6.24432C677.963 6.69413 678.608 7.30078 679.076 8.06428C679.543 8.82777 679.777 9.67708 679.777 10.6122C679.777 11.281 679.656 11.935 679.413 12.5742C679.176 13.2075 678.762 13.9148 678.17 14.696C677.584 15.4714 676.77 16.4183 675.729 17.5369L671.645 21.9048V22.0469H680.096V24H668.626ZM685.326 21.674C684.888 21.674 684.512 21.5172 684.198 21.2035C683.884 20.8898 683.728 20.514 683.728 20.076C683.728 19.638 683.884 19.2622 684.198 18.9485C684.512 18.6348 684.888 18.478 685.326 18.478C685.763 18.478 686.139 18.6348 686.453 18.9485C686.767 19.2622 686.924 19.638 686.924 20.076C686.924 20.366 686.85 20.6323 686.702 20.875C686.56 21.1177 686.367 21.313 686.125 21.4609C685.888 21.603 685.621 21.674 685.326 21.674ZM685.326 12.4766C684.888 12.4766 684.512 12.3197 684.198 12.006C683.884 11.6924 683.728 11.3165 683.728 10.8786C683.728 10.4406 683.884 10.0647 684.198 9.75107C684.512 9.43738 684.888 9.28054 685.326 9.28054C685.763 9.28054 686.139 9.43738 686.453 9.75107C686.767 10.0647 686.924 10.4406 686.924 10.8786C686.924 11.1686 686.85 11.4349 686.702 11.6776C686.56 11.9202 686.367 12.1155 686.125 12.2635C685.888 12.4055 685.621 12.4766 685.326 12.4766ZM696.578 24.2486C695.241 24.2486 694.101 23.8846 693.16 23.1566C692.219 22.4227 691.5 21.3603 691.003 19.9695C690.506 18.5727 690.257 16.8859 690.257 14.9091C690.257 12.9441 690.506 11.2662 691.003 9.87535C691.506 8.47857 692.228 7.41323 693.169 6.67933C694.116 5.93951 695.252 5.5696 696.578 5.5696C697.904 5.5696 699.037 5.93951 699.978 6.67933C700.925 7.41323 701.647 8.47857 702.145 9.87535C702.648 11.2662 702.899 12.9441 702.899 14.9091C702.899 16.8859 702.651 18.5727 702.153 19.9695C701.656 21.3603 700.937 22.4227 699.996 23.1566C699.055 23.8846 697.916 24.2486 696.578 24.2486ZM696.578 22.2955C697.904 22.2955 698.934 21.6562 699.668 20.3778C700.402 19.0994 700.769 17.2765 700.769 14.9091C700.769 13.3348 700.6 11.9942 700.262 10.8874C699.931 9.78066 699.452 8.93726 698.824 8.35724C698.203 7.77723 697.454 7.48722 696.578 7.48722C695.264 7.48722 694.237 8.1353 693.498 9.43146C692.758 10.7217 692.388 12.5476 692.388 14.9091C692.388 16.4834 692.554 17.821 692.885 18.9219C693.216 20.0227 693.693 20.8602 694.314 21.4343C694.942 22.0084 695.696 22.2955 696.578 22.2955ZM712.203 24.2486C710.866 24.2486 709.726 23.8846 708.785 23.1566C707.844 22.4227 707.125 21.3603 706.628 19.9695C706.131 18.5727 705.882 16.8859 705.882 14.9091C705.882 12.9441 706.131 11.2662 706.628 9.87535C707.131 8.47857 707.853 7.41323 708.794 6.67933C709.741 5.93951 710.877 5.5696 712.203 5.5696C713.529 5.5696 714.662 5.93951 715.603 6.67933C716.55 7.41323 717.272 8.47857 717.77 9.87535C718.273 11.2662 718.524 12.9441 718.524 14.9091C718.524 16.8859 718.276 18.5727 717.778 19.9695C717.281 21.3603 716.562 22.4227 715.621 23.1566C714.68 23.8846 713.541 24.2486 712.203 24.2486ZM712.203 22.2955C713.529 22.2955 714.559 21.6562 715.293 20.3778C716.027 19.0994 716.394 17.2765 716.394 14.9091C716.394 13.3348 716.225 11.9942 715.887 10.8874C715.556 9.78066 715.077 8.93726 714.449 8.35724C713.828 7.77723 713.079 7.48722 712.203 7.48722C710.889 7.48722 709.862 8.1353 709.123 9.43146C708.383 10.7217 708.013 12.5476 708.013 14.9091C708.013 16.4834 708.179 17.821 708.51 18.9219C708.841 20.0227 709.318 20.8602 709.939 21.4343C710.567 22.0084 711.321 22.2955 712.203 22.2955Z" fill="#999999"/>
<line x1="427.265" y1="46.8038" x2="427.265" y2="75.4901" stroke="#999999" stroke-width="3"/>
<line x1="668.833" y1="46.8038" x2="668.833" y2="75.4901" stroke="#999999" stroke-width="3"/>
<line x1="170.598" y1="46.8039" x2="170.598" y2="385" stroke="#999999" stroke-width="3"/>
<rect x="171.108" y="85.049" width="190.745" height="60.902" fill="#A6DEAB" stroke="black"/>
<rect x="171.108" y="184.696" width="190.745" height="60.902" fill="#A6C6DE" stroke="black"/>
<rect x="430.5" y="184.5" width="85" height="61" fill="#A6C6DE" stroke="black"/>
<rect x="171.108" y="284.5" width="127.333" height="60.902" fill="#DEA6CE" stroke="black"/>
<rect x="297.5" y="284.5" width="64" height="61" fill="#DEA6CE" stroke="black"/>
<rect x="430.5" y="284.5" width="85" height="61" fill="#DEA6CE" stroke="black"/>
<rect x="515.343" y="284.343" width="190.745" height="60.902" fill="#DEA6CE" stroke="black"/>
<rect x="430.794" y="85.049" width="85.0588" height="60.902" fill="#A6DEAB" stroke="black"/>
<rect x="515.853" y="85.0491" width="189.235" height="60.902" fill="#A6DEAB" stroke="black"/>
<path d="M253.319 104.426V122.608H251.117V106.734H251.011L246.572 109.682V107.444L251.117 104.426H253.319ZM264.478 122.856C263.141 122.856 262.002 122.492 261.061 121.764C260.119 121.03 259.4 119.968 258.903 118.577C258.406 117.18 258.157 115.494 258.157 113.517C258.157 111.552 258.406 109.874 258.903 108.483C259.406 107.086 260.128 106.021 261.069 105.287C262.016 104.547 263.153 104.177 264.478 104.177C265.804 104.177 266.938 104.547 267.879 105.287C268.826 106.021 269.548 107.086 270.045 108.483C270.548 109.874 270.8 111.552 270.8 113.517C270.8 115.494 270.551 117.18 270.054 118.577C269.557 119.968 268.838 121.03 267.896 121.764C266.955 122.492 265.816 122.856 264.478 122.856ZM264.478 120.903C265.804 120.903 266.834 120.264 267.568 118.986C268.302 117.707 268.669 115.884 268.669 113.517C268.669 111.943 268.5 110.602 268.163 109.495C267.831 108.388 267.352 107.545 266.725 106.965C266.103 106.385 265.354 106.095 264.478 106.095C263.165 106.095 262.138 106.743 261.398 108.039C260.658 109.329 260.288 111.155 260.288 113.517C260.288 115.091 260.454 116.429 260.785 117.53C261.117 118.631 261.593 119.468 262.215 120.042C262.842 120.616 263.597 120.903 264.478 120.903ZM280.103 122.856C278.766 122.856 277.627 122.492 276.686 121.764C275.744 121.03 275.025 119.968 274.528 118.577C274.031 117.18 273.782 115.494 273.782 113.517C273.782 111.552 274.031 109.874 274.528 108.483C275.031 107.086 275.753 106.021 276.694 105.287C277.641 104.547 278.778 104.177 280.103 104.177C281.429 104.177 282.563 104.547 283.504 105.287C284.451 106.021 285.173 107.086 285.67 108.483C286.173 109.874 286.425 111.552 286.425 113.517C286.425 115.494 286.176 117.18 285.679 118.577C285.182 119.968 284.463 121.03 283.521 121.764C282.58 122.492 281.441 122.856 280.103 122.856ZM280.103 120.903C281.429 120.903 282.459 120.264 283.193 118.986C283.927 117.707 284.294 115.884 284.294 113.517C284.294 111.943 284.125 110.602 283.788 109.495C283.456 108.388 282.977 107.545 282.35 106.965C281.728 106.385 280.979 106.095 280.103 106.095C278.79 106.095 277.763 106.743 277.023 108.039C276.283 109.329 275.913 111.155 275.913 113.517C275.913 115.091 276.079 116.429 276.41 117.53C276.742 118.631 277.218 119.468 277.84 120.042C278.467 120.616 279.222 120.903 280.103 120.903Z" fill="black"/>
<path d="M465.47 122.856C464.428 122.856 463.49 122.649 462.656 122.235C461.821 121.821 461.152 121.252 460.649 120.53C460.146 119.808 459.871 118.986 459.824 118.062H461.954C462.037 118.885 462.41 119.566 463.073 120.104C463.742 120.637 464.541 120.903 465.47 120.903C466.216 120.903 466.879 120.729 467.459 120.379C468.045 120.03 468.503 119.551 468.835 118.941C469.172 118.326 469.341 117.63 469.341 116.855C469.341 116.062 469.166 115.355 468.817 114.733C468.474 114.106 468 113.612 467.397 113.251C466.793 112.89 466.103 112.706 465.328 112.7C464.772 112.694 464.2 112.78 463.615 112.958C463.029 113.129 462.546 113.351 462.167 113.623L460.108 113.375L461.209 104.426H470.655V106.379H463.055L462.416 111.741H462.523C462.895 111.445 463.363 111.2 463.925 111.004C464.488 110.809 465.073 110.711 465.683 110.711C466.796 110.711 467.787 110.978 468.657 111.51C469.533 112.037 470.22 112.759 470.717 113.677C471.22 114.594 471.471 115.642 471.471 116.819C471.471 117.979 471.211 119.015 470.69 119.927C470.175 120.832 469.465 121.548 468.56 122.075C467.654 122.596 466.624 122.856 465.47 122.856ZM480.929 122.856C479.591 122.856 478.452 122.492 477.511 121.764C476.57 121.03 475.85 119.968 475.353 118.577C474.856 117.18 474.608 115.494 474.608 113.517C474.608 111.552 474.856 109.874 475.353 108.483C475.856 107.086 476.578 106.021 477.519 105.287C478.466 104.547 479.603 104.177 480.929 104.177C482.254 104.177 483.388 104.547 484.329 105.287C485.276 106.021 485.998 107.086 486.495 108.483C486.998 109.874 487.25 111.552 487.25 113.517C487.25 115.494 487.001 117.18 486.504 118.577C486.007 119.968 485.288 121.03 484.347 121.764C483.405 122.492 482.266 122.856 480.929 122.856ZM480.929 120.903C482.254 120.903 483.284 120.264 484.018 118.986C484.752 117.707 485.119 115.884 485.119 113.517C485.119 111.943 484.95 110.602 484.613 109.495C484.281 108.388 483.802 107.545 483.175 106.965C482.553 106.385 481.805 106.095 480.929 106.095C479.615 106.095 478.588 106.743 477.848 108.039C477.108 109.329 476.738 111.155 476.738 113.517C476.738 115.091 476.904 116.429 477.235 117.53C477.567 118.631 478.043 119.468 478.665 120.042C479.292 120.616 480.047 120.903 480.929 120.903Z" fill="black"/>
<path d="M599.163 122.608L607.295 106.521V106.379H597.92V104.426H609.567V106.486L601.471 122.608H599.163ZM618.416 122.856C617.079 122.856 615.939 122.492 614.998 121.764C614.057 121.03 613.338 119.968 612.841 118.577C612.344 117.18 612.095 115.494 612.095 113.517C612.095 111.552 612.344 109.874 612.841 108.483C613.344 107.086 614.066 106.021 615.007 105.287C615.954 104.547 617.091 104.177 618.416 104.177C619.742 104.177 620.876 104.547 621.817 105.287C622.764 106.021 623.486 107.086 623.983 108.483C624.486 109.874 624.737 111.552 624.737 113.517C624.737 115.494 624.489 117.18 623.992 118.577C623.494 119.968 622.775 121.03 621.834 121.764C620.893 122.492 619.754 122.856 618.416 122.856ZM618.416 120.903C619.742 120.903 620.772 120.264 621.506 118.986C622.24 117.707 622.607 115.884 622.607 113.517C622.607 111.943 622.438 110.602 622.101 109.495C621.769 108.388 621.29 107.545 620.662 106.965C620.041 106.385 619.292 106.095 618.416 106.095C617.102 106.095 616.076 106.743 615.336 108.039C614.596 109.329 614.226 111.155 614.226 113.517C614.226 115.091 614.392 116.429 614.723 117.53C615.055 118.631 615.531 119.468 616.152 120.042C616.78 120.616 617.534 120.903 618.416 120.903Z" fill="black"/>
<path d="M100.692 122.608V104.426H102.787V111.138H102.965C103.119 110.901 103.332 110.599 103.604 110.232C103.882 109.859 104.279 109.528 104.793 109.238C105.314 108.942 106.019 108.794 106.906 108.794C108.055 108.794 109.067 109.081 109.943 109.655C110.819 110.229 111.502 111.043 111.993 112.096C112.485 113.15 112.73 114.393 112.73 115.825C112.73 117.269 112.485 118.521 111.993 119.58C111.502 120.634 110.822 121.451 109.951 122.031C109.081 122.605 108.078 122.892 106.942 122.892C106.066 122.892 105.365 122.747 104.838 122.457C104.311 122.161 103.906 121.827 103.622 121.454C103.337 121.075 103.119 120.761 102.965 120.513H102.716V122.608H100.692ZM102.752 115.79C102.752 116.819 102.902 117.728 103.204 118.515C103.506 119.296 103.947 119.909 104.527 120.353C105.107 120.791 105.817 121.01 106.658 121.01C107.534 121.01 108.265 120.779 108.851 120.317C109.442 119.85 109.886 119.222 110.182 118.435C110.484 117.642 110.635 116.76 110.635 115.79C110.635 114.831 110.487 113.967 110.191 113.197C109.901 112.422 109.46 111.809 108.868 111.36C108.282 110.904 107.546 110.676 106.658 110.676C105.806 110.676 105.089 110.892 104.509 111.324C103.929 111.75 103.491 112.348 103.195 113.117C102.9 113.881 102.752 114.772 102.752 115.79ZM115.935 127.721V108.971H117.959V111.138H118.208C118.362 110.901 118.575 110.599 118.847 110.232C119.125 109.859 119.522 109.528 120.037 109.238C120.558 108.942 121.262 108.794 122.15 108.794C123.298 108.794 124.31 109.081 125.186 109.655C126.062 110.229 126.745 111.043 127.237 112.096C127.728 113.15 127.973 114.393 127.973 115.825C127.973 117.269 127.728 118.521 127.237 119.58C126.745 120.634 126.065 121.451 125.195 122.031C124.325 122.605 123.322 122.892 122.185 122.892C121.309 122.892 120.608 122.747 120.081 122.457C119.554 122.161 119.149 121.827 118.865 121.454C118.581 121.075 118.362 120.761 118.208 120.513H118.03V127.721H115.935ZM117.995 115.79C117.995 116.819 118.146 117.728 118.448 118.515C118.749 119.296 119.19 119.909 119.77 120.353C120.35 120.791 121.061 121.01 121.901 121.01C122.777 121.01 123.508 120.779 124.094 120.317C124.686 119.85 125.13 119.222 125.426 118.435C125.727 117.642 125.878 116.76 125.878 115.79C125.878 114.831 125.73 113.967 125.434 113.197C125.144 112.422 124.703 111.809 124.112 111.36C123.526 110.904 122.789 110.676 121.901 110.676C121.049 110.676 120.333 110.892 119.753 111.324C119.173 111.75 118.735 112.348 118.439 113.117C118.143 113.881 117.995 114.772 117.995 115.79ZM131.17 122.608V108.971H133.194V111.102H133.371C133.655 110.374 134.114 109.809 134.747 109.406C135.381 108.998 136.141 108.794 137.029 108.794C137.929 108.794 138.677 108.998 139.275 109.406C139.879 109.809 140.349 110.374 140.687 111.102H140.829C141.178 110.398 141.702 109.838 142.4 109.424C143.098 109.004 143.936 108.794 144.912 108.794C146.132 108.794 147.129 109.176 147.904 109.939C148.68 110.697 149.067 111.877 149.067 113.481V122.608H146.972V113.481C146.972 112.475 146.697 111.756 146.146 111.324C145.596 110.892 144.948 110.676 144.202 110.676C143.243 110.676 142.501 110.966 141.974 111.546C141.447 112.12 141.184 112.848 141.184 113.73V122.608H139.053V113.268C139.053 112.493 138.802 111.869 138.298 111.395C137.795 110.916 137.147 110.676 136.354 110.676C135.81 110.676 135.301 110.821 134.827 111.111C134.36 111.401 133.981 111.803 133.691 112.318C133.407 112.827 133.265 113.416 133.265 114.085V122.608H131.17Z" fill="black"/>
<path d="M58.2669 223.539C57.1305 223.539 56.1273 223.252 55.2573 222.678C54.3873 222.098 53.7066 221.281 53.2154 220.228C52.7241 219.168 52.4785 217.916 52.4785 216.472C52.4785 215.04 52.7241 213.797 53.2154 212.744C53.7066 211.69 54.3902 210.876 55.2662 210.302C56.1421 209.728 57.1542 209.441 58.3024 209.441C59.1902 209.441 59.8915 209.589 60.4064 209.885C60.9273 210.175 61.3238 210.506 61.5961 210.879C61.8742 211.246 62.0903 211.548 62.2442 211.785H62.4217V205.073H64.5169V223.255H62.4927V221.16H62.2442C62.0903 221.408 61.8713 221.722 61.5872 222.101C61.3031 222.474 60.8977 222.808 60.3709 223.104C59.8442 223.394 59.1428 223.539 58.2669 223.539ZM58.551 221.657C59.3914 221.657 60.1016 221.438 60.6817 221C61.2617 220.556 61.7026 219.943 62.0045 219.162C62.3063 218.375 62.4572 217.467 62.4572 216.437C62.4572 215.419 62.3093 214.528 62.0133 213.764C61.7174 212.995 61.2794 212.397 60.6994 211.971C60.1194 211.539 59.4032 211.323 58.551 211.323C57.6632 211.323 56.9234 211.551 56.3315 212.007C55.7456 212.456 55.3046 213.069 55.0087 213.844C54.7187 214.614 54.5737 215.478 54.5737 216.437C54.5737 217.407 54.7217 218.289 55.0176 219.082C55.3194 219.869 55.7633 220.497 56.3493 220.964C56.9411 221.426 57.675 221.657 58.551 221.657ZM69.9945 228.369C69.6394 228.369 69.3228 228.339 69.0446 228.28C68.7664 228.226 68.5741 228.173 68.4675 228.12L69.0002 226.273C69.5092 226.404 69.959 226.451 70.3496 226.415C70.7402 226.38 71.0865 226.205 71.3883 225.892C71.6961 225.584 71.9772 225.084 72.2317 224.391L72.6223 223.326L67.5797 209.619H69.8525L73.6167 220.485H73.7587L77.5229 209.619H79.7956L74.0073 225.244C73.7469 225.948 73.4243 226.531 73.0396 226.992C72.6549 227.46 72.2081 227.806 71.6991 228.031C71.196 228.256 70.6278 228.369 69.9945 228.369ZM84.6563 215.052V223.255H82.5611V209.619H84.5852V211.749H84.7628C85.0824 211.057 85.5677 210.5 86.2188 210.08C86.8698 209.654 87.7102 209.441 88.7401 209.441C89.6634 209.441 90.4712 209.63 91.1637 210.009C91.8562 210.382 92.3948 210.95 92.7795 211.714C93.1642 212.471 93.3565 213.43 93.3565 214.59V223.255H91.2614V214.732C91.2614 213.661 90.9832 212.826 90.4269 212.229C89.8705 211.625 89.107 211.323 88.1364 211.323C87.4676 211.323 86.8698 211.468 86.3431 211.758C85.8222 212.048 85.4109 212.471 85.109 213.028C84.8072 213.584 84.6563 214.259 84.6563 215.052ZM101.198 223.574C100.334 223.574 99.5496 223.412 98.8453 223.086C98.141 222.755 97.5817 222.278 97.1674 221.657C96.7531 221.03 96.5459 220.272 96.5459 219.384C96.5459 218.603 96.6998 217.97 97.0076 217.484C97.3153 216.993 97.7267 216.608 98.2416 216.33C98.7565 216.052 99.3247 215.845 99.9461 215.709C100.573 215.567 101.204 215.454 101.837 215.371C102.666 215.265 103.337 215.185 103.852 215.132C104.373 215.072 104.752 214.975 104.989 214.839C105.231 214.703 105.353 214.466 105.353 214.128V214.057C105.353 213.181 105.113 212.501 104.634 212.016C104.16 211.53 103.441 211.288 102.476 211.288C101.476 211.288 100.692 211.507 100.124 211.945C99.5555 212.382 99.156 212.85 98.9252 213.347L96.9365 212.637C97.2916 211.808 97.7651 211.163 98.357 210.702C98.9548 210.234 99.6058 209.909 100.31 209.725C101.02 209.536 101.719 209.441 102.405 209.441C102.843 209.441 103.346 209.494 103.915 209.601C104.489 209.701 105.042 209.911 105.575 210.231C106.113 210.551 106.56 211.033 106.915 211.678C107.27 212.323 107.448 213.187 107.448 214.271V223.255H105.353V221.408H105.246C105.104 221.704 104.867 222.021 104.536 222.358C104.205 222.696 103.764 222.983 103.213 223.219C102.663 223.456 101.991 223.574 101.198 223.574ZM101.518 221.692C102.346 221.692 103.044 221.53 103.613 221.204C104.187 220.879 104.619 220.458 104.909 219.943C105.205 219.429 105.353 218.887 105.353 218.319V216.401C105.264 216.508 105.069 216.605 104.767 216.694C104.471 216.777 104.128 216.851 103.737 216.916C103.352 216.975 102.976 217.029 102.609 217.076C102.248 217.117 101.955 217.153 101.731 217.182C101.186 217.253 100.677 217.369 100.204 217.529C99.736 217.683 99.3572 217.916 99.0672 218.23C98.7831 218.538 98.6411 218.958 98.6411 219.491C98.6411 220.219 98.9104 220.769 99.449 221.142C99.9935 221.509 100.683 221.692 101.518 221.692ZM111.272 223.255V209.619H113.296V211.749H113.474C113.758 211.021 114.217 210.456 114.85 210.054C115.483 209.645 116.244 209.441 117.131 209.441C118.031 209.441 118.78 209.645 119.377 210.054C119.981 210.456 120.452 211.021 120.789 211.749H120.931C121.28 211.045 121.804 210.486 122.502 210.071C123.201 209.651 124.038 209.441 125.015 209.441C126.234 209.441 127.231 209.823 128.007 210.586C128.782 211.344 129.17 212.525 129.17 214.128V223.255H127.075V214.128C127.075 213.122 126.799 212.403 126.249 211.971C125.699 211.539 125.05 211.323 124.305 211.323C123.346 211.323 122.603 211.613 122.076 212.193C121.55 212.767 121.286 213.495 121.286 214.377V223.255H119.156V213.915C119.156 213.14 118.904 212.516 118.401 212.042C117.898 211.563 117.25 211.323 116.457 211.323C115.912 211.323 115.403 211.468 114.93 211.758C114.462 212.048 114.083 212.451 113.793 212.965C113.509 213.474 113.367 214.063 113.367 214.732V223.255H111.272ZM133.001 223.255V209.619H135.096V223.255H133.001ZM134.066 207.346C133.658 207.346 133.305 207.207 133.009 206.929C132.719 206.65 132.574 206.316 132.574 205.925C132.574 205.535 132.719 205.2 133.009 204.922C133.305 204.644 133.658 204.505 134.066 204.505C134.474 204.505 134.823 204.644 135.113 204.922C135.409 205.2 135.557 205.535 135.557 205.925C135.557 206.316 135.409 206.65 135.113 206.929C134.823 207.207 134.474 207.346 134.066 207.346ZM144.473 223.539C143.195 223.539 142.094 223.237 141.17 222.633C140.247 222.03 139.537 221.198 139.04 220.139C138.543 219.079 138.294 217.869 138.294 216.508C138.294 215.123 138.548 213.901 139.057 212.841C139.572 211.776 140.289 210.944 141.206 210.347C142.129 209.743 143.206 209.441 144.437 209.441C145.396 209.441 146.26 209.619 147.03 209.974C147.799 210.329 148.429 210.826 148.921 211.465C149.412 212.104 149.717 212.85 149.835 213.702H147.74C147.58 213.081 147.225 212.53 146.675 212.051C146.13 211.566 145.396 211.323 144.473 211.323C143.656 211.323 142.94 211.536 142.324 211.962C141.715 212.382 141.238 212.977 140.895 213.747C140.558 214.51 140.389 215.407 140.389 216.437C140.389 217.49 140.555 218.408 140.886 219.189C141.224 219.97 141.697 220.577 142.307 221.009C142.922 221.441 143.644 221.657 144.473 221.657C145.017 221.657 145.512 221.562 145.956 221.373C146.399 221.183 146.775 220.911 147.083 220.556C147.391 220.201 147.61 219.775 147.74 219.278H149.835C149.717 220.083 149.424 220.808 148.956 221.453C148.495 222.092 147.882 222.601 147.119 222.98C146.361 223.353 145.479 223.539 144.473 223.539Z" fill="black"/>
<path d="M239.165 223.255V205.073H241.367V221.302H249.819V223.255H239.165ZM258.484 223.539C257.253 223.539 256.172 223.246 255.243 222.66C254.32 222.074 253.598 221.254 253.077 220.201C252.562 219.147 252.305 217.916 252.305 216.508C252.305 215.087 252.562 213.847 253.077 212.788C253.598 211.728 254.32 210.906 255.243 210.32C256.172 209.734 257.253 209.441 258.484 209.441C259.715 209.441 260.792 209.734 261.715 210.32C262.644 210.906 263.366 211.728 263.881 212.788C264.402 213.847 264.663 215.087 264.663 216.508C264.663 217.916 264.402 219.147 263.881 220.201C263.366 221.254 262.644 222.074 261.715 222.66C260.792 223.246 259.715 223.539 258.484 223.539ZM258.484 221.657C259.419 221.657 260.188 221.417 260.792 220.938C261.396 220.458 261.842 219.828 262.132 219.047C262.422 218.266 262.567 217.419 262.567 216.508C262.567 215.596 262.422 214.747 262.132 213.96C261.842 213.173 261.396 212.536 260.792 212.051C260.188 211.566 259.419 211.323 258.484 211.323C257.548 211.323 256.779 211.566 256.175 212.051C255.572 212.536 255.125 213.173 254.835 213.96C254.545 214.747 254.4 215.596 254.4 216.508C254.4 217.419 254.545 218.266 254.835 219.047C255.125 219.828 255.572 220.458 256.175 220.938C256.779 221.417 257.548 221.657 258.484 221.657ZM276.455 217.68V209.619H278.55V223.255H276.455V220.947H276.313C275.993 221.639 275.496 222.228 274.821 222.713C274.146 223.193 273.294 223.432 272.264 223.432C271.412 223.432 270.654 223.246 269.992 222.873C269.329 222.494 268.808 221.926 268.429 221.169C268.05 220.405 267.861 219.443 267.861 218.283V209.619H269.956V218.141C269.956 219.136 270.234 219.929 270.791 220.521C271.353 221.112 272.069 221.408 272.939 221.408C273.46 221.408 273.99 221.275 274.528 221.009C275.073 220.742 275.528 220.334 275.895 219.784C276.268 219.233 276.455 218.532 276.455 217.68ZM287.536 223.539C286.4 223.539 285.397 223.252 284.527 222.678C283.657 222.098 282.976 221.281 282.485 220.228C281.994 219.168 281.748 217.916 281.748 216.472C281.748 215.04 281.994 213.797 282.485 212.744C282.976 211.69 283.66 210.876 284.536 210.302C285.412 209.728 286.424 209.441 287.572 209.441C288.46 209.441 289.161 209.589 289.676 209.885C290.197 210.175 290.593 210.506 290.866 210.879C291.144 211.246 291.36 211.548 291.514 211.785H291.691V205.073H293.786V223.255H291.762V221.16H291.514C291.36 221.408 291.141 221.722 290.857 222.101C290.573 222.474 290.167 222.808 289.64 223.104C289.114 223.394 288.412 223.539 287.536 223.539ZM287.82 221.657C288.661 221.657 289.371 221.438 289.951 221C290.531 220.556 290.972 219.943 291.274 219.162C291.576 218.375 291.727 217.467 291.727 216.437C291.727 215.419 291.579 214.528 291.283 213.764C290.987 212.995 290.549 212.397 289.969 211.971C289.389 211.539 288.673 211.323 287.82 211.323C286.933 211.323 286.193 211.551 285.601 212.007C285.015 212.456 284.574 213.069 284.278 213.844C283.988 214.614 283.843 215.478 283.843 216.437C283.843 217.407 283.991 218.289 284.287 219.082C284.589 219.869 285.033 220.497 285.619 220.964C286.211 221.426 286.945 221.657 287.82 221.657Z" fill="black"/>
<path d="M449.377 217.573H451.792L453.816 220.236L454.348 220.947L457.367 224.959H454.952L452.963 222.296L452.466 221.621L449.377 217.573ZM458.113 214.164C458.113 216.082 457.766 217.739 457.074 219.136C456.381 220.532 455.432 221.61 454.224 222.367C453.017 223.125 451.638 223.503 450.087 223.503C448.536 223.503 447.157 223.125 445.95 222.367C444.743 221.61 443.793 220.532 443.1 219.136C442.408 217.739 442.061 216.082 442.061 214.164C442.061 212.246 442.408 210.589 443.1 209.192C443.793 207.796 444.743 206.718 445.95 205.961C447.157 205.203 448.536 204.824 450.087 204.824C451.638 204.824 453.017 205.203 454.224 205.961C455.432 206.718 456.381 207.796 457.074 209.192C457.766 210.589 458.113 212.246 458.113 214.164ZM455.982 214.164C455.982 212.59 455.719 211.261 455.192 210.178C454.671 209.095 453.964 208.275 453.07 207.719C452.182 207.162 451.188 206.884 450.087 206.884C448.986 206.884 447.989 207.162 447.095 207.719C446.207 208.275 445.5 209.095 444.973 210.178C444.453 211.261 444.192 212.59 444.192 214.164C444.192 215.738 444.453 217.067 444.973 218.15C445.5 219.233 446.207 220.053 447.095 220.609C447.989 221.166 448.986 221.444 450.087 221.444C451.188 221.444 452.182 221.166 453.07 220.609C453.964 220.053 454.671 219.233 455.192 218.15C455.719 217.067 455.982 215.738 455.982 214.164ZM470.124 217.68V209.619H472.219V223.255H470.124V220.947H469.982C469.663 221.639 469.166 222.228 468.491 222.713C467.816 223.193 466.964 223.432 465.934 223.432C465.082 223.432 464.324 223.246 463.661 222.873C462.998 222.494 462.478 221.926 462.099 221.169C461.72 220.405 461.531 219.443 461.531 218.283V209.619H463.626V218.141C463.626 219.136 463.904 219.929 464.46 220.521C465.023 221.112 465.739 221.408 466.609 221.408C467.13 221.408 467.659 221.275 468.198 221.009C468.742 220.742 469.198 220.334 469.565 219.784C469.938 219.233 470.124 218.532 470.124 217.68ZM476.057 223.255V209.619H478.152V223.255H476.057ZM477.122 207.346C476.714 207.346 476.362 207.207 476.066 206.929C475.776 206.65 475.631 206.316 475.631 205.925C475.631 205.535 475.776 205.2 476.066 204.922C476.362 204.644 476.714 204.505 477.122 204.505C477.531 204.505 477.88 204.644 478.17 204.922C478.466 205.2 478.614 205.535 478.614 205.925C478.614 206.316 478.466 206.65 478.17 206.929C477.88 207.207 477.531 207.346 477.122 207.346ZM487.707 223.539C486.393 223.539 485.26 223.249 484.307 222.669C483.36 222.083 482.629 221.266 482.114 220.219C481.605 219.165 481.35 217.94 481.35 216.543C481.35 215.146 481.605 213.915 482.114 212.85C482.629 211.779 483.345 210.944 484.262 210.347C485.186 209.743 486.263 209.441 487.494 209.441C488.204 209.441 488.905 209.559 489.598 209.796C490.29 210.033 490.921 210.418 491.489 210.95C492.057 211.477 492.51 212.175 492.847 213.045C493.185 213.915 493.353 214.987 493.353 216.259V217.147H482.842V215.336H491.223C491.223 214.566 491.069 213.88 490.761 213.276C490.459 212.672 490.027 212.196 489.465 211.847C488.908 211.498 488.251 211.323 487.494 211.323C486.659 211.323 485.937 211.53 485.328 211.945C484.724 212.353 484.259 212.886 483.934 213.543C483.608 214.199 483.446 214.904 483.446 215.655V216.863C483.446 217.893 483.623 218.766 483.978 219.482C484.339 220.192 484.839 220.734 485.479 221.106C486.118 221.473 486.861 221.657 487.707 221.657C488.257 221.657 488.754 221.58 489.198 221.426C489.648 221.266 490.036 221.03 490.361 220.716C490.687 220.396 490.938 220 491.116 219.526L493.14 220.094C492.927 220.781 492.569 221.385 492.066 221.905C491.563 222.42 490.941 222.823 490.202 223.113C489.462 223.397 488.63 223.539 487.707 223.539ZM502.471 209.619V211.394H495.404V209.619H502.471ZM497.464 206.351H499.559V219.349C499.559 219.94 499.645 220.384 499.816 220.68C499.994 220.97 500.219 221.166 500.491 221.266C500.769 221.361 501.062 221.408 501.37 221.408C501.601 221.408 501.79 221.396 501.938 221.373C502.086 221.343 502.204 221.32 502.293 221.302L502.719 223.184C502.577 223.237 502.379 223.29 502.125 223.344C501.87 223.403 501.547 223.432 501.157 223.432C500.565 223.432 499.985 223.305 499.417 223.051C498.854 222.796 498.387 222.409 498.014 221.888C497.647 221.367 497.464 220.71 497.464 219.917V206.351Z" fill="black"/>
<rect x="515.5" y="184.5" width="71" height="61" fill="#A6C6DE" stroke="black"/>
<rect x="586.304" y="184.696" width="119.784" height="60.902" fill="#A6C6DE" stroke="black"/>
<path d="M554.118 214.484V216.437H546.163V214.484H554.118Z" fill="black"/>
<path d="M105.095 322.902V309.266H107.119V311.325H107.261C107.51 310.651 107.96 310.103 108.611 309.683C109.262 309.263 109.996 309.053 110.813 309.053C110.966 309.053 111.159 309.056 111.39 309.061C111.62 309.067 111.795 309.076 111.913 309.088V311.219C111.842 311.201 111.68 311.174 111.425 311.139C111.177 311.097 110.913 311.077 110.635 311.077C109.972 311.077 109.38 311.216 108.859 311.494C108.345 311.766 107.936 312.145 107.634 312.63C107.338 313.11 107.19 313.657 107.19 314.273V322.902H105.095ZM119.522 323.186C118.291 323.186 117.211 322.893 116.281 322.307C115.358 321.721 114.636 320.902 114.115 319.848C113.6 318.794 113.343 317.563 113.343 316.155C113.343 314.734 113.6 313.494 114.115 312.435C114.636 311.376 115.358 310.553 116.281 309.967C117.211 309.381 118.291 309.088 119.522 309.088C120.753 309.088 121.83 309.381 122.753 309.967C123.682 310.553 124.405 311.376 124.919 312.435C125.44 313.494 125.701 314.734 125.701 316.155C125.701 317.563 125.44 318.794 124.919 319.848C124.405 320.902 123.682 321.721 122.753 322.307C121.83 322.893 120.753 323.186 119.522 323.186ZM119.522 321.304C120.457 321.304 121.226 321.064 121.83 320.585C122.434 320.105 122.881 319.475 123.171 318.694C123.461 317.913 123.606 317.066 123.606 316.155C123.606 315.243 123.461 314.394 123.171 313.607C122.881 312.82 122.434 312.183 121.83 311.698C121.226 311.213 120.457 310.97 119.522 310.97C118.587 310.97 117.817 311.213 117.213 311.698C116.61 312.183 116.163 312.82 115.873 313.607C115.583 314.394 115.438 315.243 115.438 316.155C115.438 317.066 115.583 317.913 115.873 318.694C116.163 319.475 116.61 320.105 117.213 320.585C117.817 321.064 118.587 321.304 119.522 321.304ZM134.439 323.186C133.208 323.186 132.128 322.893 131.198 322.307C130.275 321.721 129.553 320.902 129.032 319.848C128.517 318.794 128.26 317.563 128.26 316.155C128.26 314.734 128.517 313.494 129.032 312.435C129.553 311.376 130.275 310.553 131.198 309.967C132.128 309.381 133.208 309.088 134.439 309.088C135.67 309.088 136.747 309.381 137.67 309.967C138.599 310.553 139.322 311.376 139.836 312.435C140.357 313.494 140.618 314.734 140.618 316.155C140.618 317.563 140.357 318.794 139.836 319.848C139.322 320.902 138.599 321.721 137.67 322.307C136.747 322.893 135.67 323.186 134.439 323.186ZM134.439 321.304C135.374 321.304 136.143 321.064 136.747 320.585C137.351 320.105 137.798 319.475 138.088 318.694C138.378 317.913 138.523 317.066 138.523 316.155C138.523 315.243 138.378 314.394 138.088 313.607C137.798 312.82 137.351 312.183 136.747 311.698C136.143 311.213 135.374 310.97 134.439 310.97C133.504 310.97 132.734 311.213 132.13 311.698C131.527 312.183 131.08 312.82 130.79 313.607C130.5 314.394 130.355 315.243 130.355 316.155C130.355 317.066 130.5 317.913 130.79 318.694C131.08 319.475 131.527 320.105 132.13 320.585C132.734 321.064 133.504 321.304 134.439 321.304ZM149.746 309.266V311.041H142.68V309.266H149.746ZM144.739 305.999H146.834V318.996C146.834 319.588 146.92 320.031 147.092 320.327C147.269 320.617 147.494 320.813 147.767 320.913C148.045 321.008 148.338 321.055 148.645 321.055C148.876 321.055 149.066 321.044 149.214 321.02C149.362 320.99 149.48 320.967 149.569 320.949L149.995 322.831C149.853 322.884 149.655 322.937 149.4 322.991C149.146 323.05 148.823 323.08 148.432 323.08C147.841 323.08 147.261 322.952 146.692 322.698C146.13 322.443 145.663 322.056 145.29 321.535C144.923 321.014 144.739 320.357 144.739 319.564V305.999Z" fill="black"/>
<path d="M467.824 322.902H465.516L472.192 304.72H474.464L481.141 322.902H478.832L473.399 307.597H473.257L467.824 322.902ZM468.676 315.8H477.98V317.753H468.676V315.8Z" fill="black"/>
<path d="M601.483 317.788V317.682C601.495 316.551 601.614 315.652 601.838 314.983C602.063 314.314 602.383 313.773 602.797 313.358C603.212 312.944 603.709 312.562 604.289 312.213C604.638 312 604.952 311.748 605.23 311.458C605.508 311.163 605.727 310.822 605.887 310.437C606.052 310.053 606.135 309.627 606.135 309.159C606.135 308.579 605.999 308.076 605.727 307.65C605.455 307.224 605.091 306.895 604.635 306.664C604.179 306.434 603.673 306.318 603.117 306.318C602.631 306.318 602.164 306.419 601.714 306.62C601.264 306.821 600.888 307.138 600.587 307.57C600.285 308.002 600.11 308.567 600.063 309.266H597.826C597.873 308.259 598.133 307.398 598.607 306.682C599.086 305.966 599.717 305.419 600.498 305.04C601.285 304.661 602.158 304.472 603.117 304.472C604.158 304.472 605.064 304.679 605.833 305.093C606.609 305.507 607.207 306.076 607.627 306.798C608.053 307.52 608.266 308.342 608.266 309.266C608.266 309.917 608.165 310.506 607.964 311.032C607.769 311.559 607.485 312.03 607.112 312.444C606.745 312.858 606.301 313.225 605.78 313.545C605.259 313.87 604.842 314.214 604.528 314.575C604.215 314.93 603.987 315.353 603.845 315.844C603.703 316.335 603.626 316.948 603.614 317.682V317.788H601.483ZM602.62 323.044C602.182 323.044 601.806 322.887 601.492 322.573C601.178 322.26 601.022 321.884 601.022 321.446C601.022 321.008 601.178 320.632 601.492 320.319C601.806 320.005 602.182 319.848 602.62 319.848C603.058 319.848 603.433 320.005 603.747 320.319C604.061 320.632 604.218 321.008 604.218 321.446C604.218 321.736 604.144 322.002 603.996 322.245C603.854 322.488 603.661 322.683 603.419 322.831C603.182 322.973 602.916 323.044 602.62 323.044Z" fill="black"/>
<path d="M339.14 310.402H336.938C336.808 309.769 336.58 309.212 336.255 308.733C335.935 308.254 335.545 307.851 335.083 307.526C334.627 307.194 334.121 306.946 333.565 306.78C333.008 306.614 332.428 306.531 331.825 306.531C330.724 306.531 329.727 306.809 328.833 307.366C327.945 307.922 327.238 308.742 326.711 309.825C326.19 310.908 325.93 312.237 325.93 313.811C325.93 315.385 326.19 316.714 326.711 317.797C327.238 318.88 327.945 319.7 328.833 320.256C329.727 320.813 330.724 321.091 331.825 321.091C332.428 321.091 333.008 321.008 333.565 320.842C334.121 320.677 334.627 320.431 335.083 320.105C335.545 319.774 335.935 319.369 336.255 318.889C336.58 318.404 336.808 317.848 336.938 317.22H339.14C338.974 318.149 338.673 318.981 338.235 319.715C337.797 320.449 337.252 321.073 336.601 321.588C335.95 322.097 335.219 322.485 334.408 322.751C333.603 323.017 332.742 323.151 331.825 323.151C330.274 323.151 328.895 322.772 327.688 322.014C326.48 321.257 325.53 320.179 324.838 318.783C324.145 317.386 323.799 315.729 323.799 313.811C323.799 311.893 324.145 310.236 324.838 308.839C325.53 307.443 326.48 306.366 327.688 305.608C328.895 304.85 330.274 304.472 331.825 304.472C332.742 304.472 333.603 304.605 334.408 304.871C335.219 305.137 335.95 305.528 336.601 306.043C337.252 306.552 337.797 307.173 338.235 307.907C338.673 308.635 338.974 309.467 339.14 310.402Z" fill="black"/>
<path d="M241.625 310.402C241.43 309.804 241.173 309.269 240.853 308.795C240.539 308.316 240.164 307.907 239.726 307.57C239.294 307.233 238.802 306.975 238.252 306.798C237.701 306.62 237.098 306.531 236.441 306.531C235.364 306.531 234.384 306.809 233.502 307.366C232.62 307.922 231.919 308.742 231.398 309.825C230.877 310.908 230.617 312.237 230.617 313.811C230.617 315.385 230.88 316.714 231.407 317.797C231.934 318.88 232.647 319.7 233.547 320.256C234.446 320.813 235.458 321.091 236.583 321.091C237.624 321.091 238.542 320.869 239.335 320.425C240.134 319.975 240.755 319.342 241.199 318.525C241.649 317.703 241.874 316.735 241.874 315.622L242.549 315.764H237.08V313.811H244.005V315.764C244.005 317.262 243.685 318.564 243.046 319.67C242.413 320.777 241.537 321.635 240.418 322.245C239.305 322.849 238.027 323.151 236.583 323.151C234.973 323.151 233.558 322.772 232.339 322.014C231.126 321.257 230.179 320.179 229.498 318.783C228.824 317.386 228.486 315.729 228.486 313.811C228.486 312.373 228.679 311.08 229.063 309.931C229.454 308.777 230.004 307.795 230.715 306.984C231.425 306.173 232.265 305.552 233.236 305.12C234.207 304.688 235.275 304.472 236.441 304.472C237.4 304.472 238.293 304.617 239.122 304.907C239.956 305.191 240.699 305.596 241.35 306.123C242.007 306.644 242.555 307.268 242.993 307.996C243.431 308.718 243.732 309.52 243.898 310.402H241.625Z" fill="black"/>
<path d="M621.146 223.255V205.073H623.348V221.302H631.799V223.255H621.146ZM640.464 223.539C639.233 223.539 638.153 223.246 637.224 222.66C636.3 222.074 635.578 221.254 635.057 220.201C634.542 219.147 634.285 217.916 634.285 216.508C634.285 215.087 634.542 213.847 635.057 212.788C635.578 211.728 636.3 210.906 637.224 210.32C638.153 209.734 639.233 209.441 640.464 209.441C641.695 209.441 642.772 209.734 643.696 210.32C644.625 210.906 645.347 211.728 645.862 212.788C646.383 213.847 646.643 215.087 646.643 216.508C646.643 217.916 646.383 219.147 645.862 220.201C645.347 221.254 644.625 222.074 643.696 222.66C642.772 223.246 641.695 223.539 640.464 223.539ZM640.464 221.657C641.399 221.657 642.169 221.417 642.772 220.938C643.376 220.458 643.823 219.828 644.113 219.047C644.403 218.266 644.548 217.419 644.548 216.508C644.548 215.596 644.403 214.747 644.113 213.96C643.823 213.173 643.376 212.536 642.772 212.051C642.169 211.566 641.399 211.323 640.464 211.323C639.529 211.323 638.759 211.566 638.156 212.051C637.552 212.536 637.105 213.173 636.815 213.96C636.525 214.747 636.38 215.596 636.38 216.508C636.38 217.419 636.525 218.266 636.815 219.047C637.105 219.828 637.552 220.458 638.156 220.938C638.759 221.417 639.529 221.657 640.464 221.657ZM658.435 217.68V209.619H660.53V223.255H658.435V220.947H658.293C657.973 221.639 657.476 222.228 656.801 222.713C656.127 223.193 655.274 223.432 654.245 223.432C653.392 223.432 652.635 223.246 651.972 222.873C651.309 222.494 650.788 221.926 650.409 221.169C650.031 220.405 649.841 219.443 649.841 218.283V209.619H651.936V218.141C651.936 219.136 652.215 219.929 652.771 220.521C653.333 221.112 654.049 221.408 654.919 221.408C655.44 221.408 655.97 221.275 656.508 221.009C657.053 220.742 657.509 220.334 657.876 219.784C658.249 219.233 658.435 218.532 658.435 217.68ZM669.517 223.539C668.38 223.539 667.377 223.252 666.507 222.678C665.637 222.098 664.956 221.281 664.465 220.228C663.974 219.168 663.728 217.916 663.728 216.472C663.728 215.04 663.974 213.797 664.465 212.744C664.956 211.69 665.64 210.876 666.516 210.302C667.392 209.728 668.404 209.441 669.552 209.441C670.44 209.441 671.141 209.589 671.656 209.885C672.177 210.175 672.574 210.506 672.846 210.879C673.124 211.246 673.34 211.548 673.494 211.785H673.672V205.073H675.767V223.255H673.743V221.16H673.494C673.34 221.408 673.121 221.722 672.837 222.101C672.553 222.474 672.148 222.808 671.621 223.104C671.094 223.394 670.393 223.539 669.517 223.539ZM669.801 221.657C670.641 221.657 671.351 221.438 671.931 221C672.512 220.556 672.952 219.943 673.254 219.162C673.556 218.375 673.707 217.467 673.707 216.437C673.707 215.419 673.559 214.528 673.263 213.764C672.967 212.995 672.529 212.397 671.949 211.971C671.369 211.539 670.653 211.323 669.801 211.323C668.913 211.323 668.173 211.551 667.581 212.007C666.995 212.456 666.554 213.069 666.259 213.844C665.969 214.614 665.824 215.478 665.824 216.437C665.824 217.407 665.971 218.289 666.267 219.082C666.569 219.869 667.013 220.497 667.599 220.964C668.191 221.426 668.925 221.657 669.801 221.657Z" fill="black"/>
</svg>
