<svg width="810" height="385" viewBox="0 0 810 385" fill="none" xmlns="http://www.w3.org/2000/svg">
<path d="M771.061 62.9626C771.646 62.3769 771.646 61.4271 771.061 60.8413L761.515 51.2954C760.929 50.7096 759.979 50.7096 759.393 51.2954C758.808 51.8812 758.808 52.8309 759.393 53.4167L767.879 61.902L759.393 70.3873C758.808 70.973 758.808 71.9228 759.393 72.5086C759.979 73.0944 760.929 73.0944 761.515 72.5086L771.061 62.9626ZM169.098 63.402L770 63.402V60.402L169.098 60.402V63.402Z" fill="#999999"/>
<path d="M741.359 85V87.3437H732.031V85H741.359ZM734.75 80.6875H737.516V97.8438C737.516 98.625 737.629 99.2109 737.855 99.6016C738.09 99.9844 738.387 100.242 738.746 100.375C739.113 100.5 739.5 100.562 739.906 100.562C740.211 100.562 740.461 100.547 740.656 100.516C740.852 100.477 741.008 100.445 741.125 100.422L741.688 102.906C741.5 102.977 741.238 103.047 740.902 103.117C740.566 103.195 740.141 103.234 739.625 103.234C738.844 103.234 738.078 103.066 737.328 102.73C736.586 102.395 735.969 101.883 735.477 101.195C734.992 100.508 734.75 99.6406 734.75 98.5937V80.6875ZM745.52 103V85H748.285V103H745.52ZM746.926 82C746.387 82 745.922 81.8164 745.531 81.4492C745.148 81.082 744.957 80.6406 744.957 80.125C744.957 79.6094 745.148 79.168 745.531 78.8008C745.922 78.4336 746.387 78.25 746.926 78.25C747.465 78.25 747.926 78.4336 748.309 78.8008C748.699 79.168 748.895 79.6094 748.895 80.125C748.895 80.6406 748.699 81.082 748.309 81.4492C747.926 81.8164 747.465 82 746.926 82ZM753.351 103V85H756.022V87.8125H756.257C756.632 86.8516 757.237 86.1055 758.073 85.5742C758.909 85.0352 759.913 84.7656 761.085 84.7656C762.272 84.7656 763.261 85.0352 764.05 85.5742C764.847 86.1055 765.468 86.8516 765.913 87.8125H766.101C766.562 86.8828 767.253 86.1445 768.175 85.5977C769.097 85.043 770.202 84.7656 771.491 84.7656C773.101 84.7656 774.417 85.2695 775.44 86.2773C776.464 87.2773 776.976 88.8359 776.976 90.9531V103H774.21V90.9531C774.21 89.625 773.847 88.6758 773.12 88.1055C772.394 87.5352 771.538 87.25 770.554 87.25C769.288 87.25 768.308 87.6328 767.612 88.3984C766.917 89.1562 766.569 90.1172 766.569 91.2812V103H763.757V90.6719C763.757 89.6484 763.425 88.8242 762.761 88.1992C762.097 87.5664 761.241 87.25 760.194 87.25C759.476 87.25 758.804 87.4414 758.179 87.8242C757.562 88.207 757.062 88.7383 756.679 89.418C756.304 90.0898 756.116 90.8672 756.116 91.75V103H753.351ZM789.579 103.375C787.845 103.375 786.349 102.992 785.091 102.227C783.841 101.453 782.876 100.375 782.196 98.9922C781.524 97.6016 781.188 95.9844 781.188 94.1406C781.188 92.2969 781.524 90.6719 782.196 89.2656C782.876 87.8516 783.821 86.75 785.032 85.9609C786.251 85.1641 787.673 84.7656 789.298 84.7656C790.235 84.7656 791.161 84.9219 792.075 85.2344C792.989 85.5469 793.821 86.0547 794.571 86.7578C795.321 87.4531 795.919 88.375 796.364 89.5234C796.81 90.6719 797.032 92.0859 797.032 93.7656V94.9375H783.157V92.5469H794.22C794.22 91.5312 794.017 90.625 793.61 89.8281C793.212 89.0312 792.642 88.4023 791.899 87.9414C791.165 87.4805 790.298 87.25 789.298 87.25C788.196 87.25 787.243 87.5234 786.438 88.0703C785.642 88.6094 785.028 89.3125 784.599 90.1797C784.169 91.0469 783.954 91.9766 783.954 92.9687V94.5625C783.954 95.9219 784.188 97.0742 784.657 98.0195C785.134 98.957 785.794 99.6719 786.638 100.164C787.481 100.648 788.462 100.891 789.579 100.891C790.306 100.891 790.962 100.789 791.548 100.586C792.142 100.375 792.653 100.063 793.083 99.6484C793.513 99.2266 793.845 98.7031 794.079 98.0781L796.751 98.8281C796.47 99.7344 795.997 100.531 795.333 101.219C794.669 101.898 793.849 102.43 792.872 102.812C791.896 103.188 790.798 103.375 789.579 103.375Z" fill="#999999"/>
<path d="M108.85 32.3281C107.084 32.3281 105.58 31.8477 104.338 30.8867C103.096 29.918 102.146 28.5156 101.49 26.6797C100.834 24.8359 100.506 22.6094 100.506 20C100.506 17.4062 100.834 15.1914 101.49 13.3555C102.154 11.5117 103.107 10.1055 104.35 9.13672C105.6 8.16016 107.1 7.67187 108.85 7.67187C110.6 7.67187 112.096 8.16016 113.338 9.13672C114.588 10.1055 115.541 11.5117 116.197 13.3555C116.861 15.1914 117.193 17.4062 117.193 20C117.193 22.6094 116.865 24.8359 116.209 26.6797C115.553 28.5156 114.604 29.918 113.361 30.8867C112.119 31.8477 110.615 32.3281 108.85 32.3281ZM108.85 29.75C110.6 29.75 111.959 28.9062 112.928 27.2187C113.896 25.5312 114.381 23.125 114.381 20C114.381 17.9219 114.158 16.1523 113.713 14.6914C113.275 13.2305 112.643 12.1172 111.814 11.3516C110.994 10.5859 110.006 10.2031 108.85 10.2031C107.115 10.2031 105.76 11.0586 104.783 12.7695C103.807 14.4727 103.318 16.8828 103.318 20C103.318 22.0781 103.537 23.8437 103.975 25.2969C104.412 26.75 105.041 27.8555 105.861 28.6133C106.689 29.3711 107.686 29.75 108.85 29.75ZM129.475 32.3281C127.709 32.3281 126.205 31.8477 124.963 30.8867C123.721 29.918 122.771 28.5156 122.115 26.6797C121.459 24.8359 121.131 22.6094 121.131 20C121.131 17.4062 121.459 15.1914 122.115 13.3555C122.779 11.5117 123.732 10.1055 124.975 9.13672C126.225 8.16016 127.725 7.67187 129.475 7.67187C131.225 7.67187 132.721 8.16016 133.963 9.13672C135.213 10.1055 136.166 11.5117 136.822 13.3555C137.486 15.1914 137.818 17.4062 137.818 20C137.818 22.6094 137.49 24.8359 136.834 26.6797C136.178 28.5156 135.229 29.918 133.986 30.8867C132.744 31.8477 131.24 32.3281 129.475 32.3281ZM129.475 29.75C131.225 29.75 132.584 28.9062 133.553 27.2187C134.521 25.5312 135.006 23.125 135.006 20C135.006 17.9219 134.783 16.1523 134.338 14.6914C133.9 13.2305 133.268 12.1172 132.439 11.3516C131.619 10.5859 130.631 10.2031 129.475 10.2031C127.74 10.2031 126.385 11.0586 125.408 12.7695C124.432 14.4727 123.943 16.8828 123.943 20C123.943 22.0781 124.162 23.8437 124.6 25.2969C125.037 26.75 125.666 27.8555 126.486 28.6133C127.314 29.3711 128.311 29.75 129.475 29.75ZM144.334 28.9297C143.756 28.9297 143.26 28.7227 142.846 28.3086C142.432 27.8945 142.225 27.3984 142.225 26.8203C142.225 26.2422 142.432 25.7461 142.846 25.332C143.26 24.918 143.756 24.7109 144.334 24.7109C144.912 24.7109 145.408 24.918 145.822 25.332C146.236 25.7461 146.443 26.2422 146.443 26.8203C146.443 27.2031 146.346 27.5547 146.15 27.875C145.963 28.1953 145.709 28.4531 145.389 28.6484C145.076 28.8359 144.725 28.9297 144.334 28.9297ZM144.334 16.7891C143.756 16.7891 143.26 16.582 142.846 16.168C142.432 15.7539 142.225 15.2578 142.225 14.6797C142.225 14.1016 142.432 13.6055 142.846 13.1914C143.26 12.7773 143.756 12.5703 144.334 12.5703C144.912 12.5703 145.408 12.7773 145.822 13.1914C146.236 13.6055 146.443 14.1016 146.443 14.6797C146.443 15.0625 146.346 15.4141 146.15 15.7344C145.963 16.0547 145.709 16.3125 145.389 16.5078C145.076 16.6953 144.725 16.7891 144.334 16.7891ZM159.188 32.3281C157.422 32.3281 155.918 31.8477 154.676 30.8867C153.434 29.918 152.484 28.5156 151.828 26.6797C151.172 24.8359 150.844 22.6094 150.844 20C150.844 17.4062 151.172 15.1914 151.828 13.3555C152.492 11.5117 153.445 10.1055 154.688 9.13672C155.938 8.16016 157.438 7.67187 159.188 7.67187C160.938 7.67187 162.434 8.16016 163.676 9.13672C164.926 10.1055 165.879 11.5117 166.535 13.3555C167.199 15.1914 167.531 17.4062 167.531 20C167.531 22.6094 167.203 24.8359 166.547 26.6797C165.891 28.5156 164.941 29.918 163.699 30.8867C162.457 31.8477 160.953 32.3281 159.188 32.3281ZM159.188 29.75C160.938 29.75 162.297 28.9062 163.266 27.2187C164.234 25.5312 164.719 23.125 164.719 20C164.719 17.9219 164.496 16.1523 164.051 14.6914C163.613 13.2305 162.98 12.1172 162.152 11.3516C161.332 10.5859 160.344 10.2031 159.188 10.2031C157.453 10.2031 156.098 11.0586 155.121 12.7695C154.145 14.4727 153.656 16.8828 153.656 20C153.656 22.0781 153.875 23.8437 154.313 25.2969C154.75 26.75 155.379 27.8555 156.199 28.6133C157.027 29.3711 158.023 29.75 159.188 29.75ZM179.812 32.3281C178.047 32.3281 176.543 31.8477 175.301 30.8867C174.059 29.918 173.109 28.5156 172.453 26.6797C171.797 24.8359 171.469 22.6094 171.469 20C171.469 17.4062 171.797 15.1914 172.453 13.3555C173.117 11.5117 174.07 10.1055 175.313 9.13672C176.563 8.16016 178.063 7.67187 179.812 7.67187C181.563 7.67187 183.059 8.16016 184.301 9.13672C185.551 10.1055 186.504 11.5117 187.16 13.3555C187.824 15.1914 188.156 17.4062 188.156 20C188.156 22.6094 187.828 24.8359 187.172 26.6797C186.516 28.5156 185.566 29.918 184.324 30.8867C183.082 31.8477 181.578 32.3281 179.812 32.3281ZM179.812 29.75C181.563 29.75 182.922 28.9062 183.891 27.2187C184.859 25.5312 185.344 23.125 185.344 20C185.344 17.9219 185.121 16.1523 184.676 14.6914C184.238 13.2305 183.605 12.1172 182.777 11.3516C181.957 10.5859 180.969 10.2031 179.812 10.2031C178.078 10.2031 176.723 11.0586 175.746 12.7695C174.77 14.4727 174.281 16.8828 174.281 20C174.281 22.0781 174.5 23.8437 174.938 25.2969C175.375 26.75 176.004 27.8555 176.824 28.6133C177.652 29.3711 178.648 29.75 179.812 29.75ZM194.672 28.9297C194.094 28.9297 193.598 28.7227 193.184 28.3086C192.77 27.8945 192.563 27.3984 192.563 26.8203C192.563 26.2422 192.77 25.7461 193.184 25.332C193.598 24.918 194.094 24.7109 194.672 24.7109C195.25 24.7109 195.746 24.918 196.16 25.332C196.574 25.7461 196.781 26.2422 196.781 26.8203C196.781 27.2031 196.684 27.5547 196.488 27.875C196.301 28.1953 196.047 28.4531 195.727 28.6484C195.414 28.8359 195.063 28.9297 194.672 28.9297ZM194.672 16.7891C194.094 16.7891 193.598 16.582 193.184 16.168C192.77 15.7539 192.563 15.2578 192.563 14.6797C192.563 14.1016 192.77 13.6055 193.184 13.1914C193.598 12.7773 194.094 12.5703 194.672 12.5703C195.25 12.5703 195.746 12.7773 196.16 13.1914C196.574 13.6055 196.781 14.1016 196.781 14.6797C196.781 15.0625 196.684 15.4141 196.488 15.7344C196.301 16.0547 196.047 16.3125 195.727 16.5078C195.414 16.6953 195.063 16.7891 194.672 16.7891ZM209.525 32.3281C207.76 32.3281 206.256 31.8477 205.014 30.8867C203.771 29.918 202.822 28.5156 202.166 26.6797C201.51 24.8359 201.182 22.6094 201.182 20C201.182 17.4062 201.51 15.1914 202.166 13.3555C202.83 11.5117 203.783 10.1055 205.025 9.13672C206.275 8.16016 207.775 7.67187 209.525 7.67187C211.275 7.67187 212.771 8.16016 214.014 9.13672C215.264 10.1055 216.217 11.5117 216.873 13.3555C217.537 15.1914 217.869 17.4062 217.869 20C217.869 22.6094 217.541 24.8359 216.885 26.6797C216.229 28.5156 215.279 29.918 214.037 30.8867C212.795 31.8477 211.291 32.3281 209.525 32.3281ZM209.525 29.75C211.275 29.75 212.635 28.9062 213.604 27.2187C214.572 25.5312 215.057 23.125 215.057 20C215.057 17.9219 214.834 16.1523 214.389 14.6914C213.951 13.2305 213.318 12.1172 212.49 11.3516C211.67 10.5859 210.682 10.2031 209.525 10.2031C207.791 10.2031 206.436 11.0586 205.459 12.7695C204.482 14.4727 203.994 16.8828 203.994 20C203.994 22.0781 204.213 23.8437 204.65 25.2969C205.088 26.75 205.717 27.8555 206.537 28.6133C207.365 29.3711 208.361 29.75 209.525 29.75ZM230.15 32.3281C228.385 32.3281 226.881 31.8477 225.639 30.8867C224.396 29.918 223.447 28.5156 222.791 26.6797C222.135 24.8359 221.807 22.6094 221.807 20C221.807 17.4062 222.135 15.1914 222.791 13.3555C223.455 11.5117 224.408 10.1055 225.65 9.13672C226.9 8.16016 228.4 7.67187 230.15 7.67187C231.9 7.67187 233.396 8.16016 234.639 9.13672C235.889 10.1055 236.842 11.5117 237.498 13.3555C238.162 15.1914 238.494 17.4062 238.494 20C238.494 22.6094 238.166 24.8359 237.51 26.6797C236.854 28.5156 235.904 29.918 234.662 30.8867C233.42 31.8477 231.916 32.3281 230.15 32.3281ZM230.15 29.75C231.9 29.75 233.26 28.9062 234.229 27.2187C235.197 25.5312 235.682 23.125 235.682 20C235.682 17.9219 235.459 16.1523 235.014 14.6914C234.576 13.2305 233.943 12.1172 233.115 11.3516C232.295 10.5859 231.307 10.2031 230.15 10.2031C228.416 10.2031 227.061 11.0586 226.084 12.7695C225.107 14.4727 224.619 16.8828 224.619 20C224.619 22.0781 224.838 23.8437 225.275 25.2969C225.713 26.75 226.342 27.8555 227.162 28.6133C227.99 29.3711 228.986 29.75 230.15 29.75Z" fill="#999999"/>
<path d="M366.492 32.3281C364.727 32.3281 363.223 31.8477 361.98 30.8867C360.738 29.918 359.789 28.5156 359.133 26.6797C358.477 24.8359 358.148 22.6094 358.148 20C358.148 17.4062 358.477 15.1914 359.133 13.3555C359.797 11.5117 360.75 10.1055 361.992 9.13672C363.242 8.16016 364.742 7.67187 366.492 7.67187C368.242 7.67187 369.738 8.16016 370.98 9.13672C372.23 10.1055 373.184 11.5117 373.84 13.3555C374.504 15.1914 374.836 17.4062 374.836 20C374.836 22.6094 374.508 24.8359 373.852 26.6797C373.195 28.5156 372.246 29.918 371.004 30.8867C369.762 31.8477 368.258 32.3281 366.492 32.3281ZM366.492 29.75C368.242 29.75 369.602 28.9062 370.57 27.2187C371.539 25.5312 372.023 23.125 372.023 20C372.023 17.9219 371.801 16.1523 371.355 14.6914C370.918 13.2305 370.285 12.1172 369.457 11.3516C368.637 10.5859 367.648 10.2031 366.492 10.2031C364.758 10.2031 363.402 11.0586 362.426 12.7695C361.449 14.4727 360.961 16.8828 360.961 20C360.961 22.0781 361.18 23.8437 361.617 25.2969C362.055 26.75 362.684 27.8555 363.504 28.6133C364.332 29.3711 365.328 29.75 366.492 29.75ZM387.117 32.3281C385.352 32.3281 383.848 31.8477 382.605 30.8867C381.363 29.918 380.414 28.5156 379.758 26.6797C379.102 24.8359 378.773 22.6094 378.773 20C378.773 17.4062 379.102 15.1914 379.758 13.3555C380.422 11.5117 381.375 10.1055 382.617 9.13672C383.867 8.16016 385.367 7.67187 387.117 7.67187C388.867 7.67187 390.363 8.16016 391.605 9.13672C392.855 10.1055 393.809 11.5117 394.465 13.3555C395.129 15.1914 395.461 17.4062 395.461 20C395.461 22.6094 395.133 24.8359 394.477 26.6797C393.82 28.5156 392.871 29.918 391.629 30.8867C390.387 31.8477 388.883 32.3281 387.117 32.3281ZM387.117 29.75C388.867 29.75 390.227 28.9062 391.195 27.2187C392.164 25.5312 392.648 23.125 392.648 20C392.648 17.9219 392.426 16.1523 391.98 14.6914C391.543 13.2305 390.91 12.1172 390.082 11.3516C389.262 10.5859 388.273 10.2031 387.117 10.2031C385.383 10.2031 384.027 11.0586 383.051 12.7695C382.074 14.4727 381.586 16.8828 381.586 20C381.586 22.0781 381.805 23.8437 382.242 25.2969C382.68 26.75 383.309 27.8555 384.129 28.6133C384.957 29.3711 385.953 29.75 387.117 29.75ZM401.977 28.9297C401.398 28.9297 400.902 28.7227 400.488 28.3086C400.074 27.8945 399.867 27.3984 399.867 26.8203C399.867 26.2422 400.074 25.7461 400.488 25.332C400.902 24.918 401.398 24.7109 401.977 24.7109C402.555 24.7109 403.051 24.918 403.465 25.332C403.879 25.7461 404.086 26.2422 404.086 26.8203C404.086 27.2031 403.988 27.5547 403.793 27.875C403.605 28.1953 403.352 28.4531 403.031 28.6484C402.719 28.8359 402.367 28.9297 401.977 28.9297ZM401.977 16.7891C401.398 16.7891 400.902 16.582 400.488 16.168C400.074 15.7539 399.867 15.2578 399.867 14.6797C399.867 14.1016 400.074 13.6055 400.488 13.1914C400.902 12.7773 401.398 12.5703 401.977 12.5703C402.555 12.5703 403.051 12.7773 403.465 13.1914C403.879 13.6055 404.086 14.1016 404.086 14.6797C404.086 15.0625 403.988 15.4141 403.793 15.7344C403.605 16.0547 403.352 16.3125 403.031 16.5078C402.719 16.6953 402.367 16.7891 401.977 16.7891ZM416.83 32.3281C415.064 32.3281 413.561 31.8477 412.318 30.8867C411.076 29.918 410.127 28.5156 409.471 26.6797C408.814 24.8359 408.486 22.6094 408.486 20C408.486 17.4062 408.814 15.1914 409.471 13.3555C410.135 11.5117 411.088 10.1055 412.33 9.13672C413.58 8.16016 415.08 7.67187 416.83 7.67187C418.58 7.67187 420.076 8.16016 421.318 9.13672C422.568 10.1055 423.521 11.5117 424.178 13.3555C424.842 15.1914 425.174 17.4062 425.174 20C425.174 22.6094 424.846 24.8359 424.189 26.6797C423.533 28.5156 422.584 29.918 421.342 30.8867C420.1 31.8477 418.596 32.3281 416.83 32.3281ZM416.83 29.75C418.58 29.75 419.939 28.9062 420.908 27.2187C421.877 25.5312 422.361 23.125 422.361 20C422.361 17.9219 422.139 16.1523 421.693 14.6914C421.256 13.2305 420.623 12.1172 419.795 11.3516C418.975 10.5859 417.986 10.2031 416.83 10.2031C415.096 10.2031 413.74 11.0586 412.764 12.7695C411.787 14.4727 411.299 16.8828 411.299 20C411.299 22.0781 411.518 23.8437 411.955 25.2969C412.393 26.75 413.021 27.8555 413.842 28.6133C414.67 29.3711 415.666 29.75 416.83 29.75ZM438.064 8V32H435.158V11.0469H435.018L429.158 14.9375V11.9844L435.158 8H438.064ZM447.029 28.9297C446.451 28.9297 445.955 28.7227 445.541 28.3086C445.127 27.8945 444.92 27.3984 444.92 26.8203C444.92 26.2422 445.127 25.7461 445.541 25.332C445.955 24.918 446.451 24.7109 447.029 24.7109C447.607 24.7109 448.104 24.918 448.518 25.332C448.932 25.7461 449.139 26.2422 449.139 26.8203C449.139 27.2031 449.041 27.5547 448.846 27.875C448.658 28.1953 448.404 28.4531 448.084 28.6484C447.771 28.8359 447.42 28.9297 447.029 28.9297ZM447.029 16.7891C446.451 16.7891 445.955 16.582 445.541 16.168C445.127 15.7539 444.92 15.2578 444.92 14.6797C444.92 14.1016 445.127 13.6055 445.541 13.1914C445.955 12.7773 446.451 12.5703 447.029 12.5703C447.607 12.5703 448.104 12.7773 448.518 13.1914C448.932 13.6055 449.139 14.1016 449.139 14.6797C449.139 15.0625 449.041 15.4141 448.846 15.7344C448.658 16.0547 448.404 16.3125 448.084 16.5078C447.771 16.6953 447.42 16.7891 447.029 16.7891ZM461.883 32.3281C460.117 32.3281 458.613 31.8477 457.371 30.8867C456.129 29.918 455.18 28.5156 454.523 26.6797C453.867 24.8359 453.539 22.6094 453.539 20C453.539 17.4062 453.867 15.1914 454.523 13.3555C455.188 11.5117 456.141 10.1055 457.383 9.13672C458.633 8.16016 460.133 7.67187 461.883 7.67187C463.633 7.67187 465.129 8.16016 466.371 9.13672C467.621 10.1055 468.574 11.5117 469.23 13.3555C469.895 15.1914 470.227 17.4062 470.227 20C470.227 22.6094 469.898 24.8359 469.242 26.6797C468.586 28.5156 467.637 29.918 466.395 30.8867C465.152 31.8477 463.648 32.3281 461.883 32.3281ZM461.883 29.75C463.633 29.75 464.992 28.9062 465.961 27.2187C466.93 25.5312 467.414 23.125 467.414 20C467.414 17.9219 467.191 16.1523 466.746 14.6914C466.309 13.2305 465.676 12.1172 464.848 11.3516C464.027 10.5859 463.039 10.2031 461.883 10.2031C460.148 10.2031 458.793 11.0586 457.816 12.7695C456.84 14.4727 456.352 16.8828 456.352 20C456.352 22.0781 456.57 23.8437 457.008 25.2969C457.445 26.75 458.074 27.8555 458.895 28.6133C459.723 29.3711 460.719 29.75 461.883 29.75ZM482.508 32.3281C480.742 32.3281 479.238 31.8477 477.996 30.8867C476.754 29.918 475.805 28.5156 475.148 26.6797C474.492 24.8359 474.164 22.6094 474.164 20C474.164 17.4062 474.492 15.1914 475.148 13.3555C475.813 11.5117 476.766 10.1055 478.008 9.13672C479.258 8.16016 480.758 7.67187 482.508 7.67187C484.258 7.67187 485.754 8.16016 486.996 9.13672C488.246 10.1055 489.199 11.5117 489.855 13.3555C490.52 15.1914 490.852 17.4062 490.852 20C490.852 22.6094 490.523 24.8359 489.867 26.6797C489.211 28.5156 488.262 29.918 487.02 30.8867C485.777 31.8477 484.273 32.3281 482.508 32.3281ZM482.508 29.75C484.258 29.75 485.617 28.9062 486.586 27.2187C487.555 25.5312 488.039 23.125 488.039 20C488.039 17.9219 487.816 16.1523 487.371 14.6914C486.934 13.2305 486.301 12.1172 485.473 11.3516C484.652 10.5859 483.664 10.2031 482.508 10.2031C480.773 10.2031 479.418 11.0586 478.441 12.7695C477.465 14.4727 476.977 16.8828 476.977 20C476.977 22.0781 477.195 23.8437 477.633 25.2969C478.07 26.75 478.699 27.8555 479.52 28.6133C480.348 29.3711 481.344 29.75 482.508 29.75Z" fill="#999999"/>
<path d="M606.172 32.3281C604.406 32.3281 602.902 31.8477 601.66 30.8867C600.418 29.918 599.469 28.5156 598.813 26.6797C598.156 24.8359 597.828 22.6094 597.828 20C597.828 17.4062 598.156 15.1914 598.813 13.3555C599.477 11.5117 600.43 10.1055 601.672 9.13672C602.922 8.16016 604.422 7.67187 606.172 7.67187C607.922 7.67187 609.418 8.16016 610.66 9.13672C611.91 10.1055 612.863 11.5117 613.52 13.3555C614.184 15.1914 614.516 17.4062 614.516 20C614.516 22.6094 614.188 24.8359 613.531 26.6797C612.875 28.5156 611.926 29.918 610.684 30.8867C609.441 31.8477 607.938 32.3281 606.172 32.3281ZM606.172 29.75C607.922 29.75 609.281 28.9062 610.25 27.2187C611.219 25.5312 611.703 23.125 611.703 20C611.703 17.9219 611.48 16.1523 611.035 14.6914C610.598 13.2305 609.965 12.1172 609.137 11.3516C608.316 10.5859 607.328 10.2031 606.172 10.2031C604.438 10.2031 603.082 11.0586 602.105 12.7695C601.129 14.4727 600.641 16.8828 600.641 20C600.641 22.0781 600.859 23.8437 601.297 25.2969C601.734 26.75 602.363 27.8555 603.184 28.6133C604.012 29.3711 605.008 29.75 606.172 29.75ZM626.797 32.3281C625.031 32.3281 623.527 31.8477 622.285 30.8867C621.043 29.918 620.094 28.5156 619.438 26.6797C618.781 24.8359 618.453 22.6094 618.453 20C618.453 17.4062 618.781 15.1914 619.438 13.3555C620.102 11.5117 621.055 10.1055 622.297 9.13672C623.547 8.16016 625.047 7.67187 626.797 7.67187C628.547 7.67187 630.043 8.16016 631.285 9.13672C632.535 10.1055 633.488 11.5117 634.145 13.3555C634.809 15.1914 635.141 17.4062 635.141 20C635.141 22.6094 634.813 24.8359 634.156 26.6797C633.5 28.5156 632.551 29.918 631.309 30.8867C630.066 31.8477 628.563 32.3281 626.797 32.3281ZM626.797 29.75C628.547 29.75 629.906 28.9062 630.875 27.2187C631.844 25.5312 632.328 23.125 632.328 20C632.328 17.9219 632.105 16.1523 631.66 14.6914C631.223 13.2305 630.59 12.1172 629.762 11.3516C628.941 10.5859 627.953 10.2031 626.797 10.2031C625.063 10.2031 623.707 11.0586 622.73 12.7695C621.754 14.4727 621.266 16.8828 621.266 20C621.266 22.0781 621.484 23.8437 621.922 25.2969C622.359 26.75 622.988 27.8555 623.809 28.6133C624.637 29.3711 625.633 29.75 626.797 29.75ZM641.656 28.9297C641.078 28.9297 640.582 28.7227 640.168 28.3086C639.754 27.8945 639.547 27.3984 639.547 26.8203C639.547 26.2422 639.754 25.7461 640.168 25.332C640.582 24.918 641.078 24.7109 641.656 24.7109C642.234 24.7109 642.73 24.918 643.145 25.332C643.559 25.7461 643.766 26.2422 643.766 26.8203C643.766 27.2031 643.668 27.5547 643.473 27.875C643.285 28.1953 643.031 28.4531 642.711 28.6484C642.398 28.8359 642.047 28.9297 641.656 28.9297ZM641.656 16.7891C641.078 16.7891 640.582 16.582 640.168 16.168C639.754 15.7539 639.547 15.2578 639.547 14.6797C639.547 14.1016 639.754 13.6055 640.168 13.1914C640.582 12.7773 641.078 12.5703 641.656 12.5703C642.234 12.5703 642.73 12.7773 643.145 13.1914C643.559 13.6055 643.766 14.1016 643.766 14.6797C643.766 15.0625 643.668 15.4141 643.473 15.7344C643.285 16.0547 643.031 16.3125 642.711 16.5078C642.398 16.6953 642.047 16.7891 641.656 16.7891ZM656.51 32.3281C654.744 32.3281 653.24 31.8477 651.998 30.8867C650.756 29.918 649.807 28.5156 649.15 26.6797C648.494 24.8359 648.166 22.6094 648.166 20C648.166 17.4062 648.494 15.1914 649.15 13.3555C649.814 11.5117 650.768 10.1055 652.01 9.13672C653.26 8.16016 654.76 7.67187 656.51 7.67187C658.26 7.67187 659.756 8.16016 660.998 9.13672C662.248 10.1055 663.201 11.5117 663.857 13.3555C664.521 15.1914 664.854 17.4062 664.854 20C664.854 22.6094 664.525 24.8359 663.869 26.6797C663.213 28.5156 662.264 29.918 661.021 30.8867C659.779 31.8477 658.275 32.3281 656.51 32.3281ZM656.51 29.75C658.26 29.75 659.619 28.9062 660.588 27.2187C661.557 25.5312 662.041 23.125 662.041 20C662.041 17.9219 661.818 16.1523 661.373 14.6914C660.936 13.2305 660.303 12.1172 659.475 11.3516C658.654 10.5859 657.666 10.2031 656.51 10.2031C654.775 10.2031 653.42 11.0586 652.443 12.7695C651.467 14.4727 650.979 16.8828 650.979 20C650.979 22.0781 651.197 23.8437 651.635 25.2969C652.072 26.75 652.701 27.8555 653.521 28.6133C654.35 29.3711 655.346 29.75 656.51 29.75ZM669.307 32V29.8906L677.229 21.2187C678.158 20.2031 678.924 19.3203 679.525 18.5703C680.127 17.8125 680.572 17.1016 680.861 16.4375C681.158 15.7656 681.307 15.0625 681.307 14.3281C681.307 13.4844 681.104 12.7539 680.697 12.1367C680.299 11.5195 679.752 11.043 679.057 10.707C678.361 10.3711 677.58 10.2031 676.713 10.2031C675.791 10.2031 674.986 10.3945 674.299 10.7773C673.619 11.1523 673.092 11.6797 672.717 12.3594C672.35 13.0391 672.166 13.8359 672.166 14.75H669.4C669.4 13.3437 669.725 12.1094 670.373 11.0469C671.021 9.98437 671.904 9.15625 673.021 8.5625C674.146 7.96875 675.408 7.67187 676.807 7.67187C678.213 7.67187 679.459 7.96875 680.545 8.5625C681.631 9.15625 682.482 9.95703 683.1 10.9648C683.717 11.9727 684.025 13.0938 684.025 14.3281C684.025 15.2109 683.865 16.0742 683.545 16.918C683.232 17.7539 682.686 18.6875 681.904 19.7187C681.131 20.7422 680.057 21.9922 678.682 23.4687L673.291 29.2344V29.4219H684.447V32H669.307ZM691.35 28.9297C690.771 28.9297 690.275 28.7227 689.861 28.3086C689.447 27.8945 689.24 27.3984 689.24 26.8203C689.24 26.2422 689.447 25.7461 689.861 25.332C690.275 24.918 690.771 24.7109 691.35 24.7109C691.928 24.7109 692.424 24.918 692.838 25.332C693.252 25.7461 693.459 26.2422 693.459 26.8203C693.459 27.2031 693.361 27.5547 693.166 27.875C692.979 28.1953 692.725 28.4531 692.404 28.6484C692.092 28.8359 691.74 28.9297 691.35 28.9297ZM691.35 16.7891C690.771 16.7891 690.275 16.582 689.861 16.168C689.447 15.7539 689.24 15.2578 689.24 14.6797C689.24 14.1016 689.447 13.6055 689.861 13.1914C690.275 12.7773 690.771 12.5703 691.35 12.5703C691.928 12.5703 692.424 12.7773 692.838 13.1914C693.252 13.6055 693.459 14.1016 693.459 14.6797C693.459 15.0625 693.361 15.4141 693.166 15.7344C692.979 16.0547 692.725 16.3125 692.404 16.5078C692.092 16.6953 691.74 16.7891 691.35 16.7891ZM706.203 32.3281C704.438 32.3281 702.934 31.8477 701.691 30.8867C700.449 29.918 699.5 28.5156 698.844 26.6797C698.188 24.8359 697.859 22.6094 697.859 20C697.859 17.4062 698.188 15.1914 698.844 13.3555C699.508 11.5117 700.461 10.1055 701.703 9.13672C702.953 8.16016 704.453 7.67187 706.203 7.67187C707.953 7.67187 709.449 8.16016 710.691 9.13672C711.941 10.1055 712.895 11.5117 713.551 13.3555C714.215 15.1914 714.547 17.4062 714.547 20C714.547 22.6094 714.219 24.8359 713.563 26.6797C712.906 28.5156 711.957 29.918 710.715 30.8867C709.473 31.8477 707.969 32.3281 706.203 32.3281ZM706.203 29.75C707.953 29.75 709.313 28.9062 710.281 27.2187C711.25 25.5312 711.734 23.125 711.734 20C711.734 17.9219 711.512 16.1523 711.066 14.6914C710.629 13.2305 709.996 12.1172 709.168 11.3516C708.348 10.5859 707.359 10.2031 706.203 10.2031C704.469 10.2031 703.113 11.0586 702.137 12.7695C701.16 14.4727 700.672 16.8828 700.672 20C700.672 22.0781 700.891 23.8437 701.328 25.2969C701.766 26.75 702.395 27.8555 703.215 28.6133C704.043 29.3711 705.039 29.75 706.203 29.75ZM726.828 32.3281C725.063 32.3281 723.559 31.8477 722.316 30.8867C721.074 29.918 720.125 28.5156 719.469 26.6797C718.813 24.8359 718.484 22.6094 718.484 20C718.484 17.4062 718.813 15.1914 719.469 13.3555C720.133 11.5117 721.086 10.1055 722.328 9.13672C723.578 8.16016 725.078 7.67187 726.828 7.67187C728.578 7.67187 730.074 8.16016 731.316 9.13672C732.566 10.1055 733.52 11.5117 734.176 13.3555C734.84 15.1914 735.172 17.4062 735.172 20C735.172 22.6094 734.844 24.8359 734.188 26.6797C733.531 28.5156 732.582 29.918 731.34 30.8867C730.098 31.8477 728.594 32.3281 726.828 32.3281ZM726.828 29.75C728.578 29.75 729.938 28.9062 730.906 27.2187C731.875 25.5312 732.359 23.125 732.359 20C732.359 17.9219 732.137 16.1523 731.691 14.6914C731.254 13.2305 730.621 12.1172 729.793 11.3516C728.973 10.5859 727.984 10.2031 726.828 10.2031C725.094 10.2031 723.738 11.0586 722.762 12.7695C721.785 14.4727 721.297 16.8828 721.297 20C721.297 22.0781 721.516 23.8437 721.953 25.2969C722.391 26.75 723.02 27.8555 723.84 28.6133C724.668 29.3711 725.664 29.75 726.828 29.75Z" fill="#999999"/>
<line x1="427.265" y1="46.8038" x2="427.265" y2="75.4901" stroke="#999999" stroke-width="3"/>
<line x1="668.833" y1="46.8038" x2="668.833" y2="75.4901" stroke="#999999" stroke-width="3"/>
<line x1="170.598" y1="46.8039" x2="170.598" y2="385" stroke="#999999" stroke-width="3"/>
<rect x="171.108" y="85.049" width="190.745" height="60.902" fill="#A6DEAB" stroke="black"/>
<rect x="171.108" y="184.696" width="190.745" height="60.902" fill="#A6C6DE" stroke="black"/>
<rect x="430.5" y="184.5" width="85" height="61" fill="#A6C6DE" stroke="black"/>
<rect x="171.108" y="284.5" width="127.333" height="60.902" fill="#DEA6CE" stroke="black"/>
<rect x="297.5" y="284.5" width="64" height="61" fill="#DEA6CE" stroke="black"/>
<rect x="430.5" y="284.5" width="85" height="61" fill="#DEA6CE" stroke="black"/>
<rect x="515.343" y="284.343" width="190.745" height="60.902" fill="#DEA6CE" stroke="black"/>
<rect x="430.794" y="85.049" width="85.0588" height="60.902" fill="#A6DEAB" stroke="black"/>
<rect x="515.853" y="85.0491" width="189.235" height="60.902" fill="#A6DEAB" stroke="black"/>
<path d="M249.107 103.608V127.608H246.201V106.655H246.061L240.201 110.545V107.592L246.201 103.608H249.107ZM263.838 127.936C262.072 127.936 260.568 127.455 259.326 126.495C258.084 125.526 257.135 124.123 256.478 122.287C255.822 120.444 255.494 118.217 255.494 115.608C255.494 113.014 255.822 110.799 256.478 108.963C257.143 107.12 258.096 105.713 259.338 104.745C260.588 103.768 262.088 103.28 263.838 103.28C265.588 103.28 267.084 103.768 268.326 104.745C269.576 105.713 270.529 107.12 271.186 108.963C271.85 110.799 272.182 113.014 272.182 115.608C272.182 118.217 271.853 120.444 271.197 122.287C270.541 124.123 269.592 125.526 268.35 126.495C267.107 127.455 265.603 127.936 263.838 127.936ZM263.838 125.358C265.588 125.358 266.947 124.514 267.916 122.827C268.885 121.139 269.369 118.733 269.369 115.608C269.369 113.53 269.146 111.76 268.701 110.299C268.264 108.838 267.631 107.725 266.803 106.959C265.982 106.194 264.994 105.811 263.838 105.811C262.103 105.811 260.748 106.666 259.771 108.377C258.795 110.08 258.307 112.491 258.307 115.608C258.307 117.686 258.525 119.452 258.963 120.905C259.4 122.358 260.029 123.463 260.85 124.221C261.678 124.979 262.674 125.358 263.838 125.358ZM284.463 127.936C282.697 127.936 281.193 127.455 279.951 126.495C278.709 125.526 277.76 124.123 277.103 122.287C276.447 120.444 276.119 118.217 276.119 115.608C276.119 113.014 276.447 110.799 277.103 108.963C277.768 107.12 278.721 105.713 279.963 104.745C281.213 103.768 282.713 103.28 284.463 103.28C286.213 103.28 287.709 103.768 288.951 104.745C290.201 105.713 291.154 107.12 291.811 108.963C292.475 110.799 292.807 113.014 292.807 115.608C292.807 118.217 292.478 120.444 291.822 122.287C291.166 124.123 290.217 125.526 288.975 126.495C287.732 127.455 286.228 127.936 284.463 127.936ZM284.463 125.358C286.213 125.358 287.572 124.514 288.541 122.827C289.51 121.139 289.994 118.733 289.994 115.608C289.994 113.53 289.771 111.76 289.326 110.299C288.889 108.838 288.256 107.725 287.428 106.959C286.607 106.194 285.619 105.811 284.463 105.811C282.728 105.811 281.373 106.666 280.396 108.377C279.42 110.08 278.932 112.491 278.932 115.608C278.932 117.686 279.15 119.452 279.588 120.905C280.025 122.358 280.654 123.463 281.475 124.221C282.303 124.979 283.299 125.358 284.463 125.358Z" fill="black"/>
<path d="M462.957 127.936C461.582 127.936 460.344 127.662 459.242 127.116C458.14 126.569 457.258 125.819 456.594 124.866C455.93 123.912 455.566 122.827 455.504 121.608H458.316C458.426 122.694 458.918 123.592 459.793 124.303C460.676 125.006 461.73 125.358 462.957 125.358C463.941 125.358 464.816 125.127 465.582 124.666C466.355 124.205 466.961 123.573 467.398 122.768C467.844 121.955 468.066 121.037 468.066 120.014C468.066 118.967 467.836 118.034 467.375 117.213C466.922 116.385 466.297 115.733 465.5 115.256C464.703 114.78 463.793 114.537 462.769 114.53C462.035 114.522 461.281 114.635 460.508 114.87C459.734 115.096 459.098 115.389 458.598 115.748L455.879 115.42L457.332 103.608H469.801V106.186H459.769L458.926 113.264H459.066C459.558 112.873 460.176 112.549 460.918 112.291C461.66 112.034 462.433 111.905 463.238 111.905C464.707 111.905 466.015 112.256 467.164 112.959C468.32 113.655 469.226 114.608 469.883 115.819C470.547 117.03 470.879 118.412 470.879 119.967C470.879 121.498 470.535 122.866 469.848 124.069C469.168 125.264 468.23 126.209 467.035 126.905C465.84 127.592 464.48 127.936 462.957 127.936ZM483.362 127.936C481.597 127.936 480.093 127.455 478.85 126.495C477.608 125.526 476.659 124.123 476.003 122.287C475.347 120.444 475.018 118.217 475.018 115.608C475.018 113.014 475.347 110.799 476.003 108.963C476.667 107.12 477.62 105.713 478.862 104.745C480.112 103.768 481.612 103.28 483.362 103.28C485.112 103.28 486.608 103.768 487.85 104.745C489.1 105.713 490.054 107.12 490.71 108.963C491.374 110.799 491.706 113.014 491.706 115.608C491.706 118.217 491.378 120.444 490.722 122.287C490.065 124.123 489.116 125.526 487.874 126.495C486.632 127.455 485.128 127.936 483.362 127.936ZM483.362 125.358C485.112 125.358 486.472 124.514 487.44 122.827C488.409 121.139 488.893 118.733 488.893 115.608C488.893 113.53 488.671 111.76 488.225 110.299C487.788 108.838 487.155 107.725 486.327 106.959C485.507 106.194 484.518 105.811 483.362 105.811C481.628 105.811 480.272 106.666 479.296 108.377C478.319 110.08 477.831 112.491 477.831 115.608C477.831 117.686 478.05 119.452 478.487 120.905C478.925 122.358 479.554 123.463 480.374 124.221C481.202 124.979 482.198 125.358 483.362 125.358Z" fill="black"/>
<path d="M595.224 127.608L605.958 106.373V106.186H593.583V103.608H608.958V106.327L598.271 127.608H595.224ZM620.639 127.936C618.873 127.936 617.369 127.455 616.127 126.495C614.885 125.526 613.936 124.123 613.28 122.287C612.623 120.444 612.295 118.217 612.295 115.608C612.295 113.014 612.623 110.799 613.28 108.963C613.944 107.12 614.897 105.713 616.139 104.745C617.389 103.768 618.889 103.28 620.639 103.28C622.389 103.28 623.885 103.768 625.127 104.745C626.377 105.713 627.33 107.12 627.987 108.963C628.651 110.799 628.983 113.014 628.983 115.608C628.983 118.217 628.655 120.444 627.998 122.287C627.342 124.123 626.393 125.526 625.151 126.495C623.909 127.455 622.405 127.936 620.639 127.936ZM620.639 125.358C622.389 125.358 623.748 124.514 624.717 122.827C625.686 121.139 626.17 118.733 626.17 115.608C626.17 113.53 625.948 111.76 625.502 110.299C625.065 108.838 624.432 107.725 623.604 106.959C622.784 106.194 621.795 105.811 620.639 105.811C618.905 105.811 617.549 106.666 616.573 108.377C615.596 110.08 615.108 112.491 615.108 115.608C615.108 117.686 615.327 119.452 615.764 120.905C616.202 122.358 616.83 123.463 617.651 124.221C618.479 124.979 619.475 125.358 620.639 125.358Z" fill="black"/>
<path d="M84.5996 127.608V103.608H87.3652V112.467H87.5996C87.8027 112.155 88.0839 111.756 88.4433 111.272C88.8105 110.78 89.3339 110.342 90.0136 109.959C90.7011 109.569 91.6308 109.373 92.8027 109.373C94.3183 109.373 95.6543 109.752 96.8105 110.51C97.9668 111.268 98.8691 112.342 99.5175 113.733C100.166 115.123 100.49 116.764 100.49 118.655C100.49 120.561 100.166 122.213 99.5175 123.612C98.8691 125.002 97.9707 126.08 96.8222 126.846C95.6738 127.604 94.3496 127.983 92.8496 127.983C91.6933 127.983 90.7675 127.791 90.0722 127.409C89.3769 127.018 88.8418 126.577 88.4668 126.084C88.0918 125.584 87.8027 125.17 87.5996 124.842H87.2714V127.608H84.5996ZM87.3183 118.608C87.3183 119.967 87.5175 121.166 87.916 122.205C88.3144 123.237 88.8964 124.045 89.6621 124.631C90.4277 125.209 91.3652 125.498 92.4746 125.498C93.6308 125.498 94.5957 125.194 95.3691 124.584C96.1503 123.967 96.7363 123.139 97.1269 122.1C97.5253 121.053 97.7246 119.889 97.7246 118.608C97.7246 117.342 97.5293 116.202 97.1386 115.186C96.7558 114.162 96.1738 113.354 95.3925 112.76C94.6191 112.159 93.6464 111.858 92.4746 111.858C91.3496 111.858 90.4043 112.143 89.6386 112.713C88.873 113.276 88.2949 114.065 87.9043 115.08C87.5136 116.088 87.3183 117.264 87.3183 118.608ZM104.721 134.358V109.608H107.393V112.467H107.721C107.924 112.155 108.205 111.756 108.564 111.272C108.932 110.78 109.455 110.342 110.135 109.959C110.822 109.569 111.752 109.373 112.924 109.373C114.439 109.373 115.775 109.752 116.932 110.51C118.088 111.268 118.99 112.342 119.639 113.733C120.287 115.123 120.611 116.764 120.611 118.655C120.611 120.561 120.287 122.213 119.639 123.612C118.99 125.002 118.092 126.08 116.943 126.846C115.795 127.604 114.471 127.983 112.971 127.983C111.814 127.983 110.889 127.791 110.193 127.409C109.498 127.018 108.963 126.577 108.588 126.084C108.213 125.584 107.924 125.17 107.721 124.842H107.486V134.358H104.721ZM107.439 118.608C107.439 119.967 107.639 121.166 108.037 122.205C108.436 123.237 109.018 124.045 109.783 124.631C110.549 125.209 111.486 125.498 112.596 125.498C113.752 125.498 114.717 125.194 115.49 124.584C116.271 123.967 116.857 123.139 117.248 122.1C117.646 121.053 117.846 119.889 117.846 118.608C117.846 117.342 117.65 116.202 117.26 115.186C116.877 114.162 116.295 113.354 115.514 112.76C114.74 112.159 113.768 111.858 112.596 111.858C111.471 111.858 110.525 112.143 109.76 112.713C108.994 113.276 108.416 114.065 108.025 115.08C107.635 116.088 107.439 117.264 107.439 118.608ZM124.83 127.608V109.608H127.502V112.42H127.736C128.111 111.459 128.717 110.713 129.553 110.182C130.389 109.643 131.393 109.373 132.564 109.373C133.752 109.373 134.74 109.643 135.529 110.182C136.326 110.713 136.947 111.459 137.393 112.42H137.58C138.041 111.491 138.732 110.752 139.654 110.205C140.576 109.651 141.682 109.373 142.971 109.373C144.58 109.373 145.896 109.877 146.92 110.885C147.943 111.885 148.455 113.444 148.455 115.561V127.608H145.689V115.561C145.689 114.233 145.326 113.284 144.6 112.713C143.873 112.143 143.018 111.858 142.033 111.858C140.768 111.858 139.787 112.241 139.092 113.006C138.396 113.764 138.049 114.725 138.049 115.889V127.608H135.236V115.28C135.236 114.256 134.904 113.432 134.24 112.807C133.576 112.174 132.721 111.858 131.674 111.858C130.955 111.858 130.283 112.049 129.658 112.432C129.041 112.815 128.541 113.346 128.158 114.026C127.783 114.698 127.596 115.475 127.596 116.358V127.608H124.83Z" fill="black"/>
<path d="M28.5986 228.63C27.0986 228.63 25.7743 228.251 24.6259 227.493C23.4775 226.728 22.579 225.649 21.9306 224.259C21.2822 222.86 20.9579 221.208 20.9579 219.302C20.9579 217.411 21.2822 215.771 21.9306 214.38C22.579 212.989 23.4814 211.915 24.6376 211.157C25.7939 210.399 27.1298 210.021 28.6454 210.021C29.8173 210.021 30.7431 210.216 31.4228 210.606C32.1103 210.989 32.6337 211.427 32.9931 211.919C33.3603 212.403 33.6454 212.802 33.8486 213.114H34.0829V204.255H36.8486V228.255H34.1767V225.489H33.8486C33.6454 225.817 33.3564 226.231 32.9814 226.731C32.6064 227.224 32.0712 227.665 31.3759 228.056C30.6806 228.438 29.7548 228.63 28.5986 228.63ZM28.9736 226.146C30.0829 226.146 31.0204 225.856 31.7861 225.278C32.5517 224.692 33.1337 223.884 33.5322 222.853C33.9306 221.813 34.1298 220.614 34.1298 219.255C34.1298 217.911 33.9345 216.735 33.5439 215.728C33.1532 214.712 32.5751 213.923 31.8095 213.36C31.0439 212.79 30.0986 212.505 28.9736 212.505C27.8017 212.505 26.8251 212.806 26.0439 213.407C25.2704 214.001 24.6884 214.81 24.2978 215.833C23.915 216.849 23.7236 217.989 23.7236 219.255C23.7236 220.536 23.9189 221.7 24.3095 222.747C24.7079 223.786 25.2939 224.614 26.0673 225.231C26.8486 225.841 27.8173 226.146 28.9736 226.146ZM44.079 235.005C43.6103 235.005 43.1923 234.966 42.8251 234.888C42.4579 234.817 42.204 234.747 42.0634 234.677L42.7665 232.239C43.4384 232.411 44.0322 232.474 44.5478 232.427C45.0634 232.38 45.5204 232.149 45.9189 231.735C46.3251 231.329 46.6962 230.669 47.0322 229.755L47.5478 228.349L40.8915 210.255H43.8915L48.8603 224.599H49.0478L54.0165 210.255H57.0165L49.3759 230.88C49.0322 231.81 48.6064 232.579 48.0986 233.188C47.5907 233.806 47.0009 234.263 46.329 234.56C45.665 234.856 44.915 235.005 44.079 235.005ZM63.4325 217.427V228.255H60.6669V210.255H63.3388V213.067H63.5732C63.995 212.153 64.6357 211.419 65.495 210.864C66.3544 210.302 67.4638 210.021 68.8232 210.021C70.0419 210.021 71.1083 210.271 72.0224 210.771C72.9364 211.263 73.6474 212.013 74.1552 213.021C74.663 214.021 74.9169 215.286 74.9169 216.817V228.255H72.1513V217.005C72.1513 215.591 71.7841 214.489 71.0497 213.7C70.3154 212.903 69.3075 212.505 68.0263 212.505C67.1435 212.505 66.3544 212.696 65.6591 213.079C64.9716 213.462 64.4286 214.021 64.0302 214.755C63.6318 215.489 63.4325 216.38 63.4325 217.427ZM85.2675 228.677C84.1269 228.677 83.0917 228.462 82.162 228.032C81.2323 227.595 80.4941 226.966 79.9472 226.146C79.4003 225.317 79.1269 224.317 79.1269 223.146C79.1269 222.114 79.33 221.278 79.7363 220.638C80.1425 219.989 80.6855 219.481 81.3652 219.114C82.0448 218.747 82.7948 218.474 83.6152 218.294C84.4433 218.106 85.2753 217.958 86.1113 217.849C87.205 217.708 88.0917 217.603 88.7714 217.532C89.4589 217.454 89.9589 217.325 90.2714 217.146C90.5917 216.966 90.7519 216.653 90.7519 216.208V216.114C90.7519 214.958 90.4355 214.06 89.8027 213.419C89.1777 212.778 88.2284 212.458 86.955 212.458C85.6347 212.458 84.5995 212.747 83.8495 213.325C83.0995 213.903 82.5722 214.521 82.2675 215.177L79.6425 214.239C80.1113 213.146 80.7363 212.294 81.5175 211.685C82.3066 211.067 83.1659 210.638 84.0956 210.396C85.0331 210.146 85.955 210.021 86.8613 210.021C87.4394 210.021 88.1034 210.091 88.8534 210.231C89.6113 210.364 90.3417 210.642 91.0448 211.063C91.7558 211.485 92.3456 212.122 92.8144 212.974C93.2831 213.825 93.5175 214.966 93.5175 216.396V228.255H90.7519V225.817H90.6113C90.4238 226.208 90.1113 226.626 89.6738 227.071C89.2363 227.517 88.6542 227.896 87.9277 228.208C87.2011 228.521 86.3144 228.677 85.2675 228.677ZM85.6894 226.192C86.7831 226.192 87.705 225.978 88.455 225.548C89.2128 225.118 89.7831 224.563 90.1659 223.884C90.5566 223.204 90.7519 222.489 90.7519 221.739V219.208C90.6347 219.349 90.3769 219.478 89.9784 219.595C89.5878 219.704 89.1347 219.802 88.6191 219.888C88.1113 219.966 87.6152 220.036 87.1308 220.099C86.6542 220.153 86.2675 220.2 85.9706 220.239C85.2519 220.333 84.58 220.485 83.955 220.696C83.3378 220.899 82.8378 221.208 82.455 221.622C82.08 222.028 81.8925 222.583 81.8925 223.286C81.8925 224.247 82.248 224.974 82.9589 225.466C83.6777 225.95 84.5878 226.192 85.6894 226.192ZM98.5654 228.255V210.255H101.237V213.067H101.472C101.847 212.106 102.452 211.36 103.288 210.829C104.124 210.29 105.128 210.021 106.3 210.021C107.487 210.021 108.476 210.29 109.265 210.829C110.061 211.36 110.683 212.106 111.128 213.067H111.315C111.776 212.138 112.468 211.399 113.39 210.853C114.311 210.298 115.417 210.021 116.706 210.021C118.315 210.021 119.632 210.524 120.655 211.532C121.679 212.532 122.19 214.091 122.19 216.208V228.255H119.425V216.208C119.425 214.88 119.061 213.931 118.335 213.36C117.608 212.79 116.753 212.505 115.768 212.505C114.503 212.505 113.522 212.888 112.827 213.653C112.132 214.411 111.784 215.372 111.784 216.536V228.255H108.972V215.927C108.972 214.903 108.64 214.079 107.976 213.454C107.311 212.821 106.456 212.505 105.409 212.505C104.69 212.505 104.018 212.696 103.393 213.079C102.776 213.462 102.276 213.993 101.893 214.673C101.518 215.345 101.331 216.122 101.331 217.005V228.255H98.5654ZM127.247 228.255V210.255H130.013V228.255H127.247ZM128.653 207.255C128.114 207.255 127.649 207.071 127.259 206.704C126.876 206.337 126.684 205.896 126.684 205.38C126.684 204.864 126.876 204.423 127.259 204.056C127.649 203.688 128.114 203.505 128.653 203.505C129.192 203.505 129.653 203.688 130.036 204.056C130.427 204.423 130.622 204.864 130.622 205.38C130.622 205.896 130.427 206.337 130.036 206.704C129.653 207.071 129.192 207.255 128.653 207.255ZM142.391 228.63C140.703 228.63 139.25 228.231 138.031 227.435C136.812 226.638 135.875 225.54 135.219 224.142C134.562 222.743 134.234 221.146 134.234 219.349C134.234 217.521 134.57 215.907 135.242 214.509C135.922 213.103 136.867 212.005 138.078 211.216C139.297 210.419 140.719 210.021 142.344 210.021C143.609 210.021 144.75 210.255 145.766 210.724C146.781 211.192 147.613 211.849 148.262 212.692C148.91 213.536 149.312 214.521 149.469 215.646H146.703C146.492 214.825 146.023 214.099 145.297 213.466C144.578 212.825 143.609 212.505 142.391 212.505C141.312 212.505 140.367 212.786 139.555 213.349C138.75 213.903 138.121 214.688 137.668 215.704C137.223 216.712 137 217.896 137 219.255C137 220.646 137.219 221.856 137.656 222.888C138.101 223.919 138.726 224.72 139.531 225.29C140.344 225.86 141.297 226.146 142.391 226.146C143.109 226.146 143.762 226.021 144.348 225.771C144.934 225.521 145.43 225.161 145.836 224.692C146.242 224.224 146.531 223.661 146.703 223.005H149.469C149.312 224.067 148.926 225.024 148.309 225.876C147.699 226.72 146.891 227.392 145.883 227.892C144.883 228.384 143.719 228.63 142.391 228.63Z" fill="black"/>
<path d="M230.444 228V204H233.351V225.422H244.507V228H230.444ZM255.944 228.375C254.319 228.375 252.894 227.988 251.667 227.215C250.448 226.441 249.495 225.359 248.808 223.969C248.128 222.578 247.788 220.953 247.788 219.094C247.788 217.219 248.128 215.582 248.808 214.184C249.495 212.785 250.448 211.699 251.667 210.926C252.894 210.152 254.319 209.766 255.944 209.766C257.569 209.766 258.991 210.152 260.21 210.926C261.437 211.699 262.39 212.785 263.069 214.184C263.757 215.582 264.101 217.219 264.101 219.094C264.101 220.953 263.757 222.578 263.069 223.969C262.39 225.359 261.437 226.441 260.21 227.215C258.991 227.988 257.569 228.375 255.944 228.375ZM255.944 225.891C257.179 225.891 258.194 225.574 258.991 224.941C259.788 224.309 260.378 223.477 260.761 222.445C261.144 221.414 261.335 220.297 261.335 219.094C261.335 217.891 261.144 216.77 260.761 215.73C260.378 214.691 259.788 213.852 258.991 213.211C258.194 212.57 257.179 212.25 255.944 212.25C254.71 212.25 253.694 212.57 252.897 213.211C252.101 213.852 251.511 214.691 251.128 215.73C250.745 216.77 250.554 217.891 250.554 219.094C250.554 220.297 250.745 221.414 251.128 222.445C251.511 223.477 252.101 224.309 252.897 224.941C253.694 225.574 254.71 225.891 255.944 225.891ZM279.666 220.641V210H282.432V228H279.666V224.953H279.479C279.057 225.867 278.4 226.645 277.51 227.285C276.619 227.918 275.494 228.234 274.135 228.234C273.01 228.234 272.01 227.988 271.135 227.496C270.26 226.996 269.572 226.246 269.072 225.246C268.572 224.238 268.322 222.969 268.322 221.437V210H271.088V221.25C271.088 222.562 271.455 223.609 272.189 224.391C272.932 225.172 273.877 225.562 275.025 225.562C275.713 225.562 276.412 225.387 277.123 225.035C277.842 224.684 278.443 224.145 278.928 223.418C279.42 222.691 279.666 221.766 279.666 220.641ZM294.294 228.375C292.794 228.375 291.47 227.996 290.321 227.238C289.173 226.473 288.274 225.395 287.626 224.004C286.978 222.605 286.653 220.953 286.653 219.047C286.653 217.156 286.978 215.516 287.626 214.125C288.274 212.734 289.177 211.66 290.333 210.902C291.489 210.145 292.825 209.766 294.341 209.766C295.513 209.766 296.438 209.961 297.118 210.352C297.806 210.734 298.329 211.172 298.688 211.664C299.056 212.148 299.341 212.547 299.544 212.859H299.778V204H302.544V228H299.872V225.234H299.544C299.341 225.562 299.052 225.977 298.677 226.477C298.302 226.969 297.767 227.41 297.071 227.801C296.376 228.184 295.45 228.375 294.294 228.375ZM294.669 225.891C295.778 225.891 296.716 225.602 297.481 225.023C298.247 224.437 298.829 223.629 299.228 222.598C299.626 221.559 299.825 220.359 299.825 219C299.825 217.656 299.63 216.48 299.239 215.473C298.849 214.457 298.271 213.668 297.505 213.105C296.739 212.535 295.794 212.25 294.669 212.25C293.497 212.25 292.521 212.551 291.739 213.152C290.966 213.746 290.384 214.555 289.993 215.578C289.61 216.594 289.419 217.734 289.419 219C289.419 220.281 289.614 221.445 290.005 222.492C290.403 223.531 290.989 224.359 291.763 224.977C292.544 225.586 293.513 225.891 294.669 225.891Z" fill="black"/>
<path d="M442.093 220.755H445.281L447.953 224.271L448.656 225.208L452.64 230.505H449.453L446.828 226.989L446.172 226.099L442.093 220.755ZM453.625 216.255C453.625 218.786 453.168 220.974 452.254 222.817C451.34 224.661 450.086 226.083 448.492 227.083C446.898 228.083 445.078 228.583 443.031 228.583C440.984 228.583 439.164 228.083 437.57 227.083C435.976 226.083 434.722 224.661 433.808 222.817C432.894 220.974 432.437 218.786 432.437 216.255C432.437 213.724 432.894 211.536 433.808 209.692C434.722 207.849 435.976 206.427 437.57 205.427C439.164 204.427 440.984 203.927 443.031 203.927C445.078 203.927 446.898 204.427 448.492 205.427C450.086 206.427 451.34 207.849 452.254 209.692C453.168 211.536 453.625 213.724 453.625 216.255ZM450.812 216.255C450.812 214.177 450.465 212.423 449.769 210.993C449.082 209.563 448.148 208.481 446.968 207.747C445.797 207.013 444.484 206.646 443.031 206.646C441.578 206.646 440.261 207.013 439.082 207.747C437.91 208.481 436.976 209.563 436.281 210.993C435.593 212.423 435.25 214.177 435.25 216.255C435.25 218.333 435.593 220.087 436.281 221.517C436.976 222.946 437.91 224.028 439.082 224.763C440.261 225.497 441.578 225.864 443.031 225.864C444.484 225.864 445.797 225.497 446.968 224.763C448.148 224.028 449.082 222.946 449.769 221.517C450.465 220.087 450.812 218.333 450.812 216.255ZM469.48 220.896V210.255H472.246V228.255H469.48V225.208H469.293C468.871 226.122 468.215 226.899 467.324 227.54C466.433 228.173 465.308 228.489 463.949 228.489C462.824 228.489 461.824 228.243 460.949 227.751C460.074 227.251 459.386 226.501 458.886 225.501C458.386 224.493 458.136 223.224 458.136 221.692V210.255H460.902V221.505C460.902 222.817 461.269 223.864 462.004 224.646C462.746 225.427 463.691 225.817 464.84 225.817C465.527 225.817 466.226 225.642 466.937 225.29C467.656 224.938 468.257 224.399 468.742 223.673C469.234 222.946 469.48 222.021 469.48 220.896ZM477.311 228.255V210.255H480.077V228.255H477.311ZM478.717 207.255C478.178 207.255 477.714 207.071 477.323 206.704C476.94 206.337 476.749 205.896 476.749 205.38C476.749 204.864 476.94 204.423 477.323 204.056C477.714 203.688 478.178 203.505 478.717 203.505C479.257 203.505 479.717 203.688 480.1 204.056C480.491 204.423 480.686 204.864 480.686 205.38C480.686 205.896 480.491 206.337 480.1 206.704C479.717 207.071 479.257 207.255 478.717 207.255ZM492.689 228.63C490.955 228.63 489.459 228.247 488.201 227.481C486.951 226.708 485.986 225.63 485.306 224.247C484.634 222.856 484.299 221.239 484.299 219.396C484.299 217.552 484.634 215.927 485.306 214.521C485.986 213.106 486.931 212.005 488.142 211.216C489.361 210.419 490.783 210.021 492.408 210.021C493.345 210.021 494.271 210.177 495.185 210.489C496.099 210.802 496.931 211.31 497.681 212.013C498.431 212.708 499.029 213.63 499.474 214.778C499.92 215.927 500.142 217.341 500.142 219.021V220.192H486.267V217.802H497.33C497.33 216.786 497.127 215.88 496.72 215.083C496.322 214.286 495.752 213.657 495.009 213.196C494.275 212.735 493.408 212.505 492.408 212.505C491.306 212.505 490.353 212.778 489.549 213.325C488.752 213.864 488.138 214.567 487.709 215.435C487.279 216.302 487.064 217.231 487.064 218.224V219.817C487.064 221.177 487.299 222.329 487.767 223.274C488.244 224.212 488.904 224.927 489.748 225.419C490.591 225.903 491.572 226.146 492.689 226.146C493.416 226.146 494.072 226.044 494.658 225.841C495.252 225.63 495.763 225.317 496.193 224.903C496.623 224.481 496.955 223.958 497.189 223.333L499.861 224.083C499.58 224.989 499.107 225.786 498.443 226.474C497.779 227.153 496.959 227.685 495.982 228.067C495.006 228.442 493.908 228.63 492.689 228.63ZM512.177 210.255V212.599H502.849V210.255H512.177ZM505.568 205.942H508.334V223.099C508.334 223.88 508.447 224.466 508.674 224.856C508.908 225.239 509.205 225.497 509.564 225.63C509.931 225.755 510.318 225.817 510.724 225.817C511.029 225.817 511.279 225.802 511.474 225.771C511.67 225.731 511.826 225.7 511.943 225.677L512.506 228.161C512.318 228.231 512.056 228.302 511.72 228.372C511.384 228.45 510.959 228.489 510.443 228.489C509.662 228.489 508.896 228.321 508.146 227.985C507.404 227.649 506.787 227.138 506.295 226.45C505.81 225.763 505.568 224.896 505.568 223.849V205.942Z" fill="black"/>
<rect x="515.5" y="184.5" width="71" height="61" fill="#A6C6DE" stroke="black"/>
<rect x="586.304" y="184.696" width="119.784" height="60.902" fill="#A6C6DE" stroke="black"/>
<path d="M555.392 216.677V219.255H544.892V216.677H555.392Z" fill="black"/>
<path d="M90.412 327.902V309.902H93.0839V312.621H93.2714C93.5995 311.73 94.1932 311.007 95.0526 310.453C95.912 309.898 96.8807 309.621 97.9589 309.621C98.162 309.621 98.4159 309.625 98.7206 309.632C99.0253 309.64 99.2557 309.652 99.412 309.668V312.48C99.3182 312.457 99.1034 312.422 98.7675 312.375C98.4393 312.32 98.0917 312.293 97.7245 312.293C96.8495 312.293 96.0682 312.476 95.3807 312.843C94.7011 313.203 94.162 313.703 93.7636 314.343C93.3729 314.976 93.1776 315.699 93.1776 316.511V327.902H90.412ZM109.455 328.277C107.83 328.277 106.404 327.89 105.178 327.117C103.959 326.343 103.006 325.261 102.318 323.871C101.639 322.48 101.299 320.855 101.299 318.996C101.299 317.121 101.639 315.484 102.318 314.086C103.006 312.687 103.959 311.601 105.178 310.828C106.404 310.054 107.83 309.668 109.455 309.668C111.08 309.668 112.502 310.054 113.721 310.828C114.947 311.601 115.9 312.687 116.58 314.086C117.267 315.484 117.611 317.121 117.611 318.996C117.611 320.855 117.267 322.48 116.58 323.871C115.9 325.261 114.947 326.343 113.721 327.117C112.502 327.89 111.08 328.277 109.455 328.277ZM109.455 325.793C110.689 325.793 111.705 325.476 112.502 324.843C113.299 324.211 113.889 323.379 114.271 322.347C114.654 321.316 114.846 320.199 114.846 318.996C114.846 317.793 114.654 316.672 114.271 315.632C113.889 314.593 113.299 313.754 112.502 313.113C111.705 312.472 110.689 312.152 109.455 312.152C108.221 312.152 107.205 312.472 106.408 313.113C105.611 313.754 105.021 314.593 104.639 315.632C104.256 316.672 104.064 317.793 104.064 318.996C104.064 320.199 104.256 321.316 104.639 322.347C105.021 323.379 105.611 324.211 106.408 324.843C107.205 325.476 108.221 325.793 109.455 325.793ZM129.145 328.277C127.52 328.277 126.095 327.89 124.868 327.117C123.649 326.343 122.696 325.261 122.009 323.871C121.329 322.48 120.989 320.855 120.989 318.996C120.989 317.121 121.329 315.484 122.009 314.086C122.696 312.687 123.649 311.601 124.868 310.828C126.095 310.054 127.52 309.668 129.145 309.668C130.77 309.668 132.192 310.054 133.411 310.828C134.638 311.601 135.591 312.687 136.27 314.086C136.958 315.484 137.302 317.121 137.302 318.996C137.302 320.855 136.958 322.48 136.27 323.871C135.591 325.261 134.638 326.343 133.411 327.117C132.192 327.89 130.77 328.277 129.145 328.277ZM129.145 325.793C130.38 325.793 131.395 325.476 132.192 324.843C132.989 324.211 133.579 323.379 133.962 322.347C134.345 321.316 134.536 320.199 134.536 318.996C134.536 317.793 134.345 316.672 133.962 315.632C133.579 314.593 132.989 313.754 132.192 313.113C131.395 312.472 130.38 312.152 129.145 312.152C127.911 312.152 126.895 312.472 126.099 313.113C125.302 313.754 124.712 314.593 124.329 315.632C123.946 316.672 123.755 317.793 123.755 318.996C123.755 320.199 123.946 321.316 124.329 322.347C124.712 323.379 125.302 324.211 126.099 324.843C126.895 325.476 127.911 325.793 129.145 325.793ZM149.351 309.902V312.246H140.023V309.902H149.351ZM142.742 305.589H145.508V322.746C145.508 323.527 145.621 324.113 145.848 324.504C146.082 324.886 146.379 325.144 146.738 325.277C147.105 325.402 147.492 325.464 147.898 325.464C148.203 325.464 148.453 325.449 148.648 325.418C148.844 325.379 149 325.347 149.117 325.324L149.68 327.808C149.492 327.879 149.23 327.949 148.894 328.019C148.558 328.097 148.133 328.136 147.617 328.136C146.836 328.136 146.07 327.968 145.32 327.632C144.578 327.297 143.961 326.785 143.469 326.097C142.984 325.41 142.742 324.543 142.742 323.496V305.589Z" fill="black"/>
<path d="M466.064 327.902H463.017L471.829 303.902H474.829L483.642 327.902H480.595L473.423 307.699H473.236L466.064 327.902ZM467.189 318.527H479.47V321.105H467.189V318.527Z" fill="black"/>
<path d="M600.945 321.152V321.011C600.96 319.519 601.116 318.332 601.413 317.449C601.71 316.566 602.132 315.851 602.679 315.304C603.226 314.757 603.882 314.254 604.648 313.793C605.109 313.511 605.523 313.179 605.89 312.797C606.257 312.406 606.546 311.957 606.757 311.449C606.976 310.941 607.085 310.379 607.085 309.761C607.085 308.996 606.906 308.332 606.546 307.769C606.187 307.207 605.706 306.773 605.105 306.468C604.503 306.164 603.835 306.011 603.101 306.011C602.46 306.011 601.843 306.144 601.249 306.41C600.656 306.675 600.159 307.093 599.761 307.664C599.363 308.234 599.132 308.98 599.07 309.902H596.116C596.179 308.574 596.523 307.437 597.148 306.492C597.781 305.547 598.613 304.824 599.644 304.324C600.683 303.824 601.835 303.574 603.101 303.574C604.476 303.574 605.671 303.847 606.687 304.394C607.71 304.941 608.499 305.691 609.054 306.644C609.616 307.597 609.898 308.683 609.898 309.902C609.898 310.761 609.765 311.539 609.499 312.234C609.241 312.929 608.866 313.55 608.374 314.097C607.89 314.644 607.304 315.129 606.616 315.55C605.929 315.98 605.378 316.433 604.964 316.91C604.55 317.379 604.249 317.937 604.062 318.586C603.874 319.234 603.773 320.043 603.757 321.011V321.152H600.945ZM602.445 328.089C601.866 328.089 601.37 327.882 600.956 327.468C600.542 327.054 600.335 326.558 600.335 325.98C600.335 325.402 600.542 324.906 600.956 324.492C601.37 324.078 601.866 323.871 602.445 323.871C603.023 323.871 603.519 324.078 603.933 324.492C604.347 324.906 604.554 325.402 604.554 325.98C604.554 326.363 604.456 326.714 604.261 327.035C604.073 327.355 603.82 327.613 603.499 327.808C603.187 327.996 602.835 328.089 602.445 328.089Z" fill="black"/>
<path d="M341.616 311.402H338.71C338.538 310.566 338.237 309.832 337.808 309.199C337.386 308.566 336.87 308.035 336.261 307.605C335.659 307.168 334.991 306.839 334.257 306.621C333.523 306.402 332.757 306.293 331.96 306.293C330.507 306.293 329.191 306.66 328.011 307.394C326.839 308.129 325.905 309.211 325.21 310.64C324.523 312.07 324.179 313.824 324.179 315.902C324.179 317.98 324.523 319.734 325.21 321.164C325.905 322.593 326.839 323.675 328.011 324.41C329.191 325.144 330.507 325.511 331.96 325.511C332.757 325.511 333.523 325.402 334.257 325.183C334.991 324.964 335.659 324.64 336.261 324.211C336.87 323.773 337.386 323.238 337.808 322.605C338.237 321.964 338.538 321.23 338.71 320.402H341.616C341.398 321.629 340.999 322.726 340.421 323.695C339.843 324.664 339.124 325.488 338.265 326.168C337.405 326.839 336.441 327.351 335.37 327.703C334.308 328.054 333.171 328.23 331.96 328.23C329.913 328.23 328.093 327.73 326.499 326.73C324.905 325.73 323.651 324.308 322.737 322.464C321.823 320.621 321.366 318.433 321.366 315.902C321.366 313.371 321.823 311.183 322.737 309.339C323.651 307.496 324.905 306.074 326.499 305.074C328.093 304.074 329.913 303.574 331.96 303.574C333.171 303.574 334.308 303.75 335.37 304.101C336.441 304.453 337.405 304.968 338.265 305.648C339.124 306.32 339.843 307.14 340.421 308.109C340.999 309.07 341.398 310.168 341.616 311.402Z" fill="black"/>
<path d="M243.335 311.402C243.077 310.613 242.737 309.906 242.315 309.281C241.901 308.648 241.405 308.109 240.827 307.664C240.256 307.218 239.608 306.879 238.881 306.644C238.155 306.41 237.358 306.293 236.491 306.293C235.069 306.293 233.776 306.66 232.612 307.394C231.448 308.129 230.522 309.211 229.835 310.64C229.147 312.07 228.803 313.824 228.803 315.902C228.803 317.98 229.151 319.734 229.846 321.164C230.542 322.593 231.483 323.675 232.671 324.41C233.858 325.144 235.194 325.511 236.678 325.511C238.053 325.511 239.264 325.218 240.311 324.632C241.366 324.039 242.186 323.203 242.772 322.125C243.366 321.039 243.663 319.761 243.663 318.293L244.553 318.48H237.335V315.902H246.475V318.48C246.475 320.457 246.053 322.175 245.21 323.636C244.374 325.097 243.217 326.23 241.741 327.035C240.272 327.832 238.585 328.23 236.678 328.23C234.553 328.23 232.686 327.73 231.077 326.73C229.475 325.73 228.225 324.308 227.327 322.464C226.436 320.621 225.991 318.433 225.991 315.902C225.991 314.004 226.245 312.297 226.753 310.781C227.268 309.257 227.995 307.961 228.932 306.89C229.87 305.82 230.979 305 232.26 304.429C233.542 303.859 234.952 303.574 236.491 303.574C237.756 303.574 238.936 303.765 240.03 304.148C241.131 304.523 242.112 305.058 242.971 305.754C243.838 306.441 244.561 307.265 245.139 308.226C245.717 309.179 246.116 310.238 246.335 311.402H243.335Z" fill="black"/>
<path d="M609.444 228V204H612.351V225.422H623.507V228H609.444ZM634.944 228.375C633.319 228.375 631.894 227.988 630.667 227.215C629.448 226.441 628.495 225.359 627.808 223.969C627.128 222.578 626.788 220.953 626.788 219.094C626.788 217.219 627.128 215.582 627.808 214.184C628.495 212.785 629.448 211.699 630.667 210.926C631.894 210.152 633.319 209.766 634.944 209.766C636.569 209.766 637.991 210.152 639.21 210.926C640.437 211.699 641.39 212.785 642.069 214.184C642.757 215.582 643.101 217.219 643.101 219.094C643.101 220.953 642.757 222.578 642.069 223.969C641.39 225.359 640.437 226.441 639.21 227.215C637.991 227.988 636.569 228.375 634.944 228.375ZM634.944 225.891C636.179 225.891 637.194 225.574 637.991 224.941C638.788 224.309 639.378 223.477 639.761 222.445C640.144 221.414 640.335 220.297 640.335 219.094C640.335 217.891 640.144 216.77 639.761 215.73C639.378 214.691 638.788 213.852 637.991 213.211C637.194 212.57 636.179 212.25 634.944 212.25C633.71 212.25 632.694 212.57 631.897 213.211C631.101 213.852 630.511 214.691 630.128 215.73C629.745 216.77 629.554 217.891 629.554 219.094C629.554 220.297 629.745 221.414 630.128 222.445C630.511 223.477 631.101 224.309 631.897 224.941C632.694 225.574 633.71 225.891 634.944 225.891ZM658.666 220.641V210H661.432V228H658.666V224.953H658.479C658.057 225.867 657.4 226.645 656.51 227.285C655.619 227.918 654.494 228.234 653.135 228.234C652.01 228.234 651.01 227.988 650.135 227.496C649.26 226.996 648.572 226.246 648.072 225.246C647.572 224.238 647.322 222.969 647.322 221.437V210H650.088V221.25C650.088 222.562 650.455 223.609 651.189 224.391C651.932 225.172 652.877 225.562 654.025 225.562C654.713 225.562 655.412 225.387 656.123 225.035C656.842 224.684 657.443 224.145 657.928 223.418C658.42 222.691 658.666 221.766 658.666 220.641ZM673.294 228.375C671.794 228.375 670.47 227.996 669.321 227.238C668.173 226.473 667.274 225.395 666.626 224.004C665.978 222.605 665.653 220.953 665.653 219.047C665.653 217.156 665.978 215.516 666.626 214.125C667.274 212.734 668.177 211.66 669.333 210.902C670.489 210.145 671.825 209.766 673.341 209.766C674.513 209.766 675.438 209.961 676.118 210.352C676.806 210.734 677.329 211.172 677.688 211.664C678.056 212.148 678.341 212.547 678.544 212.859H678.778V204H681.544V228H678.872V225.234H678.544C678.341 225.562 678.052 225.977 677.677 226.477C677.302 226.969 676.767 227.41 676.071 227.801C675.376 228.184 674.45 228.375 673.294 228.375ZM673.669 225.891C674.778 225.891 675.716 225.602 676.481 225.023C677.247 224.437 677.829 223.629 678.228 222.598C678.626 221.559 678.825 220.359 678.825 219C678.825 217.656 678.63 216.48 678.239 215.473C677.849 214.457 677.271 213.668 676.505 213.105C675.739 212.535 674.794 212.25 673.669 212.25C672.497 212.25 671.521 212.551 670.739 213.152C669.966 213.746 669.384 214.555 668.993 215.578C668.61 216.594 668.419 217.734 668.419 219C668.419 220.281 668.614 221.445 669.005 222.492C669.403 223.531 669.989 224.359 670.763 224.977C671.544 225.586 672.513 225.891 673.669 225.891Z" fill="black"/>
</svg>
